G04*
G04 #@! TF.GenerationSoftware,Altium Limited,Altium Designer,23.6.0 (18)*
G04*
G04 Layer_Color=8421504*
%FSLAX44Y44*%
%MOMM*%
G71*
G04*
G04 #@! TF.SameCoordinates,AADCE73A-F72B-4A01-A8B1-447CC9BFCAD9*
G04*
G04*
G04 #@! TF.FilePolarity,Positive*
G04*
G01*
G75*
%ADD10C,0.2000*%
%ADD19R,1.8000X8.0000*%
%ADD20R,1.8000X6.6000*%
%ADD21R,1.8800X2.4700*%
%ADD22R,2.4700X1.8800*%
%ADD23R,1.1000X1.1000*%
%ADD24R,1.1000X1.1000*%
%ADD25R,1.0000X1.1000*%
%ADD26R,1.1000X1.0000*%
%ADD27R,1.4000X1.5000*%
%ADD28R,1.8000X1.6000*%
%ADD29R,2.5500X6.4000*%
%ADD30R,1.9600X3.1500*%
%ADD31R,1.7000X2.0000*%
G04:AMPARAMS|DCode=32|XSize=6.45mm|YSize=8.5mm|CornerRadius=0.0645mm|HoleSize=0mm|Usage=FLASHONLY|Rotation=270.000|XOffset=0mm|YOffset=0mm|HoleType=Round|Shape=RoundedRectangle|*
%AMROUNDEDRECTD32*
21,1,6.4500,8.3710,0,0,270.0*
21,1,6.3210,8.5000,0,0,270.0*
1,1,0.1290,-4.1855,-3.1605*
1,1,0.1290,-4.1855,3.1605*
1,1,0.1290,4.1855,3.1605*
1,1,0.1290,4.1855,-3.1605*
%
%ADD32ROUNDEDRECTD32*%
G04:AMPARAMS|DCode=33|XSize=1.05mm|YSize=4.45mm|CornerRadius=0.0525mm|HoleSize=0mm|Usage=FLASHONLY|Rotation=270.000|XOffset=0mm|YOffset=0mm|HoleType=Round|Shape=RoundedRectangle|*
%AMROUNDEDRECTD33*
21,1,1.0500,4.3450,0,0,270.0*
21,1,0.9450,4.4500,0,0,270.0*
1,1,0.1050,-2.1725,-0.4725*
1,1,0.1050,-2.1725,0.4725*
1,1,0.1050,2.1725,0.4725*
1,1,0.1050,2.1725,-0.4725*
%
%ADD33ROUNDEDRECTD33*%
D10*
X-0Y0D02*
X1000000D01*
Y1000000D01*
X685000D02*
X1000000D01*
X685000Y950000D02*
Y1000000D01*
X315000Y950000D02*
X685000D01*
X315000D02*
Y1000000D01*
X-0D02*
X315000D01*
X-0Y0D02*
Y1000000D01*
D19*
X454850Y238100D02*
D03*
X461050Y615650D02*
D03*
D20*
X454850Y355100D02*
D03*
X461050Y732650D02*
D03*
D21*
X492600Y204850D02*
D03*
X537100D02*
D03*
X581600D02*
D03*
X626100D02*
D03*
X670600D02*
D03*
X715100D02*
D03*
X759600D02*
D03*
Y381350D02*
D03*
X715100D02*
D03*
X670600D02*
D03*
X626100D02*
D03*
X581600D02*
D03*
X537100D02*
D03*
X492600D02*
D03*
X498800Y582400D02*
D03*
X543300D02*
D03*
X587800D02*
D03*
X632300D02*
D03*
X676800D02*
D03*
X721300D02*
D03*
X765800D02*
D03*
Y758900D02*
D03*
X721300D02*
D03*
X676800D02*
D03*
X632300D02*
D03*
X587800D02*
D03*
X543300D02*
D03*
X498800D02*
D03*
D22*
X797350Y224100D02*
D03*
Y270100D02*
D03*
Y316100D02*
D03*
Y362100D02*
D03*
X803550Y601650D02*
D03*
Y647650D02*
D03*
Y693650D02*
D03*
Y739650D02*
D03*
D23*
X693300Y423400D02*
D03*
X674300D02*
D03*
X98300Y317000D02*
D03*
X117300D02*
D03*
X61700Y429300D02*
D03*
X80700D02*
D03*
X80800Y461100D02*
D03*
X61800D02*
D03*
X61300Y492800D02*
D03*
X80300D02*
D03*
X61700Y524700D02*
D03*
X80700D02*
D03*
X245200Y955600D02*
D03*
X226200D02*
D03*
X245700Y921200D02*
D03*
X226700D02*
D03*
X714900Y450400D02*
D03*
X695900D02*
D03*
X849800Y489600D02*
D03*
X868800D02*
D03*
X886000Y347500D02*
D03*
X867000D02*
D03*
X885100Y271300D02*
D03*
X866100D02*
D03*
X883000Y192900D02*
D03*
X864000D02*
D03*
X540600Y830800D02*
D03*
X521600D02*
D03*
X541200Y804500D02*
D03*
X522200D02*
D03*
D24*
X92800Y851000D02*
D03*
Y832000D02*
D03*
X62400Y362300D02*
D03*
Y343300D02*
D03*
X94400Y343000D02*
D03*
Y362000D02*
D03*
X308600Y780200D02*
D03*
Y761200D02*
D03*
X846800Y723200D02*
D03*
Y742200D02*
D03*
X807200Y138400D02*
D03*
Y157400D02*
D03*
X254100Y779000D02*
D03*
Y760000D02*
D03*
X362400Y426400D02*
D03*
Y445400D02*
D03*
X248500Y655000D02*
D03*
Y674000D02*
D03*
D25*
X36500Y361300D02*
D03*
Y344300D02*
D03*
X829100Y359800D02*
D03*
Y342800D02*
D03*
X812600Y488500D02*
D03*
Y505500D02*
D03*
X866300Y401000D02*
D03*
Y384000D02*
D03*
X865400Y318900D02*
D03*
Y301900D02*
D03*
X864000Y240300D02*
D03*
Y223300D02*
D03*
X275800Y673500D02*
D03*
Y656500D02*
D03*
X85800Y699100D02*
D03*
Y716100D02*
D03*
X108300Y698900D02*
D03*
Y715900D02*
D03*
X40900Y589100D02*
D03*
Y606100D02*
D03*
X40600Y650200D02*
D03*
Y633200D02*
D03*
D26*
X78800Y398200D02*
D03*
X61800D02*
D03*
X678100Y828000D02*
D03*
X695100D02*
D03*
X737700Y803200D02*
D03*
X720700D02*
D03*
X867800Y445500D02*
D03*
X850800D02*
D03*
X847100Y159000D02*
D03*
X864100D02*
D03*
X777100Y156700D02*
D03*
X760100D02*
D03*
X588200Y832000D02*
D03*
X571200D02*
D03*
D27*
X785500Y489600D02*
D03*
X765500D02*
D03*
D28*
X222900Y200300D02*
D03*
Y228300D02*
D03*
D29*
X275800Y127500D02*
D03*
X321800D02*
D03*
D30*
X304950Y36000D02*
D03*
X255850D02*
D03*
D31*
X289700Y194800D02*
D03*
Y254800D02*
D03*
D32*
X72700Y180200D02*
D03*
D33*
X178200Y214200D02*
D03*
Y197200D02*
D03*
Y180200D02*
D03*
Y163200D02*
D03*
Y146200D02*
D03*
M02*
