G04*
G04 #@! TF.GenerationSoftware,Altium Limited,Altium Designer,23.6.0 (18)*
G04*
G04 Layer_Physical_Order=1*
G04 Layer_Color=255*
%FSLAX44Y44*%
%MOMM*%
G71*
G04*
G04 #@! TF.SameCoordinates,AADCE73A-F72B-4A01-A8B1-447CC9BFCAD9*
G04*
G04*
G04 #@! TF.FilePolarity,Positive*
G04*
G01*
G75*
%ADD10C,0.2000*%
%ADD16C,0.2540*%
%ADD17C,0.5000*%
%ADD19R,1.8000X8.0000*%
%ADD20R,1.8000X6.6000*%
%ADD21R,1.8800X2.4700*%
%ADD22R,2.4700X1.8800*%
%ADD23R,1.1000X1.1000*%
%ADD24R,1.1000X1.1000*%
%ADD25R,1.0000X1.1000*%
%ADD26R,1.1000X1.0000*%
%ADD27R,1.4000X1.5000*%
%ADD28R,1.8000X1.6000*%
%ADD29R,2.5500X6.4000*%
%ADD30R,1.9600X3.1500*%
%ADD31R,1.7000X2.0000*%
G04:AMPARAMS|DCode=32|XSize=6.45mm|YSize=8.5mm|CornerRadius=0.0645mm|HoleSize=0mm|Usage=FLASHONLY|Rotation=270.000|XOffset=0mm|YOffset=0mm|HoleType=Round|Shape=RoundedRectangle|*
%AMROUNDEDRECTD32*
21,1,6.4500,8.3710,0,0,270.0*
21,1,6.3210,8.5000,0,0,270.0*
1,1,0.1290,-4.1855,-3.1605*
1,1,0.1290,-4.1855,3.1605*
1,1,0.1290,4.1855,3.1605*
1,1,0.1290,4.1855,-3.1605*
%
%ADD32ROUNDEDRECTD32*%
G04:AMPARAMS|DCode=33|XSize=1.05mm|YSize=4.45mm|CornerRadius=0.0525mm|HoleSize=0mm|Usage=FLASHONLY|Rotation=270.000|XOffset=0mm|YOffset=0mm|HoleType=Round|Shape=RoundedRectangle|*
%AMROUNDEDRECTD33*
21,1,1.0500,4.3450,0,0,270.0*
21,1,0.9450,4.4500,0,0,270.0*
1,1,0.1050,-2.1725,-0.4725*
1,1,0.1050,-2.1725,0.4725*
1,1,0.1050,2.1725,0.4725*
1,1,0.1050,2.1725,-0.4725*
%
%ADD33ROUNDEDRECTD33*%
%ADD51C,1.6000*%
%ADD52R,1.6000X1.6000*%
%ADD67C,0.3400*%
%ADD68C,1.0000*%
%ADD69R,1.5000X1.5000*%
%ADD70C,1.5000*%
%ADD71C,1.6500*%
%ADD72C,1.4000*%
%ADD73C,4.8000*%
G04:AMPARAMS|DCode=74|XSize=1.65mm|YSize=1.65mm|CornerRadius=0.4125mm|HoleSize=0mm|Usage=FLASHONLY|Rotation=0.000|XOffset=0mm|YOffset=0mm|HoleType=Round|Shape=RoundedRectangle|*
%AMROUNDEDRECTD74*
21,1,1.6500,0.8250,0,0,0.0*
21,1,0.8250,1.6500,0,0,0.0*
1,1,0.8250,0.4125,-0.4125*
1,1,0.8250,-0.4125,-0.4125*
1,1,0.8250,-0.4125,0.4125*
1,1,0.8250,0.4125,0.4125*
%
%ADD74ROUNDEDRECTD74*%
%ADD75C,1.0500*%
%ADD76R,1.0500X1.0500*%
%ADD77C,1.2000*%
%ADD78R,1.2000X1.2000*%
G04:AMPARAMS|DCode=79|XSize=1.6mm|YSize=1.6mm|CornerRadius=0.4mm|HoleSize=0mm|Usage=FLASHONLY|Rotation=90.000|XOffset=0mm|YOffset=0mm|HoleType=Round|Shape=RoundedRectangle|*
%AMROUNDEDRECTD79*
21,1,1.6000,0.8000,0,0,90.0*
21,1,0.8000,1.6000,0,0,90.0*
1,1,0.8000,0.4000,0.4000*
1,1,0.8000,0.4000,-0.4000*
1,1,0.8000,-0.4000,-0.4000*
1,1,0.8000,-0.4000,0.4000*
%
%ADD79ROUNDEDRECTD79*%
G04:AMPARAMS|DCode=80|XSize=1.6mm|YSize=1.6mm|CornerRadius=0.4mm|HoleSize=0mm|Usage=FLASHONLY|Rotation=0.000|XOffset=0mm|YOffset=0mm|HoleType=Round|Shape=RoundedRectangle|*
%AMROUNDEDRECTD80*
21,1,1.6000,0.8000,0,0,0.0*
21,1,0.8000,1.6000,0,0,0.0*
1,1,0.8000,0.4000,-0.4000*
1,1,0.8000,-0.4000,-0.4000*
1,1,0.8000,-0.4000,0.4000*
1,1,0.8000,0.4000,0.4000*
%
%ADD80ROUNDEDRECTD80*%
%ADD81C,1.6970*%
%ADD82C,3.2000*%
%ADD83C,1.0000*%
%ADD84C,1.2700*%
G36*
X939093Y993809D02*
X937528Y992472D01*
X933569Y987836D01*
X930384Y982638D01*
X928051Y977006D01*
X926627Y971078D01*
X926149Y965000D01*
X926627Y958922D01*
X928051Y952994D01*
X930384Y947362D01*
X933569Y942164D01*
X937528Y937528D01*
X942164Y933569D01*
X947362Y930384D01*
X952994Y928051D01*
X958922Y926627D01*
X965000Y926149D01*
X971078Y926627D01*
X977006Y928051D01*
X982638Y930384D01*
X987836Y933569D01*
X992472Y937528D01*
X993809Y939093D01*
X995000Y938654D01*
Y61689D01*
X993809Y61249D01*
X992630Y62630D01*
X987967Y66612D01*
X982739Y69816D01*
X977075Y72162D01*
X971113Y73593D01*
X965000Y74074D01*
X958887Y73593D01*
X952925Y72162D01*
X947261Y69816D01*
X942033Y66612D01*
X937370Y62630D01*
X933388Y57967D01*
X930185Y52739D01*
X927838Y47075D01*
X926407Y41113D01*
X925926Y35000D01*
X926407Y28887D01*
X927838Y22925D01*
X930185Y17261D01*
X933388Y12033D01*
X937370Y7370D01*
X938751Y6191D01*
X938311Y5000D01*
X61689D01*
X61249Y6191D01*
X62630Y7370D01*
X66612Y12033D01*
X69816Y17261D01*
X72162Y22925D01*
X73593Y28887D01*
X74074Y35000D01*
X73593Y41113D01*
X72162Y47075D01*
X69816Y52739D01*
X66612Y57967D01*
X62630Y62630D01*
X57967Y66612D01*
X52739Y69816D01*
X47075Y72162D01*
X41113Y73593D01*
X35000Y74074D01*
X28887Y73593D01*
X22925Y72162D01*
X17261Y69816D01*
X12033Y66612D01*
X7370Y62630D01*
X6191Y61249D01*
X5000Y61689D01*
Y939787D01*
X6191Y940226D01*
X8050Y938050D01*
X12598Y934166D01*
X17697Y931041D01*
X23222Y928752D01*
X29038Y927356D01*
X35000Y926887D01*
X40962Y927356D01*
X46778Y928752D01*
X52303Y931041D01*
X57402Y934166D01*
X61950Y938050D01*
X65834Y942598D01*
X68959Y947697D01*
X71248Y953222D01*
X72644Y959038D01*
X73113Y965000D01*
X72644Y970962D01*
X71248Y976778D01*
X68959Y982303D01*
X65834Y987402D01*
X61950Y991950D01*
X59774Y993809D01*
X60213Y995000D01*
X310000D01*
Y945000D01*
X690000D01*
Y995000D01*
X938654D01*
X939093Y993809D01*
D02*
G37*
G36*
X39747Y994968D02*
X44376Y993857D01*
X48775Y992035D01*
X52835Y989547D01*
X56455Y986455D01*
X59547Y982835D01*
X62035Y978775D01*
X63857Y974376D01*
X64969Y969746D01*
X65342Y965000D01*
X64969Y960254D01*
X63857Y955624D01*
X62035Y951225D01*
X59547Y947165D01*
X56455Y943545D01*
X52835Y940453D01*
X48775Y937965D01*
X44376Y936143D01*
X39747Y935032D01*
X35000Y934658D01*
X30254Y935032D01*
X25624Y936143D01*
X21225Y937965D01*
X17165Y940453D01*
X13545Y943545D01*
X10453Y947165D01*
X7965Y951225D01*
X6143Y955624D01*
X5031Y960254D01*
X5000Y960654D01*
Y969346D01*
X5031Y969746D01*
X6143Y974376D01*
X7965Y978775D01*
X10453Y982835D01*
X13545Y986455D01*
X17165Y989547D01*
X21225Y992035D01*
X25624Y993857D01*
X30254Y994968D01*
X30654Y995000D01*
X39346D01*
X39747Y994968D01*
D02*
G37*
G36*
X974604Y994559D02*
X979110Y992692D01*
X983268Y990144D01*
X986977Y986977D01*
X990144Y983268D01*
X992692Y979110D01*
X994559Y974604D01*
X995000Y972767D01*
Y957233D01*
X994559Y955396D01*
X992692Y950890D01*
X990144Y946732D01*
X986977Y943023D01*
X983268Y939856D01*
X979110Y937308D01*
X974604Y935441D01*
X969862Y934303D01*
X965000Y933920D01*
X960138Y934303D01*
X955396Y935441D01*
X950890Y937308D01*
X946732Y939856D01*
X943023Y943023D01*
X939856Y946732D01*
X937308Y950890D01*
X935441Y955396D01*
X934303Y960138D01*
X933920Y965000D01*
X934303Y969862D01*
X935441Y974604D01*
X937308Y979110D01*
X939856Y983268D01*
X943023Y986977D01*
X946732Y990144D01*
X950890Y992692D01*
X955396Y994559D01*
X957233Y995000D01*
X972767D01*
X974604Y994559D01*
D02*
G37*
G36*
X969897Y65918D02*
X974673Y64771D01*
X979211Y62892D01*
X983400Y60325D01*
X987135Y57135D01*
X990325Y53400D01*
X992891Y49211D01*
X994771Y44673D01*
X995000Y43720D01*
Y26280D01*
X994771Y25327D01*
X992891Y20789D01*
X990325Y16600D01*
X987135Y12865D01*
X983400Y9675D01*
X979211Y7109D01*
X974673Y5229D01*
X973720Y5000D01*
X956280D01*
X955327Y5229D01*
X950789Y7109D01*
X946600Y9675D01*
X942865Y12865D01*
X939675Y16600D01*
X937109Y20789D01*
X935229Y25327D01*
X934082Y30103D01*
X933697Y35000D01*
X934082Y39897D01*
X935229Y44673D01*
X937109Y49211D01*
X939675Y53400D01*
X942865Y57135D01*
X946600Y60325D01*
X950789Y62892D01*
X955327Y64771D01*
X960103Y65918D01*
X965000Y66303D01*
X969897Y65918D01*
D02*
G37*
G36*
X39897D02*
X44673Y64771D01*
X49211Y62892D01*
X53400Y60325D01*
X57135Y57135D01*
X60325Y53400D01*
X62892Y49211D01*
X64771Y44673D01*
X65918Y39897D01*
X66303Y35000D01*
X65918Y30103D01*
X64771Y25327D01*
X62892Y20789D01*
X60325Y16600D01*
X57135Y12865D01*
X53400Y9675D01*
X49211Y7109D01*
X44673Y5229D01*
X43720Y5000D01*
X26280D01*
X25327Y5229D01*
X20789Y7109D01*
X16600Y9675D01*
X12865Y12865D01*
X9675Y16600D01*
X7109Y20789D01*
X5229Y25327D01*
X5000Y26280D01*
Y43720D01*
X5229Y44673D01*
X7109Y49211D01*
X9675Y53400D01*
X12865Y57135D01*
X16600Y60325D01*
X20789Y62892D01*
X25327Y64771D01*
X30103Y65918D01*
X35000Y66303D01*
X39897Y65918D01*
D02*
G37*
%LPC*%
G36*
X253240Y963640D02*
X246470D01*
Y956870D01*
X253240D01*
Y963640D01*
D02*
G37*
G36*
X243930D02*
X237160D01*
Y956870D01*
X243930D01*
Y963640D01*
D02*
G37*
G36*
X253240Y954330D02*
X246470D01*
Y947560D01*
X253240D01*
Y954330D01*
D02*
G37*
G36*
X243930D02*
X237160D01*
Y947560D01*
X243930D01*
Y954330D01*
D02*
G37*
G36*
X185621Y965590D02*
X182780D01*
X180035Y964855D01*
X177575Y963434D01*
X175566Y961425D01*
X174145Y958965D01*
X173410Y956220D01*
Y953379D01*
X174145Y950635D01*
X175566Y948175D01*
X177575Y946166D01*
X180035Y944745D01*
X182780Y944010D01*
X184958D01*
X185484Y942740D01*
X168649Y925905D01*
X168212Y925251D01*
X167726Y925127D01*
X166711Y925148D01*
X164925Y926934D01*
X163438Y927792D01*
Y945018D01*
X165425Y946166D01*
X167434Y948175D01*
X168855Y950635D01*
X169590Y953379D01*
Y956220D01*
X168855Y958965D01*
X167434Y961425D01*
X165425Y963434D01*
X162965Y964855D01*
X160221Y965590D01*
X157380D01*
X154635Y964855D01*
X152175Y963434D01*
X150166Y961425D01*
X148745Y958965D01*
X148010Y956220D01*
Y953379D01*
X148745Y950635D01*
X150166Y948175D01*
X152175Y946166D01*
X153161Y945596D01*
Y927792D01*
X151675Y926934D01*
X149666Y924925D01*
X148807Y923439D01*
X132299D01*
X130333Y923048D01*
X128666Y921934D01*
X77846Y871114D01*
X76732Y869447D01*
X76341Y867481D01*
Y843320D01*
X76732Y841354D01*
X77846Y839687D01*
X84760Y832773D01*
Y831227D01*
X69766Y816233D01*
X68652Y814566D01*
X68261Y812599D01*
Y702100D01*
X68339Y701706D01*
X68323Y701305D01*
X68533Y700732D01*
X68652Y700134D01*
X68875Y699800D01*
X69014Y699423D01*
X69427Y698974D01*
X69766Y698467D01*
X70100Y698244D01*
X70372Y697948D01*
X70926Y697692D01*
X71433Y697353D01*
X71827Y697274D01*
X72191Y697106D01*
X78260Y695637D01*
Y691060D01*
X93340D01*
Y693761D01*
X100760D01*
Y690860D01*
X115840D01*
Y693761D01*
X121358D01*
X123324Y694152D01*
X124992Y695266D01*
X125486Y695761D01*
X127974D01*
X128566Y694735D01*
X130435Y692866D01*
X132725Y691544D01*
X135278Y690860D01*
X137922D01*
X139066Y691167D01*
X152861Y677371D01*
Y344220D01*
X153252Y342253D01*
X154366Y340586D01*
X169142Y325810D01*
X169886Y325066D01*
X171553Y323952D01*
X173520Y323561D01*
X285159D01*
X287334Y268256D01*
X286454Y267340D01*
X278660D01*
Y242260D01*
X300740D01*
Y267340D01*
X297655D01*
X295292Y327455D01*
X295081Y328334D01*
X294904Y329220D01*
X294848Y329305D01*
X294823Y329405D01*
X294293Y330135D01*
X293790Y330887D01*
X292344Y332334D01*
X290676Y333448D01*
X288710Y333839D01*
X175648D01*
X163139Y346348D01*
Y382744D01*
X164409Y383477D01*
X165679Y382744D01*
X167940Y382138D01*
X170280D01*
X172541Y382744D01*
X174569Y383914D01*
X176224Y385569D01*
X177394Y387597D01*
X178000Y389858D01*
Y392198D01*
X177394Y394459D01*
X176224Y396487D01*
X174569Y398142D01*
X172995Y399050D01*
Y769990D01*
X172699Y771477D01*
X171857Y772737D01*
X145959Y798635D01*
X146640Y801178D01*
Y803822D01*
X145956Y806375D01*
X144634Y808665D01*
X142765Y810534D01*
X140475Y811856D01*
X137922Y812540D01*
X135278D01*
X132725Y811856D01*
X130435Y810534D01*
X128566Y808665D01*
X127244Y806375D01*
X126560Y803822D01*
Y801178D01*
X127244Y798625D01*
X128566Y796335D01*
X130435Y794466D01*
X132725Y793144D01*
X135278Y792460D01*
X137922D01*
X140465Y793141D01*
X165225Y768381D01*
Y399442D01*
X164223Y398863D01*
X163139Y399489D01*
Y679500D01*
X162748Y681466D01*
X161634Y683133D01*
X146333Y698434D01*
X146640Y699578D01*
Y702222D01*
X145956Y704775D01*
X144634Y707065D01*
X142765Y708934D01*
X140475Y710256D01*
X137922Y710940D01*
X135278D01*
X132725Y710256D01*
X130435Y708934D01*
X128566Y707065D01*
X127974Y706039D01*
X123358D01*
X121391Y705647D01*
X119724Y704533D01*
X119229Y704039D01*
X115840D01*
Y706590D01*
X115840Y706940D01*
Y707860D01*
X115840Y708210D01*
Y714630D01*
X100760D01*
Y708210D01*
X100760Y707860D01*
Y706940D01*
X100760Y706590D01*
Y704039D01*
X93340D01*
Y707140D01*
X93340D01*
Y708060D01*
X93340D01*
Y714830D01*
X85800D01*
Y716100D01*
X84530D01*
Y724140D01*
X78538D01*
Y810471D01*
X92028Y823960D01*
X100840D01*
Y840040D01*
X92028D01*
X90281Y841787D01*
X90767Y842960D01*
X100840D01*
Y847115D01*
X126560D01*
Y843260D01*
X146640D01*
Y863340D01*
X126560D01*
Y854885D01*
X100840D01*
Y859040D01*
X86619D01*
Y865352D01*
X134428Y913161D01*
X148807D01*
X149666Y911675D01*
X151675Y909666D01*
X154135Y908245D01*
X156879Y907510D01*
X159720D01*
X162465Y908245D01*
X164925Y909666D01*
X166241Y910982D01*
X167511Y910456D01*
Y843904D01*
X167807Y842417D01*
X168649Y841157D01*
X203442Y806365D01*
X202760Y803822D01*
Y801178D01*
X203444Y798625D01*
X204766Y796335D01*
X206635Y794466D01*
X208925Y793144D01*
X211478Y792460D01*
X211759D01*
X212245Y791287D01*
X210053Y789095D01*
X209211Y787835D01*
X208937Y786459D01*
X208925Y786456D01*
X206635Y785134D01*
X204766Y783265D01*
X203444Y780975D01*
X202760Y778422D01*
Y775778D01*
X203444Y773225D01*
X204766Y770935D01*
X206635Y769066D01*
X208925Y767744D01*
X211478Y767060D01*
X214122D01*
X216675Y767744D01*
X218965Y769066D01*
X220834Y770935D01*
X222156Y773225D01*
X222840Y775778D01*
Y778422D01*
X222156Y780975D01*
X220834Y783265D01*
X218965Y785134D01*
X218673Y785302D01*
X218507Y786562D01*
X247787Y815841D01*
X248391Y815591D01*
X248987Y815245D01*
X249610Y812918D01*
X250866Y810742D01*
X252642Y808966D01*
X254616Y807827D01*
Y802173D01*
X251353Y798911D01*
X250511Y797651D01*
X250215Y796164D01*
Y787040D01*
X246060D01*
Y770960D01*
X262140D01*
Y787040D01*
X257985D01*
Y794555D01*
X261247Y797818D01*
X262089Y799078D01*
X262385Y800564D01*
Y807827D01*
X264358Y808966D01*
X266134Y810742D01*
X267390Y812918D01*
X268040Y815344D01*
Y817856D01*
X267390Y820282D01*
X266134Y822458D01*
X265902Y822690D01*
X266388Y823863D01*
X276900D01*
X278387Y824159D01*
X279647Y825001D01*
X282479Y827833D01*
X319345D01*
X319512Y826563D01*
X318118Y826190D01*
X315942Y824934D01*
X314166Y823158D01*
X312910Y820982D01*
X312260Y818556D01*
Y816044D01*
X312850Y813843D01*
X305853Y806846D01*
X305011Y805586D01*
X304715Y804100D01*
Y788240D01*
X300560D01*
Y772160D01*
X316640D01*
Y788240D01*
X312484D01*
Y802490D01*
X318344Y808350D01*
X320544Y807760D01*
X323056D01*
X325482Y808410D01*
X327658Y809666D01*
X329434Y811442D01*
X330690Y813618D01*
X331340Y816044D01*
Y818556D01*
X330690Y820982D01*
X329434Y823158D01*
X327658Y824934D01*
X325482Y826190D01*
X324088Y826563D01*
X324255Y827833D01*
X329384D01*
X330871Y828129D01*
X332131Y828971D01*
X335433Y832273D01*
X336275Y833533D01*
X336571Y835020D01*
Y871088D01*
X336275Y872575D01*
X335433Y873835D01*
X311303Y897965D01*
X310043Y898807D01*
X308556Y899103D01*
X254291D01*
X241407Y911987D01*
X241893Y913160D01*
X244430D01*
Y919930D01*
X237660D01*
Y917393D01*
X236487Y916907D01*
X234740Y918654D01*
Y929240D01*
X218660D01*
Y922185D01*
X193829D01*
X193755Y922465D01*
X192334Y924925D01*
X190325Y926934D01*
X187864Y928355D01*
X185120Y929090D01*
X184481D01*
X183995Y930263D01*
X204702Y950970D01*
X217247Y951404D01*
X218160Y950521D01*
Y947560D01*
X234240D01*
Y963640D01*
X218160D01*
Y959484D01*
X203838D01*
X202351Y959189D01*
X201596Y958684D01*
X194330D01*
X194255Y958965D01*
X192834Y961425D01*
X190825Y963434D01*
X188365Y964855D01*
X185621Y965590D01*
D02*
G37*
G36*
X253740Y929240D02*
X246970D01*
Y922470D01*
X253740D01*
Y929240D01*
D02*
G37*
G36*
X244430D02*
X237660D01*
Y922470D01*
X244430D01*
Y929240D01*
D02*
G37*
G36*
X253740Y919930D02*
X246970D01*
Y913160D01*
X253740D01*
Y919930D01*
D02*
G37*
G36*
X137922Y837940D02*
X135278D01*
X132725Y837256D01*
X130435Y835934D01*
X128566Y834065D01*
X127244Y831775D01*
X126560Y829222D01*
Y826578D01*
X127244Y824025D01*
X128566Y821735D01*
X130435Y819866D01*
X132725Y818544D01*
X135278Y817860D01*
X137922D01*
X140475Y818544D01*
X142765Y819866D01*
X144634Y821735D01*
X145956Y824025D01*
X146640Y826578D01*
Y829222D01*
X145956Y831775D01*
X144634Y834065D01*
X142765Y835934D01*
X140475Y837256D01*
X137922Y837940D01*
D02*
G37*
G36*
X793630Y817530D02*
X784360D01*
Y817412D01*
X785078Y814732D01*
X786466Y812328D01*
X788428Y810366D01*
X790832Y808978D01*
X793512Y808260D01*
X793630D01*
Y817530D01*
D02*
G37*
G36*
X137922Y787140D02*
X135278D01*
X132725Y786456D01*
X130435Y785134D01*
X128566Y783265D01*
X127244Y780975D01*
X126560Y778422D01*
Y775778D01*
X127244Y773225D01*
X128566Y770935D01*
X130435Y769066D01*
X132725Y767744D01*
X135278Y767060D01*
X137922D01*
X140475Y767744D01*
X142765Y769066D01*
X144634Y770935D01*
X145956Y773225D01*
X146640Y775778D01*
Y778422D01*
X145956Y780975D01*
X144634Y783265D01*
X142765Y785134D01*
X140475Y786456D01*
X137922Y787140D01*
D02*
G37*
G36*
X316640Y769240D02*
X309870D01*
Y762470D01*
X316640D01*
Y769240D01*
D02*
G37*
G36*
X307330D02*
X300560D01*
Y762470D01*
X307330D01*
Y769240D01*
D02*
G37*
G36*
X262140Y768040D02*
X255370D01*
Y761270D01*
X262140D01*
Y768040D01*
D02*
G37*
G36*
X252830D02*
X246060D01*
Y761270D01*
X252830D01*
Y768040D01*
D02*
G37*
G36*
X316640Y759930D02*
X309870D01*
Y753160D01*
X316640D01*
Y759930D01*
D02*
G37*
G36*
X307330D02*
X300560D01*
Y753160D01*
X307330D01*
Y759930D01*
D02*
G37*
G36*
X262140Y758730D02*
X255370D01*
Y751960D01*
X262140D01*
Y758730D01*
D02*
G37*
G36*
X252830D02*
X246060D01*
Y751960D01*
X252830D01*
Y758730D01*
D02*
G37*
G36*
X214122Y761740D02*
X211478D01*
X208925Y761056D01*
X206635Y759734D01*
X204766Y757865D01*
X203444Y755575D01*
X202760Y753022D01*
Y750378D01*
X203444Y747825D01*
X204766Y745535D01*
X206635Y743666D01*
X208925Y742344D01*
X211478Y741660D01*
X214122D01*
X216675Y742344D01*
X218965Y743666D01*
X220834Y745535D01*
X222156Y747825D01*
X222840Y750378D01*
Y753022D01*
X222156Y755575D01*
X220834Y757865D01*
X218965Y759734D01*
X216675Y761056D01*
X214122Y761740D01*
D02*
G37*
G36*
X137922D02*
X135278D01*
X132725Y761056D01*
X130435Y759734D01*
X128566Y757865D01*
X127244Y755575D01*
X126560Y753022D01*
Y750378D01*
X127244Y747825D01*
X128566Y745535D01*
X130435Y743666D01*
X132725Y742344D01*
X135278Y741660D01*
X137922D01*
X140475Y742344D01*
X142765Y743666D01*
X144634Y745535D01*
X145956Y747825D01*
X146640Y750378D01*
Y753022D01*
X145956Y755575D01*
X144634Y757865D01*
X142765Y759734D01*
X140475Y761056D01*
X137922Y761740D01*
D02*
G37*
G36*
X686762Y849811D02*
X386280D01*
X384314Y849420D01*
X382646Y848306D01*
X363850Y829510D01*
X362736Y827842D01*
X362345Y825876D01*
Y700539D01*
X323446Y661639D01*
X283340D01*
Y664190D01*
X283340Y664540D01*
Y665460D01*
X283340Y665810D01*
Y672230D01*
X275800D01*
X268260D01*
Y665810D01*
X268260Y665460D01*
Y664540D01*
X268260Y664190D01*
Y660139D01*
X256540D01*
Y663040D01*
X240460D01*
Y660139D01*
X221072D01*
X219105Y659748D01*
X217745Y658838D01*
X216675Y659456D01*
X214122Y660140D01*
X211478D01*
X208925Y659456D01*
X206635Y658134D01*
X206426Y657924D01*
X205253Y658410D01*
Y667189D01*
X206426Y667675D01*
X206635Y667466D01*
X208925Y666144D01*
X211478Y665460D01*
X214122D01*
X216675Y666144D01*
X218965Y667466D01*
X220834Y669335D01*
X222150Y671615D01*
X240460D01*
Y665960D01*
X256540D01*
Y682040D01*
X240460D01*
Y679385D01*
X222150D01*
X220834Y681665D01*
X218965Y683534D01*
X216675Y684856D01*
X214122Y685540D01*
X211478D01*
X208925Y684856D01*
X206635Y683534D01*
X206426Y683325D01*
X205253Y683811D01*
Y692589D01*
X206426Y693075D01*
X206635Y692866D01*
X208925Y691544D01*
X211478Y690860D01*
X211530D01*
Y700900D01*
Y710940D01*
X211478D01*
X208925Y710256D01*
X206635Y708934D01*
X206426Y708725D01*
X205253Y709211D01*
Y713259D01*
X208935Y716941D01*
X211478Y716260D01*
X214122D01*
X216675Y716944D01*
X218965Y718266D01*
X220834Y720135D01*
X222156Y722425D01*
X222840Y724978D01*
Y727622D01*
X222156Y730175D01*
X220834Y732465D01*
X218965Y734334D01*
X216675Y735656D01*
X214122Y736340D01*
X211478D01*
X208925Y735656D01*
X206635Y734334D01*
X204766Y732465D01*
X203444Y730175D01*
X202760Y727622D01*
Y724978D01*
X203442Y722435D01*
X198621Y717615D01*
X197779Y716354D01*
X197483Y714868D01*
Y641980D01*
X197779Y640493D01*
X198621Y639233D01*
X201923Y635931D01*
X203183Y635089D01*
X204670Y634793D01*
X207662D01*
X208003Y633523D01*
X206635Y632734D01*
X204766Y630865D01*
X203444Y628575D01*
X202760Y626022D01*
Y623378D01*
X203444Y620825D01*
X204766Y618535D01*
X206635Y616666D01*
X208925Y615344D01*
X211478Y614660D01*
X214122D01*
X216665Y615341D01*
X307973Y524033D01*
Y437510D01*
X308269Y436023D01*
X309111Y434763D01*
X378585Y365289D01*
Y104516D01*
X378881Y103029D01*
X379723Y101769D01*
X432047Y49445D01*
X433307Y48603D01*
X434794Y48307D01*
X515482D01*
X516968Y48603D01*
X518228Y49445D01*
X523274Y54491D01*
X523525Y54346D01*
X526269Y53610D01*
X529110D01*
X531855Y54346D01*
X532106Y54491D01*
X538836Y47761D01*
X538603Y46384D01*
X537375Y46055D01*
X534915Y44634D01*
X532906Y42625D01*
X531485Y40165D01*
X530750Y37420D01*
Y34580D01*
X531485Y31835D01*
X532906Y29375D01*
X534915Y27366D01*
X537375Y25945D01*
X540120Y25210D01*
X542961D01*
X545705Y25945D01*
X548165Y27366D01*
X550174Y29375D01*
X551595Y31835D01*
X552330Y34580D01*
Y37420D01*
X551595Y40165D01*
X550174Y42625D01*
X548165Y44634D01*
X547522Y45005D01*
X547863Y46275D01*
X577034D01*
X578521Y46571D01*
X579781Y47413D01*
X660045Y127677D01*
X660887Y128937D01*
X661183Y130424D01*
Y189960D01*
X682540D01*
Y219740D01*
X661183D01*
Y366460D01*
X682540D01*
Y396240D01*
X678185D01*
Y415360D01*
X682340D01*
Y431440D01*
X666260D01*
Y415360D01*
X670416D01*
Y396240D01*
X661183D01*
Y419476D01*
X660887Y420963D01*
X660045Y422223D01*
X591685Y490583D01*
Y567510D01*
X599740D01*
Y597290D01*
X575860D01*
Y595326D01*
X574590Y594800D01*
X561747Y607643D01*
X560487Y608485D01*
X559000Y608781D01*
X507436D01*
X505949Y608485D01*
X504689Y607643D01*
X496053Y599007D01*
X495211Y597747D01*
X495120Y597290D01*
X489225D01*
Y601001D01*
X523017Y634793D01*
X572914D01*
X574401Y635089D01*
X575661Y635931D01*
X679547Y739817D01*
X680389Y741077D01*
X680685Y742564D01*
Y744010D01*
X688740D01*
Y773790D01*
X680685D01*
Y820460D01*
X685790D01*
X686140Y820460D01*
X687060D01*
X687410Y820460D01*
X703140D01*
Y822861D01*
X722272D01*
X732561Y812571D01*
Y810740D01*
X729660D01*
Y810740D01*
X728740D01*
Y810740D01*
X712660D01*
Y795660D01*
X717415D01*
Y773790D01*
X709360D01*
Y749504D01*
X660647Y700791D01*
X659805Y699530D01*
X659509Y698044D01*
Y531122D01*
X657935Y530214D01*
X656280Y528559D01*
X655110Y526531D01*
X654504Y524270D01*
Y521930D01*
X655110Y519669D01*
X656280Y517641D01*
X657935Y515986D01*
X659963Y514816D01*
X662224Y514210D01*
X664564D01*
X666825Y514816D01*
X668853Y515986D01*
X670508Y517641D01*
X671678Y519669D01*
X672284Y521930D01*
Y524270D01*
X671678Y526531D01*
X670508Y528559D01*
X668853Y530214D01*
X667279Y531122D01*
Y567510D01*
X688740D01*
Y597290D01*
X667279D01*
Y696435D01*
X714854Y744010D01*
X732561D01*
Y728575D01*
X727553Y723567D01*
X701228D01*
X699261Y723176D01*
X697594Y722061D01*
X692266Y716734D01*
X691152Y715067D01*
X690761Y713100D01*
Y458440D01*
X687860D01*
Y442360D01*
X690761D01*
Y431440D01*
X685260D01*
Y415360D01*
X688161D01*
Y367472D01*
X688552Y365505D01*
X689666Y363838D01*
X695038Y358466D01*
X696705Y357352D01*
X698672Y356961D01*
X782460D01*
Y350160D01*
X812240D01*
Y353773D01*
X813510Y354815D01*
X814284Y354661D01*
X821560D01*
Y352110D01*
X821560Y351760D01*
Y350840D01*
X821560Y350490D01*
Y344070D01*
X829100D01*
X836640D01*
Y350490D01*
X836640Y350840D01*
Y351760D01*
X836640Y352110D01*
Y367840D01*
X821560D01*
Y364939D01*
X816412D01*
X815618Y365734D01*
X813951Y366847D01*
X812240Y367188D01*
Y374040D01*
X782460D01*
Y367239D01*
X771540D01*
Y396240D01*
X747660D01*
Y387039D01*
X740685D01*
Y572650D01*
X741955Y572817D01*
X742314Y571477D01*
X743306Y569758D01*
X744710Y568354D01*
X746430Y567361D01*
X746459Y567353D01*
X747025Y565887D01*
X746698Y564670D01*
X754164D01*
Y562130D01*
X746698D01*
X747138Y560489D01*
X748131Y558770D01*
X749534Y557366D01*
X749996Y557100D01*
X750432Y555434D01*
X749980Y554652D01*
X749541Y553011D01*
X757007D01*
Y550471D01*
X749541D01*
X749980Y548831D01*
X750973Y547112D01*
X752343Y545741D01*
X750973Y544371D01*
X749980Y542652D01*
X749541Y541011D01*
X757007D01*
Y538471D01*
X749541D01*
X749980Y536831D01*
X750973Y535112D01*
X752343Y533741D01*
X750973Y532371D01*
X749980Y530652D01*
X749541Y529011D01*
X757007D01*
Y526471D01*
X749541D01*
X749980Y524831D01*
X750973Y523112D01*
X752343Y521741D01*
X750973Y520371D01*
X749980Y518652D01*
X749541Y517011D01*
X757007D01*
Y514471D01*
X749541D01*
X749980Y512831D01*
X750973Y511112D01*
X751736Y510348D01*
X751664Y509796D01*
X750260Y508392D01*
X749267Y506673D01*
X748828Y505032D01*
X756293D01*
Y502492D01*
X748828D01*
X749267Y500852D01*
X748876Y499907D01*
X748529Y499814D01*
X746810Y498821D01*
X745406Y497417D01*
X744413Y495698D01*
X743974Y494058D01*
X751440D01*
Y491518D01*
X743974D01*
X744413Y489878D01*
X745406Y488158D01*
X746810Y486754D01*
X746822Y486662D01*
X745579Y485419D01*
X744586Y483699D01*
X744146Y482059D01*
X751612D01*
Y480789D01*
X752882D01*
Y473323D01*
X753491Y473487D01*
X754983Y472637D01*
X755119Y472129D01*
X756112Y470410D01*
X757515Y469006D01*
X759235Y468013D01*
X760875Y467574D01*
Y475039D01*
X763415D01*
Y467574D01*
X765055Y468013D01*
X766775Y469006D01*
X767354Y469585D01*
X769120Y469616D01*
X769513Y469222D01*
X771233Y468230D01*
X772873Y467790D01*
Y475256D01*
X774143D01*
Y476526D01*
X781609D01*
X781169Y478166D01*
X781000Y478460D01*
X781635Y479560D01*
X785374D01*
X786009Y478460D01*
X785734Y477984D01*
X785294Y476344D01*
X792760D01*
Y475074D01*
X794030D01*
Y467608D01*
X795670Y468047D01*
X797390Y469040D01*
X798793Y470444D01*
X798795Y470447D01*
X799187Y470498D01*
X800273Y470467D01*
X801747Y469616D01*
X803387Y469177D01*
Y476642D01*
X805927D01*
Y469177D01*
X807567Y469616D01*
X809287Y470609D01*
X810059Y471381D01*
X810603Y471310D01*
X812007Y469906D01*
X813726Y468913D01*
X815366Y468474D01*
Y475940D01*
X817906D01*
Y468474D01*
X819547Y468913D01*
X821266Y469906D01*
X822670Y471310D01*
X823241Y472298D01*
X824823Y472852D01*
X825120Y472680D01*
X826760Y472241D01*
Y479706D01*
X828030D01*
Y480976D01*
X835496D01*
X835056Y482617D01*
X834790Y483077D01*
X835425Y484177D01*
X841760D01*
Y481560D01*
X844511D01*
X845146Y480460D01*
X844851Y479950D01*
X844411Y478309D01*
X859343D01*
X858903Y479950D01*
X857911Y481669D01*
X857840Y481740D01*
Y496686D01*
X858684Y497531D01*
X858715Y497582D01*
X860124Y497692D01*
X860760Y496996D01*
Y481560D01*
X863915D01*
Y467677D01*
X862815Y467042D01*
X862275Y467353D01*
X860635Y467793D01*
Y460327D01*
X859365D01*
Y459057D01*
X851899D01*
X852339Y457417D01*
X853331Y455698D01*
X854719Y454310D01*
X854718Y454234D01*
X854367Y453040D01*
X852070D01*
Y445500D01*
Y437960D01*
X858840D01*
Y437960D01*
X859760D01*
Y437960D01*
X863477D01*
Y432836D01*
X862377Y432201D01*
X861917Y432467D01*
X860276Y432906D01*
Y425441D01*
X859006D01*
Y424171D01*
X851541D01*
X851980Y422530D01*
X852973Y420811D01*
X854343Y419441D01*
X852973Y418070D01*
X851980Y416351D01*
X851541Y414711D01*
X859006D01*
Y412171D01*
X851541D01*
X851877Y410916D01*
X851378Y409584D01*
X851183Y409370D01*
X849610Y408461D01*
X848206Y407058D01*
X847213Y405338D01*
X846774Y403698D01*
X854240D01*
Y401158D01*
X846774D01*
X847213Y399518D01*
X848206Y397798D01*
X849499Y396505D01*
X849629Y395805D01*
Y395692D01*
X849499Y394992D01*
X848206Y393699D01*
X847213Y391979D01*
X846774Y390339D01*
X854240D01*
Y387799D01*
X846774D01*
X847213Y386159D01*
X848206Y384439D01*
X848772Y383874D01*
X848796Y382102D01*
X848394Y381700D01*
X847402Y379981D01*
X846962Y378340D01*
X854428D01*
Y375801D01*
X846962D01*
X847402Y374160D01*
X848394Y372441D01*
X849798Y371037D01*
X850794Y370462D01*
X851348Y368883D01*
X851180Y368591D01*
X850741Y366951D01*
X858206D01*
Y364411D01*
X850741D01*
X851180Y362771D01*
X851391Y362405D01*
X850862Y360782D01*
X849972Y360268D01*
X848569Y358865D01*
X847576Y357145D01*
X847136Y355505D01*
X854602D01*
Y352965D01*
X847136D01*
X847576Y351325D01*
X848569Y349605D01*
X849821Y348353D01*
X849810Y348270D01*
X848406Y346866D01*
X847413Y345146D01*
X846974Y343506D01*
X854439D01*
Y340966D01*
X846974D01*
X847413Y339326D01*
X848406Y337606D01*
X849810Y336203D01*
X850083Y336045D01*
X850455Y334534D01*
X849791Y333384D01*
X849351Y331744D01*
X856817D01*
Y329204D01*
X849351D01*
X849791Y327564D01*
X850032Y327146D01*
X849521Y325490D01*
X848710Y325022D01*
X847306Y323618D01*
X846314Y321899D01*
X845874Y320259D01*
X853340D01*
Y318989D01*
X854610D01*
Y311523D01*
X856250Y311963D01*
X857592Y311414D01*
X857860Y310860D01*
Y309940D01*
X857860D01*
Y307455D01*
X856760Y306820D01*
X856250Y307115D01*
X854610Y307554D01*
Y300088D01*
X853340D01*
Y298818D01*
X845874D01*
X846314Y297178D01*
X847306Y295459D01*
X848710Y294055D01*
X849819Y293415D01*
X850401Y291882D01*
X850280Y291673D01*
X849841Y290033D01*
X857307D01*
Y287493D01*
X849841D01*
X850280Y285853D01*
X850883Y284810D01*
X850701Y284372D01*
X848982Y283379D01*
X847578Y281976D01*
X846586Y280256D01*
X846146Y278616D01*
X853612D01*
Y276076D01*
X846146D01*
X846586Y274436D01*
X847578Y272716D01*
X848942Y271352D01*
X847566Y269976D01*
X846573Y268256D01*
X846134Y266616D01*
X853600D01*
Y264076D01*
X846134D01*
X846573Y262436D01*
X847566Y260716D01*
X848788Y259495D01*
X849112Y258549D01*
X849173Y258084D01*
X848180Y256364D01*
X847741Y254724D01*
X855207D01*
Y252184D01*
X847741D01*
X848180Y250544D01*
X848469Y250043D01*
X847990Y248333D01*
X847310Y247941D01*
X845906Y246537D01*
X844914Y244818D01*
X844474Y243177D01*
X851940D01*
Y240637D01*
X844474D01*
X844914Y238997D01*
X845906Y237278D01*
X846730Y236453D01*
X847206Y235665D01*
X846742Y234735D01*
X845977Y233971D01*
X844985Y232251D01*
X844545Y230611D01*
X852011D01*
Y228071D01*
X844545D01*
X844985Y226430D01*
X845977Y224711D01*
X847342Y223346D01*
X845967Y221971D01*
X844974Y220251D01*
X844535Y218611D01*
X852000D01*
Y216071D01*
X844535D01*
X844974Y214431D01*
X845967Y212711D01*
X847371Y211307D01*
X848012Y210937D01*
X848483Y209211D01*
X848180Y208687D01*
X847741Y207047D01*
X855207D01*
Y204507D01*
X847741D01*
X848180Y202867D01*
X848352Y202570D01*
X847799Y200988D01*
X846810Y200417D01*
X845406Y199013D01*
X844414Y197294D01*
X843974Y195654D01*
X851440D01*
Y194384D01*
X852710D01*
Y186918D01*
X854350Y187357D01*
X854860Y187652D01*
X855960Y187017D01*
Y184860D01*
X859777D01*
Y178093D01*
X858677Y177458D01*
X858217Y177723D01*
X856577Y178163D01*
Y170697D01*
X855306D01*
Y169427D01*
X847841D01*
X848280Y167787D01*
X848365Y167640D01*
X847730Y166540D01*
X842440D01*
Y167186D01*
X841927Y169104D01*
X840934Y170823D01*
X839530Y172227D01*
X837811Y173220D01*
X836171Y173659D01*
Y166194D01*
X833631D01*
Y173659D01*
X831990Y173220D01*
X830271Y172227D01*
X828901Y170857D01*
X827530Y172227D01*
X825811Y173220D01*
X824171Y173659D01*
Y166194D01*
X821630D01*
Y173659D01*
X819990Y173220D01*
X819693Y173048D01*
X818111Y173601D01*
X817541Y174590D01*
X816137Y175994D01*
X814417Y176986D01*
X812777Y177426D01*
Y169960D01*
X810237D01*
Y177426D01*
X808597Y176986D01*
X806877Y175994D01*
X806213Y175330D01*
X804483Y175264D01*
X804143Y175604D01*
X802424Y176597D01*
X800783Y177036D01*
Y169571D01*
X799513D01*
Y168301D01*
X792048D01*
X792487Y166660D01*
X793480Y164941D01*
X794884Y163537D01*
X796603Y162544D01*
X797542Y162293D01*
X797375Y161023D01*
X785140D01*
Y164240D01*
X783668D01*
X783033Y165340D01*
X783327Y165850D01*
X783767Y167490D01*
X776301D01*
Y170030D01*
X783767D01*
X783327Y171670D01*
X782335Y173390D01*
X780931Y174794D01*
X779212Y175786D01*
X777294Y176300D01*
X776687D01*
X775713Y177570D01*
X775859Y178118D01*
X768394D01*
Y180658D01*
X775947D01*
X776848Y181877D01*
X778141Y182223D01*
X779860Y183216D01*
X781264Y184620D01*
X782257Y186339D01*
X782696Y187980D01*
X775230D01*
Y190520D01*
X782696D01*
X782257Y192160D01*
X781264Y193879D01*
X780605Y194539D01*
X780690Y195187D01*
X782094Y196591D01*
X783087Y198311D01*
X783526Y199951D01*
X776060D01*
Y202491D01*
X783526D01*
X783087Y204131D01*
X782094Y205851D01*
X780724Y207221D01*
X782094Y208591D01*
X783087Y210311D01*
X783582Y212160D01*
X812240D01*
Y236040D01*
X782460D01*
Y219281D01*
X781190Y218755D01*
X780690Y219254D01*
X778971Y220247D01*
X778722Y220314D01*
X778042Y221811D01*
X778293Y222750D01*
X770827D01*
Y224020D01*
X769557D01*
Y231486D01*
X767917Y231046D01*
X766198Y230053D01*
X765591Y229447D01*
X764494Y228913D01*
X763897Y229440D01*
X763043Y230294D01*
X761323Y231287D01*
X759683Y231726D01*
Y224260D01*
X758413D01*
Y222990D01*
X750947D01*
X751387Y221350D01*
X751681Y220840D01*
X751046Y219740D01*
X747660D01*
Y218993D01*
X746560Y218358D01*
X746050Y218652D01*
X744410Y219092D01*
Y211626D01*
X743140D01*
Y210356D01*
X735674D01*
X736114Y208716D01*
X737106Y206996D01*
X738476Y205626D01*
X737106Y204256D01*
X736114Y202536D01*
X735674Y200896D01*
X743140D01*
Y199626D01*
X744410D01*
Y192160D01*
X746050Y192600D01*
X746560Y192894D01*
X747660Y192259D01*
Y189960D01*
X755277D01*
Y184663D01*
X754177Y184028D01*
X753717Y184294D01*
X752076Y184733D01*
Y177267D01*
Y169802D01*
X753717Y170241D01*
X754177Y170507D01*
X755277Y169872D01*
Y164240D01*
X752060D01*
Y160880D01*
X750960Y160245D01*
X750450Y160539D01*
X748810Y160979D01*
Y153513D01*
X747540D01*
Y152243D01*
X740074D01*
X740513Y150603D01*
X741506Y148883D01*
X742910Y147480D01*
X744629Y146487D01*
X746547Y145973D01*
X747816D01*
X747865Y145909D01*
X763083D01*
X762644Y147550D01*
X762349Y148060D01*
X762984Y149160D01*
X766335D01*
X766970Y148060D01*
X766676Y147550D01*
X766236Y145909D01*
X773702D01*
Y144639D01*
X774972D01*
Y137174D01*
X776612Y137613D01*
X778331Y138606D01*
X779735Y140010D01*
X780325Y140087D01*
X781048Y139364D01*
X782767Y138372D01*
X784408Y137932D01*
Y145398D01*
X785678D01*
Y146668D01*
X793143D01*
X792704Y148308D01*
X791711Y150028D01*
X790632Y151107D01*
X791091Y152377D01*
X799160D01*
Y149360D01*
X813430D01*
Y147613D01*
X813475Y147448D01*
X812701Y146440D01*
X808470D01*
Y139670D01*
X815240D01*
Y142079D01*
X816510Y142475D01*
X818060Y141580D01*
X819700Y141140D01*
Y148606D01*
X822240D01*
Y141140D01*
X823880Y141580D01*
X825600Y142573D01*
X826970Y143943D01*
X828341Y142573D01*
X830060Y141580D01*
X831700Y141140D01*
Y148606D01*
X834240D01*
Y141140D01*
X835881Y141580D01*
X837600Y142573D01*
X838116Y142505D01*
X838977Y142154D01*
X840224Y140906D01*
X841944Y139914D01*
X843584Y139474D01*
Y146940D01*
X846124D01*
Y139474D01*
X847764Y139914D01*
X849483Y140906D01*
X850455Y141878D01*
X850510Y141823D01*
X852230Y140830D01*
X853870Y140391D01*
Y147857D01*
X856410D01*
Y140391D01*
X858050Y140830D01*
X859770Y141823D01*
X859935Y141988D01*
X861433Y141949D01*
X862475Y140906D01*
X864195Y139914D01*
X865835Y139474D01*
Y146940D01*
X868375D01*
Y139474D01*
X870015Y139914D01*
X871735Y140906D01*
X873139Y142310D01*
X874131Y144029D01*
X874645Y145947D01*
X875391Y146519D01*
Y154199D01*
X876661D01*
Y155469D01*
X884126D01*
X883687Y157109D01*
X882694Y158828D01*
X882029Y159493D01*
X881963Y161223D01*
X882302Y161562D01*
X883295Y163282D01*
X883735Y164922D01*
X876269D01*
Y167462D01*
X883735D01*
X883295Y169102D01*
X882302Y170822D01*
X880899Y172226D01*
X880151Y172657D01*
X879656Y174339D01*
X879920Y174797D01*
X880360Y176438D01*
X872894D01*
Y178978D01*
X880360D01*
X879920Y180618D01*
X878927Y182337D01*
X877675Y183590D01*
X877781Y184219D01*
X878126Y184860D01*
X881730D01*
Y191630D01*
X874960D01*
Y186003D01*
X873952Y185230D01*
X873887Y185248D01*
X872040D01*
Y200940D01*
X868323D01*
Y215260D01*
X871540D01*
Y226388D01*
X872640Y227023D01*
X873022Y226802D01*
X874663Y226363D01*
Y233828D01*
X875933D01*
Y235098D01*
X883398D01*
X882959Y236739D01*
X881966Y238458D01*
X881544Y238880D01*
X881547Y240655D01*
X882090Y241198D01*
X883083Y242917D01*
X883522Y244558D01*
X876057D01*
Y247098D01*
X883522D01*
X883083Y248738D01*
X882090Y250457D01*
X880686Y251861D01*
X878967Y252854D01*
X878935Y252932D01*
X879820Y254465D01*
X880259Y256105D01*
X872794D01*
Y258645D01*
X880259D01*
X879820Y260286D01*
X878827Y262005D01*
X878746Y262087D01*
X879232Y263260D01*
X883830D01*
Y270030D01*
X877060D01*
Y264889D01*
X875960Y264254D01*
X875704Y264402D01*
X874140Y264821D01*
Y279340D01*
X870423D01*
Y293860D01*
X872940D01*
Y296054D01*
X874040Y296689D01*
X874550Y296395D01*
X876191Y295955D01*
Y303421D01*
X877461D01*
Y304691D01*
X884926D01*
X884487Y306331D01*
X883494Y308050D01*
X882619Y308926D01*
X883494Y309801D01*
X884487Y311520D01*
X884926Y313160D01*
X877461D01*
Y315700D01*
X884926D01*
X884487Y317341D01*
X883494Y319060D01*
X882090Y320464D01*
X882061Y320686D01*
X883171Y321796D01*
X884164Y323516D01*
X884603Y325156D01*
X877138D01*
Y326426D01*
X875868D01*
Y333892D01*
X874227Y333452D01*
X872593Y332509D01*
X871926Y332684D01*
X871323Y332934D01*
Y339460D01*
X875040D01*
Y354155D01*
X876786D01*
X876953Y354199D01*
X877960Y353426D01*
Y348770D01*
X884730D01*
Y355540D01*
X882098D01*
X881572Y356810D01*
X881827Y357065D01*
X882820Y358784D01*
X883259Y360425D01*
X875794D01*
Y361695D01*
X874524D01*
Y369160D01*
X872883Y368721D01*
X872423Y368455D01*
X871323Y369090D01*
Y375960D01*
X873840D01*
Y387312D01*
X874940Y387947D01*
X875349Y387710D01*
X876990Y387271D01*
Y394736D01*
X878260D01*
Y396006D01*
X885725D01*
X885286Y397647D01*
X884293Y399366D01*
X883855Y399804D01*
X883855Y401599D01*
X884363Y402106D01*
X885355Y403826D01*
X885795Y405466D01*
X878329D01*
Y408006D01*
X885795D01*
X885355Y409646D01*
X884363Y411366D01*
X882959Y412770D01*
X882821Y414316D01*
X883620Y415700D01*
X884059Y417340D01*
X876594D01*
Y419880D01*
X884059D01*
X883620Y421520D01*
X882627Y423240D01*
X881257Y424610D01*
X882627Y425980D01*
X883620Y427700D01*
X884059Y429340D01*
X876594D01*
Y431880D01*
X884059D01*
X883620Y433520D01*
X883448Y433817D01*
X884001Y435399D01*
X884990Y435970D01*
X886394Y437374D01*
X887386Y439093D01*
X887826Y440733D01*
X880360D01*
Y443273D01*
X887826D01*
X887386Y444914D01*
X886394Y446633D01*
X885349Y447678D01*
X885310Y449174D01*
X885474Y449338D01*
X886466Y451058D01*
X886906Y452698D01*
X879440D01*
Y455238D01*
X886906D01*
X886466Y456878D01*
X885474Y458598D01*
X884070Y460002D01*
X883422Y460376D01*
X882959Y462098D01*
X883261Y462622D01*
X883701Y464262D01*
X876235D01*
Y466802D01*
X883701D01*
X883261Y468442D01*
X882269Y470162D01*
X881296Y471134D01*
X881343Y471489D01*
X882747Y472893D01*
X883178Y473640D01*
X883872Y473731D01*
X885592Y472739D01*
X887232Y472299D01*
Y479765D01*
X889772D01*
Y472299D01*
X891412Y472739D01*
X893132Y473731D01*
X894502Y475102D01*
X895872Y473731D01*
X897592Y472739D01*
X899232Y472299D01*
Y479765D01*
X901772D01*
Y472299D01*
X903412Y472739D01*
X905132Y473731D01*
X906502Y475102D01*
X907872Y473731D01*
X909258Y472931D01*
X909561Y471877D01*
X909545Y471436D01*
X908078Y469970D01*
X906627Y467456D01*
X905875Y464651D01*
Y464470D01*
X916900D01*
X927925D01*
Y464651D01*
X927174Y467456D01*
X925722Y469970D01*
X924737Y470955D01*
X925263Y472225D01*
X925495D01*
X927412Y472739D01*
X929132Y473731D01*
X930536Y475135D01*
X931528Y476854D01*
X931968Y478495D01*
X924502D01*
Y481035D01*
X931968D01*
X931607Y482380D01*
X932045Y483232D01*
X932432Y483650D01*
X932934D01*
X933866Y482035D01*
X935735Y480166D01*
X938025Y478844D01*
X940578Y478160D01*
X943222D01*
X945775Y478844D01*
X948065Y480166D01*
X949301Y479606D01*
X949698Y478918D01*
X951102Y477515D01*
X952822Y476522D01*
X954462Y476082D01*
Y483548D01*
Y491014D01*
X952822Y490574D01*
X952717Y490514D01*
X951544Y491000D01*
X951256Y492075D01*
X949934Y494365D01*
X949143Y495156D01*
X949308Y496415D01*
X949409Y496473D01*
X950813Y497877D01*
X951805Y499596D01*
X952245Y501237D01*
X937314D01*
X937753Y499596D01*
X938153Y498905D01*
X938113Y498490D01*
X937605Y497313D01*
X935735Y496234D01*
X934475Y494974D01*
X933798Y495365D01*
X925800D01*
Y497905D01*
X933265D01*
X932826Y499545D01*
X931833Y501264D01*
X930429Y502668D01*
X928710Y503661D01*
X926792Y504175D01*
X925263D01*
X924687Y505395D01*
X925722Y506431D01*
X927174Y508945D01*
X927925Y511749D01*
Y511930D01*
X916900D01*
X905875D01*
Y511749D01*
X906627Y508945D01*
X908078Y506431D01*
X909933Y504575D01*
X909985Y503670D01*
X909861Y503067D01*
X909170Y502668D01*
X907800Y501298D01*
X906429Y502668D01*
X904710Y503661D01*
X903070Y504100D01*
Y496635D01*
X900530D01*
Y504100D01*
X898889Y503661D01*
X897170Y502668D01*
X895800Y501298D01*
X894429Y502668D01*
X892710Y503661D01*
X891070Y504100D01*
Y496635D01*
X889800D01*
Y495365D01*
X882334D01*
X882774Y493725D01*
X883085Y493184D01*
X882450Y492084D01*
X876840D01*
Y497640D01*
X873964D01*
X873329Y498740D01*
X873623Y499250D01*
X874063Y500890D01*
X866597D01*
Y502160D01*
X865327D01*
Y509626D01*
X863687Y509186D01*
X861967Y508194D01*
X860564Y506790D01*
X860259Y506262D01*
X858989D01*
X858684Y506790D01*
X857281Y508194D01*
X855561Y509186D01*
X853921Y509626D01*
Y502160D01*
X851381D01*
Y509626D01*
X849741Y509186D01*
X848021Y508194D01*
X847068Y507240D01*
X845457Y507055D01*
X845323Y507189D01*
X843604Y508182D01*
X841963Y508621D01*
Y501155D01*
X839423D01*
Y508621D01*
X837783Y508182D01*
X836064Y507189D01*
X834660Y505785D01*
X834056Y504739D01*
X832497Y504172D01*
X832242Y504320D01*
X830602Y504759D01*
Y497294D01*
X829332D01*
Y496024D01*
X821866D01*
X822305Y494383D01*
X822571Y493923D01*
X821936Y492823D01*
X820140D01*
Y496190D01*
X820140Y496540D01*
Y497460D01*
X820140Y497810D01*
Y504230D01*
X805060D01*
Y497810D01*
X805060Y497460D01*
Y496540D01*
X805060Y496190D01*
Y492823D01*
X795040D01*
Y496380D01*
X795320D01*
X797238Y496893D01*
X798957Y497886D01*
X800361Y499290D01*
X801353Y501009D01*
X801793Y502650D01*
X786862D01*
X787301Y501009D01*
X787457Y500740D01*
X786822Y499640D01*
X775960D01*
X775960Y499640D01*
X775040D01*
Y499640D01*
X774690Y499640D01*
X770123D01*
Y501543D01*
X771223Y502178D01*
X771684Y501912D01*
X773324Y501472D01*
Y508938D01*
X774594D01*
Y510208D01*
X782059D01*
X781620Y511848D01*
X780627Y513568D01*
X779257Y514938D01*
X780627Y516308D01*
X781620Y518027D01*
X782059Y519668D01*
X774594D01*
Y522208D01*
X782059D01*
X781620Y523848D01*
X780627Y525568D01*
X779257Y526938D01*
X780627Y528308D01*
X781620Y530028D01*
X782059Y531668D01*
X774594D01*
Y534208D01*
X782059D01*
X781620Y535848D01*
X780627Y537567D01*
X779257Y538938D01*
X780627Y540308D01*
X781620Y542028D01*
X782059Y543668D01*
X774594D01*
Y546208D01*
X782059D01*
X781620Y547848D01*
X780627Y549567D01*
X779257Y550938D01*
X780627Y552308D01*
X781620Y554027D01*
X782059Y555668D01*
X774594D01*
Y558208D01*
X782147D01*
X783048Y559427D01*
X784341Y559774D01*
X786060Y560766D01*
X787464Y562170D01*
X788457Y563890D01*
X788896Y565530D01*
X781431D01*
Y568070D01*
X788896D01*
X788457Y569710D01*
X787464Y571429D01*
X787269Y571624D01*
X787421Y573269D01*
X788294Y574142D01*
X789287Y575861D01*
X789726Y577501D01*
X782261D01*
Y580041D01*
X789726D01*
X789287Y581682D01*
X788294Y583401D01*
X786924Y584771D01*
X788294Y586142D01*
X789287Y587861D01*
X789782Y589710D01*
X818440D01*
Y613590D01*
X788660D01*
Y596831D01*
X787390Y596305D01*
X786890Y596805D01*
X785171Y597797D01*
X784922Y597864D01*
X784242Y599361D01*
X784493Y600300D01*
X769562D01*
X770001Y598660D01*
X770157Y598390D01*
X769522Y597290D01*
X755651D01*
X755165Y598464D01*
X787045Y630343D01*
X787887Y631603D01*
X788183Y633090D01*
Y634638D01*
X788660Y635710D01*
X789453Y635710D01*
X802280D01*
Y647650D01*
Y659590D01*
X789453D01*
X788660Y659590D01*
X788183Y660662D01*
Y680638D01*
X788660Y681710D01*
X789453Y681710D01*
X802280D01*
Y693650D01*
Y705590D01*
X789453D01*
X788660Y705590D01*
X788183Y706662D01*
Y714922D01*
X787887Y716409D01*
X787045Y717669D01*
X769685Y735029D01*
Y744010D01*
X777740D01*
Y773790D01*
X773385D01*
Y808204D01*
X773500D01*
X775207Y808428D01*
X776798Y809087D01*
X778164Y810136D01*
X779213Y811502D01*
X779872Y813093D01*
X780096Y814800D01*
Y822800D01*
X779872Y824507D01*
X779661Y825015D01*
X780367Y826071D01*
X785580D01*
X786194Y824801D01*
X785078Y822868D01*
X784360Y820188D01*
Y820070D01*
X794900D01*
Y818800D01*
X796170D01*
Y808260D01*
X796288D01*
X798968Y808978D01*
X800495Y809860D01*
X801765Y809127D01*
Y763488D01*
X799917Y761640D01*
X798803Y759973D01*
X798411Y758006D01*
Y751590D01*
X788660D01*
Y727710D01*
X818440D01*
Y737061D01*
X838760D01*
Y734160D01*
X854840D01*
Y750240D01*
X838760D01*
Y747339D01*
X818440D01*
Y751590D01*
X808689D01*
Y755878D01*
X810538Y757726D01*
X811652Y759393D01*
X812043Y761360D01*
Y824860D01*
X811652Y826826D01*
X810538Y828494D01*
X804188Y834844D01*
X802521Y835958D01*
X800554Y836349D01*
X754210D01*
X752244Y835958D01*
X750577Y834844D01*
X737700Y821967D01*
X728034Y831634D01*
X726367Y832747D01*
X724400Y833139D01*
X703140D01*
Y835540D01*
X700238D01*
Y836334D01*
X699847Y838301D01*
X698733Y839968D01*
X690396Y848306D01*
X688728Y849420D01*
X686762Y849811D01*
D02*
G37*
G36*
X854840Y731240D02*
X848070D01*
Y724470D01*
X854840D01*
Y731240D01*
D02*
G37*
G36*
X845530D02*
X838760D01*
Y724470D01*
X845530D01*
Y731240D01*
D02*
G37*
G36*
X93340Y724140D02*
X87070D01*
Y717370D01*
X93340D01*
Y724140D01*
D02*
G37*
G36*
X115840Y723940D02*
X109570D01*
Y717170D01*
X115840D01*
Y723940D01*
D02*
G37*
G36*
X107030D02*
X100760D01*
Y717170D01*
X107030D01*
Y723940D01*
D02*
G37*
G36*
X137922Y736340D02*
X135278D01*
X132725Y735656D01*
X130435Y734334D01*
X128566Y732465D01*
X127244Y730175D01*
X126560Y727622D01*
Y724978D01*
X127244Y722425D01*
X128566Y720135D01*
X130435Y718266D01*
X132725Y716944D01*
X135278Y716260D01*
X137922D01*
X140475Y716944D01*
X142765Y718266D01*
X144634Y720135D01*
X145956Y722425D01*
X146640Y724978D01*
Y727622D01*
X145956Y730175D01*
X144634Y732465D01*
X142765Y734334D01*
X140475Y735656D01*
X137922Y736340D01*
D02*
G37*
G36*
X854840Y721930D02*
X848070D01*
Y715160D01*
X854840D01*
Y721930D01*
D02*
G37*
G36*
X845530D02*
X838760D01*
Y715160D01*
X845530D01*
Y721930D01*
D02*
G37*
G36*
X214122Y710940D02*
X214070D01*
Y702170D01*
X222840D01*
Y702222D01*
X222156Y704775D01*
X220834Y707065D01*
X218965Y708934D01*
X216675Y710256D01*
X214122Y710940D01*
D02*
G37*
G36*
X804820Y705590D02*
Y694920D01*
X818440D01*
Y705590D01*
X804820D01*
D02*
G37*
G36*
X222840Y699630D02*
X214070D01*
Y690860D01*
X214122D01*
X216675Y691544D01*
X218965Y692866D01*
X220834Y694735D01*
X222156Y697025D01*
X222840Y699578D01*
Y699630D01*
D02*
G37*
G36*
X818440Y692380D02*
X804820D01*
Y681710D01*
X818440D01*
Y692380D01*
D02*
G37*
G36*
X137922Y685540D02*
X137870D01*
Y676770D01*
X146640D01*
Y676822D01*
X145956Y679375D01*
X144634Y681665D01*
X142765Y683534D01*
X140475Y684856D01*
X137922Y685540D01*
D02*
G37*
G36*
X135330D02*
X135278D01*
X132725Y684856D01*
X130435Y683534D01*
X128566Y681665D01*
X127244Y679375D01*
X126560Y676822D01*
Y676770D01*
X135330D01*
Y685540D01*
D02*
G37*
G36*
X283340Y681540D02*
X277070D01*
Y674770D01*
X283340D01*
Y681540D01*
D02*
G37*
G36*
X274530D02*
X268260D01*
Y674770D01*
X274530D01*
Y681540D01*
D02*
G37*
G36*
X146640Y674230D02*
X137870D01*
Y665460D01*
X137922D01*
X140475Y666144D01*
X142765Y667466D01*
X144634Y669335D01*
X145956Y671625D01*
X146640Y674178D01*
Y674230D01*
D02*
G37*
G36*
X135330D02*
X126560D01*
Y674178D01*
X127244Y671625D01*
X128566Y669335D01*
X130435Y667466D01*
X132725Y666144D01*
X135278Y665460D01*
X135330D01*
Y674230D01*
D02*
G37*
G36*
X137922Y660140D02*
X135278D01*
X132725Y659456D01*
X130435Y658134D01*
X128566Y656265D01*
X127250Y653985D01*
X85040D01*
Y660040D01*
X67960D01*
Y655385D01*
X48140D01*
Y658240D01*
X33060D01*
Y642510D01*
X33060Y642160D01*
Y641240D01*
X33060Y640890D01*
Y625160D01*
X37015D01*
Y614140D01*
X33360D01*
Y598410D01*
X33360Y598060D01*
Y597140D01*
X33360Y596790D01*
Y581060D01*
X48440D01*
Y585216D01*
X62900D01*
X64387Y585511D01*
X65647Y586353D01*
X73860Y594566D01*
X75376Y594160D01*
X77624D01*
X79796Y594742D01*
X81744Y595866D01*
X83334Y597456D01*
X84118Y598815D01*
X114600D01*
X116087Y599111D01*
X117347Y599953D01*
X132735Y615341D01*
X135278Y614660D01*
X137922D01*
X140475Y615344D01*
X142765Y616666D01*
X144634Y618535D01*
X145956Y620825D01*
X146640Y623378D01*
Y626022D01*
X145956Y628575D01*
X144634Y630865D01*
X142765Y632734D01*
X140475Y634056D01*
X137922Y634740D01*
X135278D01*
X132725Y634056D01*
X130435Y632734D01*
X128566Y630865D01*
X127244Y628575D01*
X126560Y626022D01*
Y623378D01*
X127241Y620835D01*
X112991Y606585D01*
X84118D01*
X83334Y607944D01*
X81744Y609534D01*
X79796Y610658D01*
X77624Y611240D01*
X75376D01*
X73204Y610658D01*
X71256Y609534D01*
X69666Y607944D01*
X68542Y605996D01*
X67960Y603824D01*
Y601576D01*
X68366Y600060D01*
X61291Y592985D01*
X48440D01*
Y596790D01*
X48440Y597140D01*
Y598060D01*
X48440Y598410D01*
Y614140D01*
X44785D01*
Y625160D01*
X48140D01*
Y640890D01*
X48140Y641240D01*
Y642160D01*
X48140Y642510D01*
Y647615D01*
X67960D01*
Y642960D01*
X85040D01*
Y646215D01*
X127250D01*
X128566Y643935D01*
X130435Y642066D01*
X132725Y640744D01*
X135278Y640060D01*
X137922D01*
X140475Y640744D01*
X142765Y642066D01*
X144634Y643935D01*
X145956Y646225D01*
X146640Y648778D01*
Y651422D01*
X145956Y653975D01*
X144634Y656265D01*
X142765Y658134D01*
X140475Y659456D01*
X137922Y660140D01*
D02*
G37*
G36*
X804820Y659590D02*
Y648920D01*
X818440D01*
Y659590D01*
X804820D01*
D02*
G37*
G36*
X818440Y646380D02*
X804820D01*
Y635710D01*
X818440D01*
Y646380D01*
D02*
G37*
G36*
X778298Y609036D02*
Y602840D01*
X784493D01*
X784054Y604480D01*
X783061Y606200D01*
X781657Y607603D01*
X779938Y608596D01*
X778298Y609036D01*
D02*
G37*
G36*
X775758D02*
X774117Y608596D01*
X772398Y607603D01*
X770994Y606200D01*
X770001Y604480D01*
X769562Y602840D01*
X775758D01*
Y609036D01*
D02*
G37*
G36*
X214122Y609340D02*
X211478D01*
X208925Y608656D01*
X206635Y607334D01*
X204766Y605465D01*
X203444Y603175D01*
X202760Y600622D01*
Y597978D01*
X203444Y595425D01*
X204766Y593135D01*
X206635Y591266D01*
X208925Y589944D01*
X211478Y589260D01*
X214122D01*
X216675Y589944D01*
X218965Y591266D01*
X220834Y593135D01*
X222156Y595425D01*
X222840Y597978D01*
Y600622D01*
X222156Y603175D01*
X220834Y605465D01*
X218965Y607334D01*
X216675Y608656D01*
X214122Y609340D01*
D02*
G37*
G36*
X137922D02*
X135278D01*
X132725Y608656D01*
X130435Y607334D01*
X128566Y605465D01*
X127244Y603175D01*
X126560Y600622D01*
Y597978D01*
X127241Y595435D01*
X108453Y576647D01*
X107611Y575387D01*
X107315Y573900D01*
Y525309D01*
X82846Y500840D01*
X72260D01*
Y484760D01*
X88340D01*
Y495346D01*
X113065Y520072D01*
X114335Y519546D01*
Y500129D01*
X83346Y469140D01*
X72760D01*
Y453060D01*
X88840D01*
Y463646D01*
X118242Y493049D01*
X119415Y492563D01*
Y473509D01*
X83246Y437340D01*
X72660D01*
Y421260D01*
X88740D01*
Y431847D01*
X126047Y469153D01*
X126889Y470414D01*
X127185Y471900D01*
Y516788D01*
X128455Y517128D01*
X128566Y516935D01*
X130435Y515066D01*
X132725Y513744D01*
X135278Y513060D01*
X137922D01*
X140475Y513744D01*
X142765Y515066D01*
X144634Y516935D01*
X145956Y519225D01*
X146640Y521778D01*
Y524422D01*
X145956Y526975D01*
X144634Y529265D01*
X142765Y531134D01*
X140475Y532456D01*
X137922Y533140D01*
X135278D01*
X132725Y532456D01*
X130435Y531134D01*
X128566Y529265D01*
X128455Y529072D01*
X127185Y529412D01*
Y533591D01*
X132735Y539141D01*
X135278Y538460D01*
X137922D01*
X140475Y539144D01*
X142765Y540466D01*
X144634Y542335D01*
X145956Y544625D01*
X146640Y547178D01*
Y549822D01*
X145956Y552375D01*
X144634Y554665D01*
X142765Y556534D01*
X140475Y557856D01*
X137922Y558540D01*
X135278D01*
X132725Y557856D01*
X130435Y556534D01*
X128566Y554665D01*
X127244Y552375D01*
X126560Y549822D01*
Y547178D01*
X127241Y544635D01*
X123278Y540672D01*
X122105Y541158D01*
Y553911D01*
X132735Y564541D01*
X135278Y563860D01*
X137922D01*
X140475Y564544D01*
X142765Y565866D01*
X144634Y567735D01*
X145956Y570025D01*
X146640Y572578D01*
Y575222D01*
X145956Y577775D01*
X144634Y580065D01*
X142765Y581934D01*
X140475Y583256D01*
X137922Y583940D01*
X135278D01*
X132725Y583256D01*
X130435Y581934D01*
X128566Y580065D01*
X127244Y577775D01*
X126560Y575222D01*
Y572578D01*
X127241Y570035D01*
X116355Y559148D01*
X115085Y559674D01*
Y572291D01*
X132735Y589941D01*
X135278Y589260D01*
X137922D01*
X140475Y589944D01*
X142765Y591266D01*
X144634Y593135D01*
X145956Y595425D01*
X146640Y597978D01*
Y600622D01*
X145956Y603175D01*
X144634Y605465D01*
X142765Y607334D01*
X140475Y608656D01*
X137922Y609340D01*
D02*
G37*
G36*
X644240Y597290D02*
X620360D01*
Y567510D01*
X644240D01*
Y597290D01*
D02*
G37*
G36*
X214122Y583940D02*
X211478D01*
X208925Y583256D01*
X206635Y581934D01*
X204766Y580065D01*
X203444Y577775D01*
X202760Y575222D01*
Y572578D01*
X203444Y570025D01*
X204766Y567735D01*
X206635Y565866D01*
X208925Y564544D01*
X211478Y563860D01*
X214122D01*
X216675Y564544D01*
X218965Y565866D01*
X220834Y567735D01*
X222156Y570025D01*
X222840Y572578D01*
Y575222D01*
X222156Y577775D01*
X220834Y580065D01*
X218965Y581934D01*
X216675Y583256D01*
X214122Y583940D01*
D02*
G37*
G36*
Y558540D02*
X211478D01*
X208925Y557856D01*
X206635Y556534D01*
X204766Y554665D01*
X203444Y552375D01*
X202760Y549822D01*
Y547178D01*
X203444Y544625D01*
X204766Y542335D01*
X206635Y540466D01*
X208925Y539144D01*
X211478Y538460D01*
X214122D01*
X216675Y539144D01*
X218965Y540466D01*
X220834Y542335D01*
X222156Y544625D01*
X222840Y547178D01*
Y549822D01*
X222156Y552375D01*
X220834Y554665D01*
X218965Y556534D01*
X216675Y557856D01*
X214122Y558540D01*
D02*
G37*
G36*
X94810Y546530D02*
X92470D01*
X90209Y545924D01*
X88181Y544754D01*
X86526Y543098D01*
X85356Y541071D01*
X84750Y538810D01*
Y536469D01*
X85220Y534714D01*
X83246Y532740D01*
X72660D01*
Y516660D01*
X88740D01*
Y527246D01*
X90714Y529220D01*
X92470Y528750D01*
X94810D01*
X97071Y529356D01*
X99099Y530526D01*
X100754Y532181D01*
X101924Y534208D01*
X102530Y536469D01*
Y538810D01*
X101924Y541071D01*
X100754Y543098D01*
X99099Y544754D01*
X97071Y545924D01*
X94810Y546530D01*
D02*
G37*
G36*
X968352Y524225D02*
X968170D01*
Y514470D01*
X977925D01*
Y514651D01*
X977174Y517455D01*
X975722Y519969D01*
X973670Y522022D01*
X971156Y523474D01*
X968352Y524225D01*
D02*
G37*
G36*
X918352D02*
X918170D01*
Y514470D01*
X927925D01*
Y514651D01*
X927174Y517455D01*
X925722Y519969D01*
X923670Y522022D01*
X921156Y523474D01*
X918352Y524225D01*
D02*
G37*
G36*
X965630D02*
X965449D01*
X962645Y523474D01*
X960131Y522022D01*
X958078Y519969D01*
X956627Y517455D01*
X955875Y514651D01*
Y514470D01*
X965630D01*
Y524225D01*
D02*
G37*
G36*
X915630D02*
X915449D01*
X912645Y523474D01*
X910131Y522022D01*
X908078Y519969D01*
X906627Y517455D01*
X905875Y514651D01*
Y514470D01*
X915630D01*
Y524225D01*
D02*
G37*
G36*
X214122Y533140D02*
X211478D01*
X208925Y532456D01*
X206635Y531134D01*
X204766Y529265D01*
X203444Y526975D01*
X202760Y524422D01*
Y521778D01*
X203444Y519225D01*
X204766Y516935D01*
X206635Y515066D01*
X208925Y513744D01*
X211478Y513060D01*
X214122D01*
X216675Y513744D01*
X218965Y515066D01*
X220834Y516935D01*
X222156Y519225D01*
X222840Y521778D01*
Y524422D01*
X222156Y526975D01*
X220834Y529265D01*
X218965Y531134D01*
X216675Y532456D01*
X214122Y533140D01*
D02*
G37*
G36*
X820140Y513540D02*
X813870D01*
Y506770D01*
X820140D01*
Y513540D01*
D02*
G37*
G36*
X811330D02*
X805060D01*
Y506770D01*
X811330D01*
Y513540D01*
D02*
G37*
G36*
X795597Y511385D02*
Y505190D01*
X801793D01*
X801353Y506830D01*
X800361Y508549D01*
X798957Y509953D01*
X797238Y510946D01*
X795597Y511385D01*
D02*
G37*
G36*
X793057D02*
X791417Y510946D01*
X789698Y509953D01*
X788294Y508549D01*
X787301Y506830D01*
X786862Y505190D01*
X793057D01*
Y511385D01*
D02*
G37*
G36*
X946049Y509972D02*
Y503777D01*
X952245D01*
X951805Y505417D01*
X950813Y507136D01*
X949409Y508540D01*
X947690Y509533D01*
X946049Y509972D01*
D02*
G37*
G36*
X943509D02*
X941869Y509533D01*
X940150Y508540D01*
X938746Y507136D01*
X937753Y505417D01*
X937314Y503777D01*
X943509D01*
Y509972D01*
D02*
G37*
G36*
X867867Y509626D02*
Y503430D01*
X874063D01*
X873623Y505070D01*
X872631Y506790D01*
X871227Y508194D01*
X869508Y509186D01*
X867867Y509626D01*
D02*
G37*
G36*
X977925Y511930D02*
X968170D01*
Y502175D01*
X968352D01*
X971156Y502926D01*
X973670Y504378D01*
X975722Y506431D01*
X977174Y508945D01*
X977925Y511749D01*
Y511930D01*
D02*
G37*
G36*
X965630D02*
X955875D01*
Y511749D01*
X956627Y508945D01*
X958078Y506431D01*
X960131Y504378D01*
X962645Y502926D01*
X965449Y502175D01*
X965630D01*
Y511930D01*
D02*
G37*
G36*
X782059Y507668D02*
X775864D01*
Y501472D01*
X777504Y501912D01*
X779223Y502904D01*
X780627Y504308D01*
X781620Y506027D01*
X782059Y507668D01*
D02*
G37*
G36*
X828062Y504759D02*
X826421Y504320D01*
X824702Y503327D01*
X823298Y501923D01*
X822305Y500204D01*
X821866Y498564D01*
X828062D01*
Y504759D01*
D02*
G37*
G36*
X888530Y504100D02*
X886889Y503661D01*
X885170Y502668D01*
X883766Y501264D01*
X882774Y499545D01*
X882334Y497905D01*
X888530D01*
Y504100D01*
D02*
G37*
G36*
X957002Y491014D02*
Y484818D01*
X963198D01*
X962758Y486458D01*
X961766Y488178D01*
X960362Y489582D01*
X958642Y490574D01*
X957002Y491014D01*
D02*
G37*
G36*
X963198Y482278D02*
X957002D01*
Y476082D01*
X958642Y476522D01*
X960362Y477515D01*
X961766Y478918D01*
X962758Y480638D01*
X963198Y482278D01*
D02*
G37*
G36*
X750342Y479519D02*
X744146D01*
X744586Y477879D01*
X745579Y476159D01*
X746982Y474756D01*
X748702Y473763D01*
X750342Y473323D01*
Y479519D01*
D02*
G37*
G36*
X835496Y478436D02*
X829300D01*
Y472241D01*
X830940Y472680D01*
X832660Y473673D01*
X834063Y475077D01*
X835056Y476796D01*
X835496Y478436D01*
D02*
G37*
G36*
X859343Y475769D02*
X853147D01*
Y469574D01*
X854788Y470013D01*
X856507Y471006D01*
X857911Y472410D01*
X858903Y474129D01*
X859343Y475769D01*
D02*
G37*
G36*
X850607D02*
X844411D01*
X844851Y474129D01*
X845844Y472410D01*
X847248Y471006D01*
X848967Y470013D01*
X850607Y469574D01*
Y475769D01*
D02*
G37*
G36*
X781609Y473986D02*
X775413D01*
Y467790D01*
X777053Y468230D01*
X778773Y469222D01*
X780177Y470626D01*
X781169Y472345D01*
X781609Y473986D01*
D02*
G37*
G36*
X791490Y473804D02*
X785294D01*
X785734Y472163D01*
X786727Y470444D01*
X788130Y469040D01*
X789850Y468047D01*
X791490Y467608D01*
Y473804D01*
D02*
G37*
G36*
X968352Y474225D02*
X968170D01*
Y464470D01*
X977925D01*
Y464651D01*
X977174Y467456D01*
X975722Y469970D01*
X973670Y472022D01*
X971156Y473474D01*
X968352Y474225D01*
D02*
G37*
G36*
X965630D02*
X965449D01*
X962645Y473474D01*
X960131Y472022D01*
X958078Y469970D01*
X956627Y467456D01*
X955875Y464651D01*
Y464470D01*
X965630D01*
Y474225D01*
D02*
G37*
G36*
X858095Y467793D02*
X856455Y467353D01*
X854735Y466361D01*
X853331Y464957D01*
X852339Y463237D01*
X851899Y461597D01*
X858095D01*
Y467793D01*
D02*
G37*
G36*
X977925Y461930D02*
X968170D01*
Y452175D01*
X968352D01*
X971156Y452926D01*
X973670Y454378D01*
X975722Y456431D01*
X977174Y458945D01*
X977925Y461749D01*
Y461930D01*
D02*
G37*
G36*
X965630D02*
X955875D01*
Y461749D01*
X956627Y458945D01*
X958078Y456431D01*
X960131Y454378D01*
X962645Y452926D01*
X965449Y452175D01*
X965630D01*
Y461930D01*
D02*
G37*
G36*
X927925D02*
X918170D01*
Y452175D01*
X918352D01*
X921156Y452926D01*
X923670Y454378D01*
X925722Y456431D01*
X927174Y458945D01*
X927925Y461749D01*
Y461930D01*
D02*
G37*
G36*
X915630D02*
X905875D01*
Y461749D01*
X906627Y458945D01*
X908078Y456431D01*
X910131Y454378D01*
X912645Y452926D01*
X915449Y452175D01*
X915630D01*
Y461930D01*
D02*
G37*
G36*
X849530Y453040D02*
X842760D01*
Y446770D01*
X849530D01*
Y453040D01*
D02*
G37*
G36*
Y444230D02*
X842760D01*
Y437960D01*
X849530D01*
Y444230D01*
D02*
G37*
G36*
X857736Y432906D02*
X856096Y432467D01*
X854377Y431474D01*
X852973Y430070D01*
X851980Y428351D01*
X851541Y426711D01*
X857736D01*
Y432906D01*
D02*
G37*
G36*
X885725Y393466D02*
X879530D01*
Y387271D01*
X881170Y387710D01*
X882889Y388703D01*
X884293Y390107D01*
X885286Y391826D01*
X885725Y393466D01*
D02*
G37*
G36*
X877064Y369160D02*
Y362965D01*
X883259D01*
X882820Y364605D01*
X881827Y366324D01*
X880423Y367728D01*
X878704Y368721D01*
X877064Y369160D01*
D02*
G37*
G36*
X894040Y355540D02*
X887270D01*
Y348770D01*
X894040D01*
Y355540D01*
D02*
G37*
G36*
X70440Y351340D02*
X63670D01*
Y344570D01*
X70440D01*
Y351340D01*
D02*
G37*
G36*
X61130D02*
X54360D01*
Y344570D01*
X61130D01*
Y351340D01*
D02*
G37*
G36*
X894040Y346230D02*
X887270D01*
Y339460D01*
X894040D01*
Y346230D01*
D02*
G37*
G36*
X884730D02*
X877960D01*
Y339460D01*
X884730D01*
Y346230D01*
D02*
G37*
G36*
X44040Y343030D02*
X37770D01*
Y336260D01*
X44040D01*
Y343030D01*
D02*
G37*
G36*
X35230D02*
X28960D01*
Y336260D01*
X35230D01*
Y343030D01*
D02*
G37*
G36*
X70440Y342030D02*
X63670D01*
Y335260D01*
X70440D01*
Y342030D01*
D02*
G37*
G36*
X61130D02*
X54360D01*
Y335260D01*
X61130D01*
Y342030D01*
D02*
G37*
G36*
X836640Y341530D02*
X830370D01*
Y334760D01*
X836640D01*
Y341530D01*
D02*
G37*
G36*
X827830D02*
X821560D01*
Y334760D01*
X827830D01*
Y341530D01*
D02*
G37*
G36*
X878408Y333892D02*
Y327696D01*
X884603D01*
X884164Y329337D01*
X883171Y331056D01*
X881767Y332460D01*
X880048Y333452D01*
X878408Y333892D01*
D02*
G37*
G36*
X125340Y325040D02*
X118570D01*
Y318270D01*
X125340D01*
Y325040D01*
D02*
G37*
G36*
X116030D02*
X109260D01*
Y318270D01*
X116030D01*
Y325040D01*
D02*
G37*
G36*
X812240Y328040D02*
X798620D01*
Y317370D01*
X812240D01*
Y328040D01*
D02*
G37*
G36*
X796080D02*
X782460D01*
Y317370D01*
X796080D01*
Y328040D01*
D02*
G37*
G36*
X852070Y317719D02*
X845874D01*
X846314Y316078D01*
X847306Y314359D01*
X848710Y312955D01*
X850430Y311963D01*
X852070Y311523D01*
Y317719D01*
D02*
G37*
G36*
X125340Y315730D02*
X118570D01*
Y308960D01*
X125340D01*
Y315730D01*
D02*
G37*
G36*
X116030D02*
X109260D01*
Y308960D01*
X116030D01*
Y315730D01*
D02*
G37*
G36*
X69740Y532740D02*
X53660D01*
Y516660D01*
X57815D01*
Y500840D01*
X53260D01*
Y484760D01*
X57416D01*
Y469140D01*
X53760D01*
Y453060D01*
X57915D01*
Y437340D01*
X53660D01*
Y421260D01*
X57815D01*
Y405740D01*
X53760D01*
Y390660D01*
X58515D01*
Y370340D01*
X54360D01*
Y366185D01*
X44040D01*
Y369340D01*
X28960D01*
Y353610D01*
X28960Y353260D01*
Y352340D01*
X28960Y351990D01*
Y345570D01*
X36500D01*
X44040D01*
Y351990D01*
X44040Y352340D01*
Y353260D01*
X44040Y353610D01*
Y358415D01*
X54360D01*
Y354260D01*
X70440D01*
Y370340D01*
X66285D01*
Y390660D01*
X69490D01*
X69840Y390660D01*
X70760D01*
X71110Y390660D01*
X74915D01*
Y377600D01*
X75211Y376113D01*
X76053Y374853D01*
X86360Y364546D01*
Y353960D01*
X98207D01*
X98693Y352786D01*
X96946Y351040D01*
X86360D01*
Y334960D01*
X90515D01*
Y331300D01*
X90811Y329813D01*
X91653Y328553D01*
X93896Y326310D01*
X93370Y325040D01*
X90260D01*
Y308960D01*
X106340D01*
Y325040D01*
X102184D01*
Y327400D01*
X101889Y328887D01*
X101047Y330147D01*
X98285Y332909D01*
Y334960D01*
X102440D01*
Y345546D01*
X116993Y360099D01*
X117835Y361360D01*
X118131Y362846D01*
Y387070D01*
X119705Y387978D01*
X121360Y389633D01*
X122530Y391661D01*
X123136Y393922D01*
Y396262D01*
X122530Y398523D01*
X121360Y400551D01*
X119705Y402206D01*
X117677Y403376D01*
X115416Y403982D01*
X113076D01*
X110815Y403376D01*
X108787Y402206D01*
X107132Y400551D01*
X105962Y398523D01*
X105356Y396262D01*
Y393922D01*
X105962Y391661D01*
X107132Y389633D01*
X108787Y387978D01*
X110361Y387070D01*
Y364455D01*
X103613Y357707D01*
X102440Y358193D01*
Y370040D01*
X91854D01*
X82684Y379209D01*
Y390660D01*
X86840D01*
Y405740D01*
X71110D01*
X70760Y405740D01*
X69840D01*
X69490Y405740D01*
X65585D01*
Y421260D01*
X69740D01*
Y437340D01*
X65685D01*
Y453060D01*
X69840D01*
Y469140D01*
X65185D01*
Y484760D01*
X69340D01*
Y500840D01*
X65585D01*
Y516660D01*
X69740D01*
Y532740D01*
D02*
G37*
G36*
X812240Y314830D02*
X798620D01*
Y304160D01*
X812240D01*
Y314830D01*
D02*
G37*
G36*
X796080D02*
X782460D01*
Y304160D01*
X796080D01*
Y314830D01*
D02*
G37*
G36*
X852070Y307554D02*
X850430Y307115D01*
X848710Y306122D01*
X847306Y304718D01*
X846314Y302999D01*
X845874Y301358D01*
X852070D01*
Y307554D01*
D02*
G37*
G36*
X884926Y302151D02*
X878731D01*
Y295955D01*
X880371Y296395D01*
X882090Y297387D01*
X883494Y298791D01*
X884487Y300511D01*
X884926Y302151D01*
D02*
G37*
G36*
X81528Y290640D02*
X81410D01*
Y281370D01*
X90680D01*
Y281488D01*
X89962Y284168D01*
X88574Y286572D01*
X86612Y288534D01*
X84208Y289922D01*
X81528Y290640D01*
D02*
G37*
G36*
X78870D02*
X78752D01*
X76072Y289922D01*
X73668Y288534D01*
X71706Y286572D01*
X70318Y284168D01*
X69600Y281488D01*
Y281370D01*
X78870D01*
Y290640D01*
D02*
G37*
G36*
X893140Y279340D02*
X886370D01*
Y272570D01*
X893140D01*
Y279340D01*
D02*
G37*
G36*
X883830D02*
X877060D01*
Y272570D01*
X883830D01*
Y279340D01*
D02*
G37*
G36*
X812240Y282040D02*
X798620D01*
Y271370D01*
X812240D01*
Y282040D01*
D02*
G37*
G36*
X796080D02*
X782460D01*
Y271370D01*
X796080D01*
Y282040D01*
D02*
G37*
G36*
X90680Y278830D02*
X81410D01*
Y269560D01*
X81528D01*
X84208Y270278D01*
X86612Y271666D01*
X88574Y273628D01*
X89962Y276032D01*
X90680Y278713D01*
Y278830D01*
D02*
G37*
G36*
X78870D02*
X69600D01*
Y278713D01*
X70318Y276032D01*
X71706Y273628D01*
X73668Y271666D01*
X76072Y270278D01*
X78752Y269560D01*
X78870D01*
Y278830D01*
D02*
G37*
G36*
X774100Y333190D02*
X694143D01*
X693152Y332993D01*
X692312Y332431D01*
X691750Y331591D01*
X691553Y330600D01*
Y268084D01*
X691750Y267093D01*
X692312Y266253D01*
X693152Y265692D01*
X694143Y265494D01*
X774100D01*
X775091Y265692D01*
X775931Y266253D01*
X776493Y267093D01*
X776690Y268084D01*
Y330600D01*
X776493Y331591D01*
X775931Y332431D01*
X775091Y332993D01*
X774100Y333190D01*
D02*
G37*
G36*
X893140Y270030D02*
X886370D01*
Y263260D01*
X893140D01*
Y270030D01*
D02*
G37*
G36*
X812240Y268830D02*
X798620D01*
Y258160D01*
X812240D01*
Y268830D01*
D02*
G37*
G36*
X796080D02*
X782460D01*
Y258160D01*
X796080D01*
Y268830D01*
D02*
G37*
G36*
X234440Y238840D02*
X224170D01*
Y229570D01*
X234440D01*
Y238840D01*
D02*
G37*
G36*
X221630D02*
X211360D01*
Y229570D01*
X221630D01*
Y238840D01*
D02*
G37*
G36*
X883398Y232558D02*
X877203D01*
Y226363D01*
X878843Y226802D01*
X880562Y227795D01*
X881966Y229199D01*
X882959Y230918D01*
X883398Y232558D01*
D02*
G37*
G36*
X757143Y231726D02*
X755503Y231287D01*
X753783Y230294D01*
X752379Y228890D01*
X751387Y227171D01*
X750947Y225530D01*
X757143D01*
Y231726D01*
D02*
G37*
G36*
X772097Y231486D02*
Y225290D01*
X778293D01*
X777854Y226930D01*
X776861Y228650D01*
X775457Y230053D01*
X773738Y231046D01*
X772097Y231486D01*
D02*
G37*
G36*
X234440Y227030D02*
X224170D01*
Y217760D01*
X234440D01*
Y227030D01*
D02*
G37*
G36*
X221630D02*
X211360D01*
Y217760D01*
X221630D01*
Y227030D01*
D02*
G37*
G36*
X199925Y222050D02*
X179470D01*
Y215470D01*
X203050D01*
Y218925D01*
X202812Y220121D01*
X202135Y221134D01*
X201121Y221812D01*
X199925Y222050D01*
D02*
G37*
G36*
X176930D02*
X156475D01*
X155279Y221812D01*
X154265Y221134D01*
X153588Y220121D01*
X153350Y218925D01*
Y215470D01*
X176930D01*
Y222050D01*
D02*
G37*
G36*
X741870Y219092D02*
X740229Y218652D01*
X738510Y217659D01*
X737106Y216256D01*
X736114Y214536D01*
X735674Y212896D01*
X741870D01*
Y219092D01*
D02*
G37*
G36*
X203050Y212930D02*
X179470D01*
Y206350D01*
X199925D01*
X201121Y206588D01*
X202135Y207265D01*
X202812Y208279D01*
X203050Y209475D01*
Y212930D01*
D02*
G37*
G36*
X176930D02*
X153350D01*
Y209475D01*
X153588Y208279D01*
X154265Y207265D01*
X155279Y206588D01*
X156475Y206350D01*
X176930D01*
Y212930D01*
D02*
G37*
G36*
X234440Y210840D02*
X211360D01*
Y204805D01*
X201132D01*
X201121Y204812D01*
X199925Y205050D01*
X156475D01*
X155279Y204812D01*
X154265Y204135D01*
X153588Y203121D01*
X153350Y201925D01*
Y192475D01*
X153588Y191279D01*
X154265Y190265D01*
X155279Y189588D01*
X156475Y189350D01*
X199925D01*
X201121Y189588D01*
X201132Y189595D01*
X219800D01*
X220856Y189734D01*
X221052Y189760D01*
X234440D01*
Y210840D01*
D02*
G37*
G36*
X891040Y200940D02*
X884270D01*
Y194170D01*
X891040D01*
Y200940D01*
D02*
G37*
G36*
X881730D02*
X874960D01*
Y194170D01*
X881730D01*
Y200940D01*
D02*
G37*
G36*
X741870Y198356D02*
X735674D01*
X736114Y196716D01*
X737106Y194996D01*
X738510Y193592D01*
X740229Y192600D01*
X741870Y192160D01*
Y198356D01*
D02*
G37*
G36*
X727040Y219740D02*
X703160D01*
Y189960D01*
X727040D01*
Y219740D01*
D02*
G37*
G36*
X850170Y193114D02*
X843974D01*
X844414Y191473D01*
X845406Y189754D01*
X846810Y188350D01*
X848529Y187357D01*
X850170Y186918D01*
Y193114D01*
D02*
G37*
G36*
X891040Y191630D02*
X884270D01*
Y184860D01*
X891040D01*
Y191630D01*
D02*
G37*
G36*
X199925Y188050D02*
X179470D01*
Y181470D01*
X203050D01*
Y184925D01*
X202812Y186121D01*
X202135Y187135D01*
X201121Y187812D01*
X199925Y188050D01*
D02*
G37*
G36*
X114555Y215052D02*
X73970D01*
Y181470D01*
X117803D01*
Y211805D01*
X117555Y213048D01*
X116852Y214101D01*
X115798Y214805D01*
X114555Y215052D01*
D02*
G37*
G36*
X176930Y188050D02*
X156475D01*
X155279Y187812D01*
X154265Y187135D01*
X153588Y186121D01*
X153350Y184925D01*
Y181470D01*
X176930D01*
Y188050D01*
D02*
G37*
G36*
X71430Y215052D02*
X30845D01*
X29602Y214805D01*
X28549Y214101D01*
X27845Y213048D01*
X27598Y211805D01*
Y181470D01*
X71430D01*
Y215052D01*
D02*
G37*
G36*
X749536Y184733D02*
X747896Y184294D01*
X746177Y183301D01*
X744773Y181897D01*
X743780Y180178D01*
X743341Y178537D01*
X749536D01*
Y184733D01*
D02*
G37*
G36*
X203050Y178930D02*
X179470D01*
Y172350D01*
X199925D01*
X201121Y172588D01*
X202135Y173265D01*
X202812Y174279D01*
X203050Y175475D01*
Y178930D01*
D02*
G37*
G36*
X176930D02*
X153350D01*
Y175475D01*
X153588Y174279D01*
X154265Y173265D01*
X155279Y172588D01*
X156475Y172350D01*
X176930D01*
Y178930D01*
D02*
G37*
G36*
X854036Y178163D02*
X852396Y177723D01*
X850677Y176731D01*
X849273Y175327D01*
X848280Y173608D01*
X847841Y171967D01*
X854036D01*
Y178163D01*
D02*
G37*
G36*
X798243Y177036D02*
X796603Y176597D01*
X794884Y175604D01*
X793480Y174200D01*
X792487Y172481D01*
X792048Y170841D01*
X798243D01*
Y177036D01*
D02*
G37*
G36*
X749536Y175997D02*
X743341D01*
X743780Y174357D01*
X744773Y172638D01*
X746177Y171234D01*
X747896Y170241D01*
X749536Y169802D01*
Y175997D01*
D02*
G37*
G36*
X199440Y290640D02*
X178360D01*
Y269560D01*
X199440D01*
Y276215D01*
X233291D01*
X243474Y266033D01*
Y205100D01*
X243769Y203613D01*
X244611Y202353D01*
X254912Y192053D01*
X256172Y191211D01*
X257659Y190915D01*
X278660D01*
Y189254D01*
X256491Y167085D01*
X203050D01*
Y167925D01*
X202812Y169121D01*
X202135Y170135D01*
X201121Y170812D01*
X199925Y171050D01*
X156475D01*
X155279Y170812D01*
X154265Y170135D01*
X153588Y169121D01*
X153350Y167925D01*
Y158475D01*
X153588Y157279D01*
X154265Y156265D01*
X155279Y155588D01*
X156475Y155350D01*
X199925D01*
X201121Y155588D01*
X202135Y156265D01*
X202812Y157279D01*
X203050Y158475D01*
Y159316D01*
X258100D01*
X259240Y159542D01*
X260510Y158817D01*
Y150031D01*
X259240Y149352D01*
X258587Y149789D01*
X257100Y150085D01*
X203050D01*
Y150925D01*
X202812Y152121D01*
X202135Y153135D01*
X201121Y153812D01*
X199925Y154050D01*
X156475D01*
X155279Y153812D01*
X154265Y153135D01*
X153588Y152121D01*
X153350Y150925D01*
Y150085D01*
X124908D01*
X123421Y149789D01*
X122161Y148947D01*
X77073Y103859D01*
X76231Y102598D01*
X75935Y101112D01*
Y80540D01*
X69280D01*
Y59460D01*
X90360D01*
Y80540D01*
X83705D01*
Y99503D01*
X126517Y142315D01*
X153350D01*
Y141475D01*
X153588Y140279D01*
X154265Y139265D01*
X155279Y138588D01*
X156475Y138350D01*
X199925D01*
X201121Y138588D01*
X202135Y139265D01*
X202812Y140279D01*
X203050Y141475D01*
Y142315D01*
X255491D01*
X260510Y137296D01*
Y92960D01*
X291090D01*
Y162040D01*
X264093D01*
X263607Y163213D01*
X282654Y182260D01*
X300740D01*
Y207340D01*
X278660D01*
Y198684D01*
X259268D01*
X251243Y206709D01*
Y267642D01*
X250947Y269128D01*
X250105Y270389D01*
X237647Y282847D01*
X236387Y283689D01*
X234900Y283985D01*
X199440D01*
Y290640D01*
D02*
G37*
G36*
X746270Y160979D02*
X744629Y160539D01*
X742910Y159547D01*
X741506Y158143D01*
X740513Y156424D01*
X740074Y154783D01*
X746270D01*
Y160979D01*
D02*
G37*
G36*
X884126Y152928D02*
X877931D01*
Y146733D01*
X879571Y147172D01*
X881290Y148165D01*
X882694Y149569D01*
X883687Y151288D01*
X884126Y152928D01*
D02*
G37*
G36*
X117803Y178930D02*
X73970D01*
Y145347D01*
X114555D01*
X115798Y145595D01*
X116852Y146299D01*
X117555Y147352D01*
X117803Y148595D01*
Y178930D01*
D02*
G37*
G36*
X71430D02*
X27598D01*
Y148595D01*
X27845Y147352D01*
X28549Y146299D01*
X29602Y145595D01*
X30845Y145347D01*
X71430D01*
Y178930D01*
D02*
G37*
G36*
X805930Y146440D02*
X799160D01*
Y139670D01*
X805930D01*
Y146440D01*
D02*
G37*
G36*
X793143Y144128D02*
X786948D01*
Y137932D01*
X788588Y138372D01*
X790307Y139364D01*
X791711Y140768D01*
X792704Y142487D01*
X793143Y144128D01*
D02*
G37*
G36*
X772432Y143369D02*
X766236D01*
X766676Y141729D01*
X767668Y140010D01*
X769072Y138606D01*
X770791Y137613D01*
X772432Y137174D01*
Y143369D01*
D02*
G37*
G36*
X763083D02*
X756888D01*
Y137174D01*
X758528Y137613D01*
X760247Y138606D01*
X761651Y140010D01*
X762644Y141729D01*
X763083Y143369D01*
D02*
G37*
G36*
X754348D02*
X748152D01*
X748592Y141729D01*
X749584Y140010D01*
X750988Y138606D01*
X752707Y137613D01*
X754348Y137174D01*
Y143369D01*
D02*
G37*
G36*
X815240Y137130D02*
X808470D01*
Y130360D01*
X815240D01*
Y137130D01*
D02*
G37*
G36*
X805930D02*
X799160D01*
Y130360D01*
X805930D01*
Y137130D01*
D02*
G37*
G36*
X337090Y162040D02*
X323070D01*
Y128770D01*
X337090D01*
Y162040D01*
D02*
G37*
G36*
X320530D02*
X306510D01*
Y128770D01*
X320530D01*
Y162040D01*
D02*
G37*
G36*
X337090Y126230D02*
X323070D01*
Y92960D01*
X337090D01*
Y126230D01*
D02*
G37*
G36*
X320530D02*
X306510D01*
Y92960D01*
X320530D01*
Y126230D01*
D02*
G37*
G36*
X515260Y46790D02*
X512419D01*
X509675Y46055D01*
X507215Y44634D01*
X505206Y42625D01*
X503785Y40165D01*
X503050Y37420D01*
Y34580D01*
X503785Y31835D01*
X505206Y29375D01*
X507215Y27366D01*
X509675Y25945D01*
X512419Y25210D01*
X515260D01*
X518005Y25945D01*
X520465Y27366D01*
X522474Y29375D01*
X523895Y31835D01*
X524630Y34580D01*
Y37420D01*
X523895Y40165D01*
X522474Y42625D01*
X520465Y44634D01*
X518005Y46055D01*
X515260Y46790D01*
D02*
G37*
G36*
X487561D02*
X484720D01*
X481975Y46055D01*
X479515Y44634D01*
X477506Y42625D01*
X476085Y40165D01*
X475350Y37420D01*
Y34580D01*
X476085Y31835D01*
X477506Y29375D01*
X479515Y27366D01*
X481975Y25945D01*
X484720Y25210D01*
X487561D01*
X490305Y25945D01*
X492765Y27366D01*
X494774Y29375D01*
X496195Y31835D01*
X496930Y34580D01*
Y37420D01*
X496195Y40165D01*
X494774Y42625D01*
X492765Y44634D01*
X490305Y46055D01*
X487561Y46790D01*
D02*
G37*
G36*
X627079Y76740D02*
X622901D01*
X618775Y76087D01*
X614802Y74796D01*
X611080Y72899D01*
X607701Y70444D01*
X604747Y67490D01*
X602291Y64110D01*
X600395Y60388D01*
X599104Y56415D01*
X598450Y52289D01*
Y48111D01*
X599104Y43985D01*
X600395Y40012D01*
X602291Y36290D01*
X604747Y32910D01*
X607701Y29957D01*
X611080Y27501D01*
X614802Y25605D01*
X618775Y24314D01*
X622901Y23660D01*
X627079D01*
X631205Y24314D01*
X635178Y25605D01*
X638900Y27501D01*
X642280Y29957D01*
X645234Y32910D01*
X647689Y36290D01*
X649586Y40012D01*
X650877Y43985D01*
X651530Y48111D01*
Y52289D01*
X650877Y56415D01*
X649586Y60388D01*
X647689Y64110D01*
X645234Y67490D01*
X642280Y70444D01*
X638900Y72899D01*
X635178Y74796D01*
X631205Y76087D01*
X627079Y76740D01*
D02*
G37*
G36*
X377079D02*
X372901D01*
X368775Y76087D01*
X364802Y74796D01*
X361080Y72899D01*
X357701Y70444D01*
X354747Y67490D01*
X352291Y64110D01*
X350395Y60388D01*
X349104Y56415D01*
X348450Y52289D01*
Y48111D01*
X349104Y43985D01*
X350395Y40012D01*
X352291Y36290D01*
X354747Y32910D01*
X357701Y29957D01*
X361080Y27501D01*
X364802Y25605D01*
X367663Y24675D01*
X367462Y23405D01*
X343250D01*
X325278Y41378D01*
X323703Y42586D01*
X321869Y43346D01*
X319900Y43605D01*
X317290D01*
Y54290D01*
X292610D01*
Y17710D01*
X317290D01*
Y26195D01*
X318463Y26681D01*
X334723Y10422D01*
X336298Y9214D01*
X338132Y8454D01*
X340100Y8195D01*
X438240D01*
X440208Y8454D01*
X442042Y9214D01*
X443617Y10422D01*
X458405Y25210D01*
X459860D01*
X462605Y25945D01*
X465065Y27366D01*
X467074Y29375D01*
X468495Y31835D01*
X469230Y34580D01*
Y37420D01*
X468495Y40165D01*
X467074Y42625D01*
X465065Y44634D01*
X462605Y46055D01*
X459860Y46790D01*
X457019D01*
X454275Y46055D01*
X451815Y44634D01*
X449806Y42625D01*
X448385Y40165D01*
X447650Y37420D01*
Y35965D01*
X435090Y23405D01*
X382518D01*
X382317Y24675D01*
X385178Y25605D01*
X388900Y27501D01*
X392280Y29957D01*
X395234Y32910D01*
X397689Y36290D01*
X399586Y40012D01*
X400877Y43985D01*
X401530Y48111D01*
Y52289D01*
X400877Y56415D01*
X399586Y60388D01*
X397689Y64110D01*
X395234Y67490D01*
X392280Y70444D01*
X388900Y72899D01*
X385178Y74796D01*
X381205Y76087D01*
X377079Y76740D01*
D02*
G37*
G36*
X189968Y80540D02*
X187192D01*
X184512Y79822D01*
X182108Y78434D01*
X180146Y76472D01*
X178758Y74068D01*
X178040Y71388D01*
Y68612D01*
X178758Y65932D01*
X180146Y63528D01*
X180975Y62699D01*
Y39108D01*
X181234Y37140D01*
X181994Y35305D01*
X183202Y33730D01*
X186311Y30622D01*
X187885Y29414D01*
X188645Y29099D01*
X189720Y28654D01*
X191688Y28395D01*
X243510D01*
Y17710D01*
X268190D01*
Y54290D01*
X243510D01*
Y43605D01*
X196185D01*
Y62699D01*
X197014Y63528D01*
X198402Y65932D01*
X199120Y68612D01*
Y71388D01*
X198402Y74068D01*
X197014Y76472D01*
X195052Y78434D01*
X192648Y79822D01*
X189968Y80540D01*
D02*
G37*
%LPD*%
G36*
X218660Y913160D02*
X229246D01*
X249935Y892471D01*
X251196Y891629D01*
X252682Y891333D01*
X306947D01*
X328801Y869479D01*
Y850807D01*
X328514Y850689D01*
X327531Y850407D01*
X325482Y851590D01*
X323056Y852240D01*
X320544D01*
X318344Y851650D01*
X313947Y856047D01*
X312687Y856889D01*
X311200Y857185D01*
X222150D01*
X220834Y859465D01*
X218965Y861334D01*
X216675Y862656D01*
X214122Y863340D01*
X211478D01*
X208925Y862656D01*
X206635Y861334D01*
X204766Y859465D01*
X203444Y857175D01*
X202760Y854622D01*
Y851978D01*
X203444Y849425D01*
X204766Y847135D01*
X206635Y845266D01*
X208925Y843944D01*
X211478Y843260D01*
X214122D01*
X216675Y843944D01*
X218965Y845266D01*
X220834Y847135D01*
X222150Y849415D01*
X250765D01*
X251251Y848242D01*
X250866Y847858D01*
X249610Y845682D01*
X248960Y843256D01*
Y840744D01*
X249550Y838543D01*
X242791Y831785D01*
X222150D01*
X220834Y834065D01*
X218965Y835934D01*
X216675Y837256D01*
X214122Y837940D01*
X211478D01*
X208925Y837256D01*
X206635Y835934D01*
X204766Y834065D01*
X203444Y831775D01*
X202760Y829222D01*
Y826578D01*
X203444Y824025D01*
X204766Y821735D01*
X206635Y819866D01*
X208925Y818544D01*
X211478Y817860D01*
X214122D01*
X216675Y818544D01*
X218965Y819866D01*
X220834Y821735D01*
X222150Y824015D01*
X243178D01*
X243703Y822745D01*
X224013Y803055D01*
X222840Y803541D01*
Y803822D01*
X222156Y806375D01*
X220834Y808665D01*
X218965Y810534D01*
X216675Y811856D01*
X214122Y812540D01*
X211478D01*
X208935Y811858D01*
X175281Y845513D01*
Y909800D01*
X176454Y910286D01*
X177075Y909666D01*
X179535Y908245D01*
X182279Y907510D01*
X185120D01*
X187864Y908245D01*
X190325Y909666D01*
X192334Y911675D01*
X193755Y914135D01*
X193829Y914415D01*
X218660D01*
Y913160D01*
D02*
G37*
G36*
X312850Y846156D02*
X312260Y843956D01*
Y841444D01*
X312910Y839018D01*
X314166Y836842D01*
X314232Y836776D01*
X313746Y835603D01*
X280870D01*
X279383Y835307D01*
X278123Y834465D01*
X275291Y831633D01*
X261576D01*
X261408Y832903D01*
X262183Y833110D01*
X264358Y834366D01*
X266134Y836142D01*
X267390Y838318D01*
X268040Y840744D01*
Y843256D01*
X267390Y845682D01*
X266134Y847858D01*
X265750Y848242D01*
X266236Y849415D01*
X309591D01*
X312850Y846156D01*
D02*
G37*
G36*
X687519Y836648D02*
X687060Y835540D01*
X686140D01*
X685790Y835540D01*
X670060D01*
Y820460D01*
X672915D01*
Y773790D01*
X664860D01*
Y744010D01*
X671093D01*
X671579Y742836D01*
X571305Y642563D01*
X521408D01*
X519921Y642267D01*
X518661Y641425D01*
X482593Y605357D01*
X481751Y604097D01*
X481455Y602610D01*
Y427529D01*
X476111Y422185D01*
X406652D01*
X406133Y423083D01*
X405419Y423798D01*
X404772Y424650D01*
X405419Y425502D01*
X406133Y426217D01*
X407159Y427993D01*
X407625Y429730D01*
X399900D01*
X392175D01*
X392641Y427993D01*
X393666Y426217D01*
X394381Y425502D01*
X395028Y424650D01*
X394381Y423798D01*
X393666Y423083D01*
X392641Y421307D01*
X392110Y419326D01*
Y417274D01*
X392641Y415293D01*
X393666Y413517D01*
X395117Y412066D01*
X396893Y411041D01*
X398874Y410510D01*
X400926D01*
X402907Y411041D01*
X404683Y412066D01*
X406133Y413517D01*
X406652Y414415D01*
X477720D01*
X479207Y414711D01*
X480467Y415553D01*
X480691Y415778D01*
X482322Y415612D01*
X482593Y415205D01*
X488715Y409083D01*
Y396240D01*
X480660D01*
Y366460D01*
X504540D01*
Y396240D01*
X496484D01*
Y410692D01*
X496189Y412179D01*
X495347Y413439D01*
X489225Y419561D01*
Y425920D01*
Y567510D01*
X510740D01*
Y597290D01*
X506983D01*
X506497Y598464D01*
X509045Y601011D01*
X557391D01*
X568577Y589825D01*
Y427858D01*
Y409836D01*
X567003Y408927D01*
X565348Y407272D01*
X564178Y405245D01*
X563572Y402984D01*
Y400643D01*
X564178Y398382D01*
X565348Y396355D01*
X567003Y394700D01*
X569031Y393529D01*
X569660Y393361D01*
Y366460D01*
X593540D01*
Y396240D01*
X585485D01*
Y418720D01*
X585189Y420207D01*
X584347Y421467D01*
X576347Y429467D01*
Y567510D01*
X583915D01*
Y488974D01*
X584211Y487487D01*
X585053Y486227D01*
X653413Y417867D01*
Y132033D01*
X575425Y54045D01*
X564430D01*
X563999Y55315D01*
X564269Y55522D01*
X565337Y56914D01*
X566009Y58535D01*
X566238Y60275D01*
Y68525D01*
X566009Y70265D01*
X565337Y71887D01*
X564269Y73279D01*
X562876Y74347D01*
X562565Y74476D01*
X561096Y579507D01*
X560948Y580243D01*
X560801Y580983D01*
X560798Y580987D01*
X560796Y580993D01*
X560377Y581617D01*
X559959Y582243D01*
X559954Y582246D01*
X559951Y582251D01*
X559323Y582668D01*
X558698Y583085D01*
X558693Y583086D01*
X558688Y583089D01*
X557950Y583234D01*
X557212Y583381D01*
X555240D01*
Y597290D01*
X531360D01*
Y567510D01*
X539416D01*
Y492253D01*
X507570Y460408D01*
X505814Y460878D01*
X503474D01*
X501213Y460272D01*
X499185Y459102D01*
X497530Y457447D01*
X496360Y455419D01*
X495754Y453158D01*
Y450818D01*
X496360Y448557D01*
X497530Y446529D01*
X499185Y444874D01*
X501213Y443704D01*
X503474Y443098D01*
X505814D01*
X508075Y443704D01*
X510103Y444874D01*
X511758Y446529D01*
X512928Y448557D01*
X513534Y450818D01*
Y453158D01*
X513064Y454914D01*
X546047Y487897D01*
X546889Y489158D01*
X547185Y490644D01*
Y567510D01*
X553362D01*
X554791Y76147D01*
X553894Y75248D01*
X551265D01*
X549525Y75019D01*
X547904Y74347D01*
X546512Y73279D01*
X545443Y71887D01*
X544772Y70265D01*
X544543Y68525D01*
Y60275D01*
X544772Y58535D01*
X545443Y56914D01*
X546512Y55522D01*
X546782Y55315D01*
X546350Y54045D01*
X543539D01*
X537600Y59984D01*
X537745Y60236D01*
X538480Y62980D01*
Y65821D01*
X537745Y68565D01*
X536324Y71026D01*
X534315Y73034D01*
X531855Y74455D01*
X529110Y75190D01*
X526269D01*
X523525Y74455D01*
X521065Y73034D01*
X519056Y71026D01*
X517635Y68565D01*
X516900Y65821D01*
Y62980D01*
X517635Y60236D01*
X517780Y59984D01*
X513873Y56077D01*
X508585D01*
X508099Y57250D01*
X508624Y57775D01*
X510045Y60236D01*
X510780Y62980D01*
Y65821D01*
X510045Y68565D01*
X509900Y68816D01*
X539847Y98763D01*
X540689Y100024D01*
X540985Y101510D01*
Y189960D01*
X549040D01*
Y219740D01*
X525160D01*
Y189960D01*
X533215D01*
Y103119D01*
X504406Y74310D01*
X504155Y74455D01*
X501411Y75190D01*
X498570D01*
X495825Y74455D01*
X493365Y73034D01*
X491356Y71026D01*
X489935Y68565D01*
X489200Y65821D01*
Y62980D01*
X489935Y60236D01*
X491356Y57775D01*
X491881Y57250D01*
X491395Y56077D01*
X480885D01*
X480399Y57250D01*
X480924Y57775D01*
X482345Y60236D01*
X483080Y62980D01*
Y65821D01*
X482345Y68565D01*
X480924Y71026D01*
X478915Y73034D01*
X476455Y74455D01*
X473711Y75190D01*
X470869D01*
X468125Y74455D01*
X465665Y73034D01*
X463656Y71026D01*
X462235Y68565D01*
X461500Y65821D01*
Y62980D01*
X462235Y60236D01*
X463656Y57775D01*
X464181Y57250D01*
X463695Y56077D01*
X453185D01*
X452699Y57250D01*
X453224Y57775D01*
X454645Y60236D01*
X455380Y62980D01*
Y63130D01*
X433800D01*
Y62980D01*
X434536Y60236D01*
X435212Y59064D01*
X434196Y58284D01*
X386355Y106125D01*
Y366898D01*
X386059Y368385D01*
X385217Y369645D01*
X315743Y439119D01*
Y525642D01*
X315447Y527128D01*
X314605Y528389D01*
X222159Y620835D01*
X222840Y623378D01*
Y626022D01*
X222156Y628575D01*
X220834Y630865D01*
X218965Y632734D01*
X217597Y633523D01*
X217938Y634793D01*
X325066D01*
X326553Y635089D01*
X327813Y635931D01*
X378765Y686884D01*
X513829D01*
X515315Y687179D01*
X516576Y688021D01*
X562347Y733793D01*
X563189Y735053D01*
X563485Y736540D01*
Y786100D01*
X563189Y787587D01*
X562347Y788847D01*
X549240Y801954D01*
Y812540D01*
X544485D01*
Y822760D01*
X548640D01*
Y826915D01*
X563160D01*
Y824460D01*
X579240D01*
Y824460D01*
X580160D01*
Y824460D01*
X583915D01*
Y773790D01*
X575860D01*
Y744010D01*
X599740D01*
Y773790D01*
X591685D01*
Y824460D01*
X596240D01*
Y839533D01*
X684633D01*
X687519Y836648D01*
D02*
G37*
G36*
X532560Y838840D02*
Y822760D01*
X536716D01*
Y812540D01*
X533160D01*
Y796460D01*
X543746D01*
X555715Y784491D01*
Y774863D01*
X555240Y773790D01*
X554445Y773790D01*
X531360D01*
Y744010D01*
X554445D01*
X555240Y744010D01*
X555715Y742937D01*
Y738149D01*
X512220Y694653D01*
X377156D01*
X375670Y694357D01*
X374409Y693515D01*
X323457Y642563D01*
X221121D01*
X220635Y643736D01*
X220834Y643935D01*
X222156Y646225D01*
X222840Y648778D01*
Y649501D01*
X223200Y649861D01*
X240460D01*
Y646960D01*
X256540D01*
Y649861D01*
X268260D01*
Y648460D01*
X283340D01*
Y651361D01*
X325574D01*
X327541Y651753D01*
X329208Y652867D01*
X371118Y694777D01*
X372232Y696444D01*
X372623Y698410D01*
Y823747D01*
X388409Y839533D01*
X429175D01*
X429558Y838263D01*
X427866Y836572D01*
X426479Y834168D01*
X425760Y831488D01*
Y831370D01*
X436300D01*
X446840D01*
Y831488D01*
X446122Y834168D01*
X444734Y836572D01*
X443043Y838263D01*
X443426Y839533D01*
X501643D01*
X502448Y838551D01*
X502261Y837611D01*
Y819300D01*
X502652Y817333D01*
X503766Y815666D01*
X514160Y805273D01*
Y796460D01*
X530240D01*
Y812540D01*
X521427D01*
X512936Y821031D01*
X513076Y822476D01*
X513560Y822760D01*
X520330D01*
Y830800D01*
X521600D01*
Y832070D01*
X529640D01*
Y838840D01*
X530623Y839533D01*
X531577D01*
X532560Y838840D01*
D02*
G37*
G36*
X732561Y773790D02*
X725185D01*
Y795660D01*
X728740D01*
Y795660D01*
X729660D01*
Y795660D01*
X732561D01*
Y773790D01*
D02*
G37*
G36*
X759339Y825015D02*
X759128Y824507D01*
X758904Y822800D01*
Y814800D01*
X759128Y813093D01*
X759787Y811502D01*
X760836Y810136D01*
X762202Y809087D01*
X763793Y808428D01*
X765500Y808204D01*
X765615D01*
Y773790D01*
X753860D01*
Y744010D01*
X761916D01*
Y733420D01*
X762211Y731933D01*
X763053Y730673D01*
X780413Y713313D01*
Y710833D01*
X780300Y710740D01*
X702603D01*
X702077Y712010D01*
X703356Y713289D01*
X729682D01*
X731648Y713680D01*
X733316Y714794D01*
X741334Y722812D01*
X742448Y724480D01*
X742839Y726446D01*
Y795660D01*
X745740D01*
Y810740D01*
X742839D01*
Y812571D01*
X756339Y826071D01*
X758633D01*
X759339Y825015D01*
D02*
G37*
G36*
X780413Y642951D02*
Y634699D01*
X734510Y588796D01*
X733240Y589322D01*
Y597290D01*
X709360D01*
Y567510D01*
X732915D01*
Y384642D01*
X733211Y383155D01*
X734053Y381895D01*
X735541Y380407D01*
X736801Y379565D01*
X738288Y379269D01*
X747660D01*
Y367239D01*
X727040D01*
Y396240D01*
X718984D01*
Y415666D01*
X718785Y416670D01*
Y442360D01*
X722940D01*
Y458440D01*
X718785D01*
Y477041D01*
X720359Y477950D01*
X722014Y479605D01*
X723184Y481632D01*
X723790Y483894D01*
Y486234D01*
X723184Y488495D01*
X722014Y490522D01*
X720359Y492178D01*
X718332Y493348D01*
X716070Y493954D01*
X713730D01*
X711469Y493348D01*
X709442Y492178D01*
X707786Y490522D01*
X706616Y488495D01*
X706010Y486234D01*
Y483894D01*
X706616Y481632D01*
X707786Y479605D01*
X709442Y477950D01*
X711015Y477041D01*
Y458440D01*
X706860D01*
Y442360D01*
X711015D01*
Y415866D01*
X711215Y414862D01*
Y396240D01*
X703160D01*
Y367239D01*
X700801D01*
X698439Y369601D01*
Y415360D01*
X701340D01*
Y431440D01*
X701039D01*
Y442360D01*
X703940D01*
Y458440D01*
X701039D01*
Y643044D01*
X780300D01*
X780413Y642951D01*
D02*
G37*
%LPC*%
G36*
X644240Y773790D02*
X620360D01*
Y744010D01*
X644240D01*
Y773790D01*
D02*
G37*
G36*
X472590Y658190D02*
X449510D01*
Y573110D01*
X472590D01*
Y658190D01*
D02*
G37*
G36*
X370440Y453440D02*
X354360D01*
Y437360D01*
X370440D01*
Y441516D01*
X392110D01*
Y435910D01*
X392273D01*
X393006Y434640D01*
X392641Y434007D01*
X392175Y432270D01*
X399900D01*
X407625D01*
X407159Y434007D01*
X406794Y434640D01*
X407527Y435910D01*
X407690D01*
Y451490D01*
X392110D01*
Y449285D01*
X370440D01*
Y453440D01*
D02*
G37*
G36*
Y434440D02*
X363670D01*
Y427670D01*
X370440D01*
Y434440D01*
D02*
G37*
G36*
X361130D02*
X354360D01*
Y427670D01*
X361130D01*
Y434440D01*
D02*
G37*
G36*
X370440Y425130D02*
X363670D01*
Y418360D01*
X370440D01*
Y425130D01*
D02*
G37*
G36*
X361130D02*
X354360D01*
Y418360D01*
X361130D01*
Y425130D01*
D02*
G37*
G36*
X638040Y396240D02*
X614160D01*
Y366460D01*
X638040D01*
Y396240D01*
D02*
G37*
G36*
X549040D02*
X525160D01*
Y366460D01*
X549040D01*
Y396240D01*
D02*
G37*
G36*
X466390Y390640D02*
X443310D01*
Y319560D01*
X466390D01*
Y390640D01*
D02*
G37*
G36*
X504540Y219740D02*
X493870D01*
Y206120D01*
X504540D01*
Y219740D01*
D02*
G37*
G36*
X491330D02*
X480660D01*
Y206120D01*
X491330D01*
Y219740D01*
D02*
G37*
G36*
X466390Y280640D02*
X443310D01*
Y195560D01*
X466390D01*
Y280640D01*
D02*
G37*
G36*
X638040Y219740D02*
X614160D01*
Y189960D01*
X638040D01*
Y219740D01*
D02*
G37*
G36*
X504540Y203580D02*
X493870D01*
Y189960D01*
X504540D01*
Y203580D01*
D02*
G37*
G36*
X491330D02*
X480660D01*
Y189960D01*
X491330D01*
Y203580D01*
D02*
G37*
G36*
X593540Y219740D02*
X569660D01*
Y189960D01*
X577715D01*
Y185703D01*
X576141Y184794D01*
X574486Y183139D01*
X573316Y181112D01*
X572710Y178851D01*
Y176510D01*
X573316Y174249D01*
X574486Y172222D01*
X576141Y170566D01*
X577715Y169658D01*
Y165383D01*
X576141Y164474D01*
X574486Y162819D01*
X573316Y160792D01*
X572710Y158531D01*
Y156190D01*
X573316Y153929D01*
X574486Y151902D01*
X576141Y150246D01*
X578168Y149076D01*
X580429Y148470D01*
X582770D01*
X585031Y149076D01*
X587058Y150246D01*
X588714Y151902D01*
X589884Y153929D01*
X590490Y156190D01*
Y158531D01*
X589884Y160792D01*
X588714Y162819D01*
X587058Y164474D01*
X585485Y165383D01*
Y169658D01*
X587058Y170566D01*
X588714Y172222D01*
X589884Y174249D01*
X590490Y176510D01*
Y178851D01*
X589884Y181112D01*
X588714Y183139D01*
X587058Y184794D01*
X585485Y185703D01*
Y189960D01*
X593540D01*
Y219740D01*
D02*
G37*
G36*
X446011Y75190D02*
X445860D01*
Y65670D01*
X455380D01*
Y65821D01*
X454645Y68565D01*
X453224Y71026D01*
X451216Y73034D01*
X448755Y74455D01*
X446011Y75190D01*
D02*
G37*
G36*
X443320D02*
X443170D01*
X440425Y74455D01*
X437965Y73034D01*
X435956Y71026D01*
X434536Y68565D01*
X433800Y65821D01*
Y65670D01*
X443320D01*
Y75190D01*
D02*
G37*
G36*
X529640Y829530D02*
X522870D01*
Y822760D01*
X529640D01*
Y829530D01*
D02*
G37*
G36*
X446840Y828830D02*
X437570D01*
Y819560D01*
X437688D01*
X440368Y820278D01*
X442772Y821666D01*
X444734Y823628D01*
X446122Y826032D01*
X446840Y828712D01*
Y828830D01*
D02*
G37*
G36*
X435030D02*
X425760D01*
Y828712D01*
X426479Y826032D01*
X427866Y823628D01*
X429828Y821666D01*
X432232Y820278D01*
X434913Y819560D01*
X435030D01*
Y828830D01*
D02*
G37*
G36*
X440300Y815296D02*
X432300D01*
X430593Y815072D01*
X429002Y814413D01*
X427636Y813364D01*
X426587Y811998D01*
X425929Y810407D01*
X425704Y808700D01*
Y800700D01*
X425929Y798993D01*
X426587Y797402D01*
X427636Y796036D01*
X429002Y794987D01*
X430593Y794328D01*
X432300Y794104D01*
X440300D01*
X442007Y794328D01*
X443598Y794987D01*
X444965Y796036D01*
X446013Y797402D01*
X446672Y798993D01*
X446897Y800700D01*
Y800815D01*
X469791D01*
X494915Y775691D01*
Y773790D01*
X486860D01*
Y744010D01*
X510740D01*
Y773790D01*
X502685D01*
Y777300D01*
X502389Y778787D01*
X501547Y780047D01*
X474147Y807447D01*
X472887Y808289D01*
X471400Y808585D01*
X446897D01*
Y808700D01*
X446672Y810407D01*
X446013Y811998D01*
X444965Y813364D01*
X443598Y814413D01*
X442007Y815072D01*
X440300Y815296D01*
D02*
G37*
G36*
X472590Y768190D02*
X449510D01*
Y697110D01*
X472590D01*
Y768190D01*
D02*
G37*
G36*
X36826Y983540D02*
X33174D01*
X29592Y982827D01*
X26218Y981430D01*
X23182Y979401D01*
X20599Y976818D01*
X18570Y973782D01*
X17172Y970408D01*
X16460Y966826D01*
Y963174D01*
X17172Y959592D01*
X18570Y956218D01*
X20599Y953181D01*
X23182Y950599D01*
X26218Y948570D01*
X29592Y947172D01*
X33174Y946460D01*
X36826D01*
X40408Y947172D01*
X43782Y948570D01*
X46819Y950599D01*
X49401Y953181D01*
X51430Y956218D01*
X52828Y959592D01*
X53540Y963174D01*
Y966826D01*
X52828Y970408D01*
X51430Y973782D01*
X49401Y976818D01*
X46819Y979401D01*
X43782Y981430D01*
X40408Y982827D01*
X36826Y983540D01*
D02*
G37*
G36*
X966826D02*
X963174D01*
X959592Y982827D01*
X956218Y981430D01*
X953182Y979401D01*
X950599Y976818D01*
X948570Y973782D01*
X947173Y970408D01*
X946460Y966826D01*
Y963174D01*
X947173Y959592D01*
X948570Y956218D01*
X950599Y953181D01*
X953182Y950599D01*
X956218Y948570D01*
X959592Y947172D01*
X963174Y946460D01*
X966826D01*
X970408Y947172D01*
X973782Y948570D01*
X976819Y950599D01*
X979401Y953181D01*
X981430Y956218D01*
X982828Y959592D01*
X983540Y963174D01*
Y966826D01*
X982828Y970408D01*
X981430Y973782D01*
X979401Y976818D01*
X976819Y979401D01*
X973782Y981430D01*
X970408Y982827D01*
X966826Y983540D01*
D02*
G37*
G36*
Y53540D02*
X963174D01*
X959592Y52828D01*
X956218Y51430D01*
X953182Y49401D01*
X950599Y46819D01*
X948570Y43782D01*
X947173Y40408D01*
X946460Y36826D01*
Y33174D01*
X947173Y29592D01*
X948570Y26218D01*
X950599Y23182D01*
X953182Y20599D01*
X956218Y18570D01*
X959592Y17173D01*
X963174Y16460D01*
X966826D01*
X970408Y17173D01*
X973782Y18570D01*
X976819Y20599D01*
X979401Y23182D01*
X981430Y26218D01*
X982828Y29592D01*
X983540Y33174D01*
Y36826D01*
X982828Y40408D01*
X981430Y43782D01*
X979401Y46819D01*
X976819Y49401D01*
X973782Y51430D01*
X970408Y52828D01*
X966826Y53540D01*
D02*
G37*
G36*
X36826D02*
X33174D01*
X29592Y52828D01*
X26218Y51430D01*
X23182Y49401D01*
X20599Y46819D01*
X18570Y43782D01*
X17172Y40408D01*
X16460Y36826D01*
Y33174D01*
X17172Y29592D01*
X18570Y26218D01*
X20599Y23182D01*
X23182Y20599D01*
X26218Y18570D01*
X29592Y17173D01*
X33174Y16460D01*
X36826D01*
X40408Y17173D01*
X43782Y18570D01*
X46819Y20599D01*
X49401Y23182D01*
X51430Y26218D01*
X52828Y29592D01*
X53540Y33174D01*
Y36826D01*
X52828Y40408D01*
X51430Y43782D01*
X49401Y46819D01*
X46819Y49401D01*
X43782Y51430D01*
X40408Y52828D01*
X36826Y53540D01*
D02*
G37*
%LPD*%
D10*
X-0Y0D02*
X1000000D01*
Y1000000D01*
X685000D02*
X1000000D01*
X685000Y950000D02*
Y1000000D01*
X315000Y950000D02*
X685000D01*
X315000D02*
Y1000000D01*
X-0D02*
X315000D01*
X-0Y0D02*
Y1000000D01*
D16*
X513829Y690768D02*
X559600Y736540D01*
X541200Y804500D02*
X559600Y786100D01*
Y736540D02*
Y786100D01*
X540600Y805100D02*
X541200Y804500D01*
X738288Y383154D02*
X759600D01*
X572462Y401813D02*
Y427858D01*
X203038Y954800D02*
X203838Y955600D01*
X171396Y923158D02*
X203038Y954800D01*
X485340Y425920D02*
Y602610D01*
Y417952D02*
Y425920D01*
X581600Y157360D02*
Y177680D01*
X868800Y488200D02*
X941900D01*
X867800D02*
X868800D01*
X543300Y490644D02*
Y579496D01*
X557212D01*
X498800Y596260D02*
X507436Y604896D01*
X559000D01*
X114246Y362846D02*
Y395092D01*
X94400Y343000D02*
X114246Y362846D01*
X581600Y381350D02*
Y418720D01*
X572462Y427858D02*
X581600Y418720D01*
X572462Y427858D02*
Y591434D01*
X559000Y604896D02*
X572462Y591434D01*
X498800Y582400D02*
Y596260D01*
X377156Y690768D02*
X513829D01*
X325066Y638678D02*
X377156Y690768D01*
X204670Y638678D02*
X325066D01*
X201368Y641980D02*
X204670Y638678D01*
X201368Y641980D02*
Y714868D01*
X212800Y726300D01*
X226700Y921200D02*
X252682Y895218D01*
X308556D01*
X332686Y871088D01*
Y835020D02*
Y871088D01*
X329384Y831718D02*
X332686Y835020D01*
X280870Y831718D02*
X329384D01*
X276900Y827748D02*
X280870Y831718D01*
X254200Y827748D02*
X276900D01*
X212800Y786348D02*
X254200Y827748D01*
X212800Y777100D02*
Y786348D01*
X184200Y954800D02*
X203038D01*
X226200Y955600D01*
X80700Y524700D02*
X93640Y537640D01*
X118220Y555520D02*
X136600Y573900D01*
X118220Y498520D02*
Y555520D01*
X80800Y461100D02*
X118220Y498520D01*
X123300Y535200D02*
X136600Y548500D01*
X123300Y471900D02*
Y535200D01*
X80700Y429300D02*
X123300Y471900D01*
X663394Y523100D02*
Y698044D01*
X721300Y755950D01*
Y758900D01*
X676800Y742564D02*
Y758900D01*
X572914Y638678D02*
X676800Y742564D01*
X521408Y638678D02*
X572914D01*
X485340Y602610D02*
X521408Y638678D01*
X477720Y418300D02*
X485340Y425920D01*
X399900Y418300D02*
X477720D01*
X492600Y381350D02*
Y410692D01*
X485340Y417952D02*
X492600Y410692D01*
X581600Y177680D02*
Y204850D01*
X212800Y624700D02*
X311858Y525642D01*
Y437510D02*
Y525642D01*
Y437510D02*
X382470Y366898D01*
Y104516D02*
Y366898D01*
Y104516D02*
X434794Y52192D01*
X515482D01*
X527690Y64400D01*
X868800Y488200D02*
Y489600D01*
X543300Y579496D02*
Y582400D01*
X557212Y579496D02*
X558700Y67710D01*
X555390Y64400D02*
X558700Y67710D01*
X254100Y779000D02*
Y796164D01*
X258500Y800564D01*
Y816600D01*
X714900Y450400D02*
Y485064D01*
X504644Y451988D02*
X543300Y490644D01*
X169110Y391028D02*
Y769990D01*
X136600Y802500D02*
X169110Y769990D01*
X212800Y827900D02*
X244400D01*
X258500Y842000D01*
X212800Y853300D02*
X311200D01*
X321800Y842700D01*
X171396Y843904D02*
X212800Y802500D01*
X171396Y843904D02*
Y923158D01*
X203838Y955600D02*
X226200D01*
X714900Y415866D02*
Y450400D01*
Y415866D02*
X715100Y415666D01*
Y381350D02*
Y415666D01*
X587800Y758900D02*
Y831600D01*
X588200Y832000D01*
X759600Y157200D02*
X760100Y156700D01*
X765500Y489600D02*
X765800Y489900D01*
X759600Y381350D02*
Y383154D01*
X736800Y384642D02*
X738288Y383154D01*
X736800Y384642D02*
Y585592D01*
X784298Y633090D01*
Y714922D01*
X765800Y733420D02*
X784298Y714922D01*
X765800Y733420D02*
Y758900D01*
X769500Y762599D01*
Y818800D01*
X98300Y317000D02*
Y327400D01*
X94400Y331300D02*
X98300Y327400D01*
X94400Y331300D02*
Y343000D01*
X79820Y70000D02*
Y101112D01*
X124908Y146200D01*
X178200D01*
X257100D01*
X275800Y127500D01*
X40900Y606100D02*
Y632900D01*
X40600Y633200D02*
X40900Y632900D01*
X36500Y361300D02*
X37500Y362300D01*
X62400D01*
Y397600D01*
X61800Y398200D02*
X62400Y397600D01*
X61700Y398300D02*
X61800Y398200D01*
X61700Y398300D02*
Y429300D01*
X61800Y429400D01*
Y461100D01*
X61300Y461600D02*
X61800Y461100D01*
X61300Y461600D02*
Y492800D01*
X61700Y493200D01*
Y524700D01*
X78800Y377600D02*
X94400Y362000D01*
X78800Y377600D02*
Y398200D01*
X178200Y163200D02*
X258100D01*
X289700Y194800D01*
X257659D02*
X289700D01*
X247358Y205100D02*
X257659Y194800D01*
X247358Y205100D02*
Y267642D01*
X234900Y280100D02*
X247358Y267642D01*
X188900Y280100D02*
X234900D01*
X670600Y381350D02*
X674300Y385050D01*
Y423400D01*
X212800Y675500D02*
X247000D01*
X248500Y674000D01*
X540600Y805100D02*
Y830800D01*
X570000D01*
X571200Y832000D01*
X362400Y445400D02*
X398200D01*
X399900Y443700D01*
X183700Y918300D02*
X223800D01*
X226700Y921200D01*
X80300Y492800D02*
X111200Y523700D01*
Y573900D01*
X136600Y599300D01*
X721300Y758900D02*
Y802600D01*
X720700Y803200D02*
X721300Y802600D01*
X676800Y758900D02*
Y826700D01*
X678100Y828000D01*
X92800Y851000D02*
X134300D01*
X136600Y853300D01*
X527690Y64400D02*
X541930Y50160D01*
X577034D01*
X657298Y130424D01*
Y419476D01*
X587800Y488974D02*
X657298Y419476D01*
X587800Y488974D02*
Y582400D01*
X867800Y445500D02*
Y488200D01*
X868800Y489600D01*
X499990Y64400D02*
X537100Y101510D01*
Y204850D01*
X436300Y804700D02*
X471400D01*
X498800Y777300D01*
Y758900D02*
Y777300D01*
X40600Y650200D02*
X41900Y651500D01*
X76500D01*
X77900Y650100D01*
X136600D01*
X40900Y589100D02*
X62900D01*
X76500Y602700D01*
X114600D01*
X136600Y624700D01*
X308600Y780200D02*
Y804100D01*
X321800Y817300D01*
D17*
X86000Y698900D02*
X121358D01*
X158000Y344220D02*
X172776Y329444D01*
X289700Y254800D02*
X292662Y263530D01*
X290157Y327253D02*
X292662Y263530D01*
X288710Y328700D02*
X290157Y327253D01*
X173520Y328700D02*
X288710D01*
X172776Y329444D02*
X173520Y328700D01*
X737700Y814700D02*
X754210Y831210D01*
X737700Y726446D02*
Y803200D01*
X754210Y831210D02*
X800554D01*
X737700Y803200D02*
Y814700D01*
X724400Y828000D02*
X737700Y814700D01*
X729682Y718428D02*
X737700Y726446D01*
X695100Y828000D02*
X724400D01*
X386280Y844672D02*
X514461D01*
X136600Y700900D02*
X158000Y679500D01*
Y344220D02*
Y679500D01*
X73400Y702100D02*
X85800Y699100D01*
X73400Y702100D02*
Y812599D01*
X92800Y832000D01*
X686762Y844672D02*
X695100Y836334D01*
X367484Y825876D02*
X386280Y844672D01*
X367484Y698410D02*
Y825876D01*
X325574Y656500D02*
X367484Y698410D01*
X275800Y656500D02*
X325574D01*
X507400Y819300D02*
X522200Y804500D01*
X507400Y819300D02*
Y837611D01*
X514461Y844672D01*
X686762D01*
X695100Y828000D02*
Y836334D01*
X695900Y450400D02*
Y713100D01*
X701228Y718428D01*
X729682D01*
X803550Y739650D02*
Y758006D01*
X806904Y761360D01*
Y824860D01*
X800554Y831210D02*
X806904Y824860D01*
X123358Y700900D02*
X136600D01*
X121358Y698900D02*
X123358Y700900D01*
X212800Y650100D02*
X216172D01*
X221072Y655000D01*
X248500D01*
X274300D01*
X275800Y656500D01*
X132299Y918300D02*
X158300D01*
X81480Y867481D02*
X132299Y918300D01*
X81480Y843320D02*
Y867481D01*
Y843320D02*
X92800Y832000D01*
X158300Y918300D02*
Y954299D01*
X158800Y954800D01*
X695900Y426000D02*
Y450400D01*
X693300Y423400D02*
X695900Y426000D01*
X803550Y739650D02*
X806100Y742200D01*
X846800D01*
X693300Y367472D02*
Y423400D01*
Y367472D02*
X698672Y362100D01*
X797350D01*
X811984D01*
X814284Y359800D01*
X829100D01*
D19*
X454850Y238100D02*
D03*
X461050Y615650D02*
D03*
D20*
X454850Y355100D02*
D03*
X461050Y732650D02*
D03*
D21*
X492600Y204850D02*
D03*
X537100D02*
D03*
X581600D02*
D03*
X626100D02*
D03*
X670600D02*
D03*
X715100D02*
D03*
X759600D02*
D03*
Y381350D02*
D03*
X715100D02*
D03*
X670600D02*
D03*
X626100D02*
D03*
X581600D02*
D03*
X537100D02*
D03*
X492600D02*
D03*
X498800Y582400D02*
D03*
X543300D02*
D03*
X587800D02*
D03*
X632300D02*
D03*
X676800D02*
D03*
X721300D02*
D03*
X765800D02*
D03*
Y758900D02*
D03*
X721300D02*
D03*
X676800D02*
D03*
X632300D02*
D03*
X587800D02*
D03*
X543300D02*
D03*
X498800D02*
D03*
D22*
X797350Y224100D02*
D03*
Y270100D02*
D03*
Y316100D02*
D03*
Y362100D02*
D03*
X803550Y601650D02*
D03*
Y647650D02*
D03*
Y693650D02*
D03*
Y739650D02*
D03*
D23*
X693300Y423400D02*
D03*
X674300D02*
D03*
X98300Y317000D02*
D03*
X117300D02*
D03*
X61700Y429300D02*
D03*
X80700D02*
D03*
X80800Y461100D02*
D03*
X61800D02*
D03*
X61300Y492800D02*
D03*
X80300D02*
D03*
X61700Y524700D02*
D03*
X80700D02*
D03*
X245200Y955600D02*
D03*
X226200D02*
D03*
X245700Y921200D02*
D03*
X226700D02*
D03*
X714900Y450400D02*
D03*
X695900D02*
D03*
X849800Y489600D02*
D03*
X868800D02*
D03*
X886000Y347500D02*
D03*
X867000D02*
D03*
X885100Y271300D02*
D03*
X866100D02*
D03*
X883000Y192900D02*
D03*
X864000D02*
D03*
X540600Y830800D02*
D03*
X521600D02*
D03*
X541200Y804500D02*
D03*
X522200D02*
D03*
D24*
X92800Y851000D02*
D03*
Y832000D02*
D03*
X62400Y362300D02*
D03*
Y343300D02*
D03*
X94400Y343000D02*
D03*
Y362000D02*
D03*
X308600Y780200D02*
D03*
Y761200D02*
D03*
X846800Y723200D02*
D03*
Y742200D02*
D03*
X807200Y138400D02*
D03*
Y157400D02*
D03*
X254100Y779000D02*
D03*
Y760000D02*
D03*
X362400Y426400D02*
D03*
Y445400D02*
D03*
X248500Y655000D02*
D03*
Y674000D02*
D03*
D25*
X36500Y361300D02*
D03*
Y344300D02*
D03*
X829100Y359800D02*
D03*
Y342800D02*
D03*
X812600Y488500D02*
D03*
Y505500D02*
D03*
X866300Y401000D02*
D03*
Y384000D02*
D03*
X865400Y318900D02*
D03*
Y301900D02*
D03*
X864000Y240300D02*
D03*
Y223300D02*
D03*
X275800Y673500D02*
D03*
Y656500D02*
D03*
X85800Y699100D02*
D03*
Y716100D02*
D03*
X108300Y698900D02*
D03*
Y715900D02*
D03*
X40900Y589100D02*
D03*
Y606100D02*
D03*
X40600Y650200D02*
D03*
Y633200D02*
D03*
D26*
X78800Y398200D02*
D03*
X61800D02*
D03*
X678100Y828000D02*
D03*
X695100D02*
D03*
X737700Y803200D02*
D03*
X720700D02*
D03*
X867800Y445500D02*
D03*
X850800D02*
D03*
X847100Y159000D02*
D03*
X864100D02*
D03*
X777100Y156700D02*
D03*
X760100D02*
D03*
X588200Y832000D02*
D03*
X571200D02*
D03*
D27*
X785500Y489600D02*
D03*
X765500D02*
D03*
D28*
X222900Y200300D02*
D03*
Y228300D02*
D03*
D29*
X275800Y127500D02*
D03*
X321800D02*
D03*
D30*
X304950Y36000D02*
D03*
X255850D02*
D03*
D31*
X289700Y194800D02*
D03*
Y254800D02*
D03*
D32*
X72700Y180200D02*
D03*
D33*
X178200Y214200D02*
D03*
Y197200D02*
D03*
Y180200D02*
D03*
Y163200D02*
D03*
Y146200D02*
D03*
D51*
X80140Y280100D02*
D03*
X188580Y70000D02*
D03*
X436300Y830100D02*
D03*
X794900Y818800D02*
D03*
D52*
X188900Y280100D02*
D03*
X79820Y70000D02*
D03*
D67*
X759600Y157200D02*
Y204850D01*
X765800Y489900D02*
Y582400D01*
X777100Y156700D02*
X806500D01*
X807200Y157400D01*
X845500D01*
X847100Y159000D01*
X865400Y318900D02*
X867000Y320500D01*
Y347500D01*
Y383300D01*
X866300Y384000D02*
X867000Y383300D01*
X864100Y159000D02*
Y192800D01*
X864000Y192900D02*
X864100Y192800D01*
X864000Y192900D02*
Y223300D01*
Y240300D02*
Y269200D01*
X866100Y271300D01*
Y301200D01*
X865400Y301900D02*
X866100Y301200D01*
X866300Y401000D02*
X867800Y402500D01*
Y445500D01*
X785500Y489600D02*
X786600Y488500D01*
X812600D01*
X848700D01*
X849800Y489600D01*
D68*
X178200Y197200D02*
X219800D01*
X222900Y200300D01*
X188580Y39108D02*
Y70000D01*
Y39108D02*
X191688Y36000D01*
X255850D01*
X304950D02*
X319900D01*
X340100Y15800D01*
X438240D01*
X458440Y36000D01*
D69*
X136600Y853300D02*
D03*
D70*
Y827900D02*
D03*
Y802500D02*
D03*
Y777100D02*
D03*
Y751700D02*
D03*
Y726300D02*
D03*
Y700900D02*
D03*
Y675500D02*
D03*
Y650100D02*
D03*
Y624700D02*
D03*
Y599300D02*
D03*
Y573900D02*
D03*
Y548500D02*
D03*
Y523100D02*
D03*
X212800Y853300D02*
D03*
Y827900D02*
D03*
Y802500D02*
D03*
Y777100D02*
D03*
Y751700D02*
D03*
Y726300D02*
D03*
Y700900D02*
D03*
Y675500D02*
D03*
Y650100D02*
D03*
Y624700D02*
D03*
Y599300D02*
D03*
Y573900D02*
D03*
Y548500D02*
D03*
Y523100D02*
D03*
X941900Y488200D02*
D03*
D71*
X183700Y918300D02*
D03*
X158300D02*
D03*
X184200Y954800D02*
D03*
X158800D02*
D03*
X458440Y36000D02*
D03*
X486140D02*
D03*
X513840D02*
D03*
X541540D02*
D03*
X527690Y64400D02*
D03*
X444590D02*
D03*
X472290D02*
D03*
X499990D02*
D03*
D72*
X321800Y817300D02*
D03*
Y842700D02*
D03*
X258500Y816600D02*
D03*
Y842000D02*
D03*
D73*
X624990Y50200D02*
D03*
X374990D02*
D03*
D74*
X555390Y64400D02*
D03*
D75*
X399900Y418300D02*
D03*
Y431000D02*
D03*
D76*
Y443700D02*
D03*
D77*
X76500Y602700D02*
D03*
D78*
Y651500D02*
D03*
D79*
X436300Y804700D02*
D03*
D80*
X769500Y818800D02*
D03*
D81*
X916900Y463200D02*
D03*
Y513200D02*
D03*
X966900Y463200D02*
D03*
Y513200D02*
D03*
D82*
X35000Y35000D02*
D03*
X965000D02*
D03*
Y965000D02*
D03*
X35000D02*
D03*
D83*
X758413Y224260D02*
D03*
X743140Y211626D02*
D03*
Y199626D02*
D03*
X750806Y177267D02*
D03*
X747540Y153513D02*
D03*
X755618Y144639D02*
D03*
X768394Y179388D02*
D03*
X775230Y189250D02*
D03*
X776060Y201221D02*
D03*
Y213221D02*
D03*
X770827Y224020D02*
D03*
X834901Y166194D02*
D03*
X822900D02*
D03*
X811507Y169960D02*
D03*
X799513Y169571D02*
D03*
X776301Y168760D02*
D03*
X773702Y144639D02*
D03*
X785678Y145398D02*
D03*
X820970Y148606D02*
D03*
X832970D02*
D03*
X844854Y146940D02*
D03*
X852011Y229341D02*
D03*
X852000Y217341D02*
D03*
X855207Y205777D02*
D03*
X851440Y194384D02*
D03*
X855306Y170697D02*
D03*
X855140Y147857D02*
D03*
X867105Y146940D02*
D03*
X876661Y154199D02*
D03*
X876269Y166192D02*
D03*
X872894Y177708D02*
D03*
X853340Y300088D02*
D03*
X857307Y288763D02*
D03*
X853612Y277346D02*
D03*
X853600Y265346D02*
D03*
X855207Y253454D02*
D03*
X851940Y241907D02*
D03*
X875933Y233828D02*
D03*
X876057Y245828D02*
D03*
X872794Y257376D02*
D03*
X877461Y303421D02*
D03*
X854240Y389069D02*
D03*
X854428Y377071D02*
D03*
X858206Y365681D02*
D03*
X854602Y354235D02*
D03*
X854439Y342236D02*
D03*
X856817Y330474D02*
D03*
X853340Y318989D02*
D03*
X877461Y314431D02*
D03*
X877138Y326426D02*
D03*
X875794Y361695D02*
D03*
X925800Y496635D02*
D03*
X913800D02*
D03*
X901800D02*
D03*
X889800D02*
D03*
X866597Y502160D02*
D03*
X859365Y460327D02*
D03*
X859006Y425441D02*
D03*
Y413441D02*
D03*
X854240Y402428D02*
D03*
X878260Y394736D02*
D03*
X878329Y406736D02*
D03*
X876594Y418610D02*
D03*
Y430610D02*
D03*
X880360Y442003D02*
D03*
X879440Y453968D02*
D03*
X876235Y465532D02*
D03*
X876713Y477523D02*
D03*
X888502Y479765D02*
D03*
X900502D02*
D03*
X912502D02*
D03*
X924502D02*
D03*
X955732Y483548D02*
D03*
X944779Y502507D02*
D03*
X792760Y475074D02*
D03*
X804657Y476642D02*
D03*
X816636Y475940D02*
D03*
X828030Y479706D02*
D03*
X851877Y477039D02*
D03*
X852651Y502160D02*
D03*
X840693Y501155D02*
D03*
X829332Y497294D02*
D03*
X794327Y503920D02*
D03*
X749340Y574387D02*
D03*
X754164Y563400D02*
D03*
X757007Y551741D02*
D03*
Y539741D02*
D03*
Y527741D02*
D03*
Y515741D02*
D03*
X756293Y503762D02*
D03*
X751440Y492788D02*
D03*
X751612Y480789D02*
D03*
X762145Y475039D02*
D03*
X774143Y475256D02*
D03*
X774594Y508938D02*
D03*
Y520938D02*
D03*
Y532938D02*
D03*
Y544938D02*
D03*
Y556938D02*
D03*
X781431Y566800D02*
D03*
X782261Y578771D02*
D03*
Y590771D02*
D03*
X777028Y601570D02*
D03*
D84*
X572462Y401813D02*
D03*
X114246Y395092D02*
D03*
X93640Y537640D02*
D03*
X663394Y523100D02*
D03*
X581600Y157360D02*
D03*
Y177680D02*
D03*
X714900Y485064D02*
D03*
X504644Y451988D02*
D03*
X169110Y391028D02*
D03*
M02*
