M48
;Layer_Color=9474304
;FILE_FORMAT=4:4
METRIC
;TYPE=PLATED
T1F00S00C0.5000
T2F00S00C0.7000
T3F00S00C0.7112
T4F00S00C0.8000
T5F00S00C0.9000
T6F00S00C0.9200
T7F00S00C1.0000
T8F00S00C1.0500
T9F00S00C1.0900
T10F00S00C1.1000
T11F00S00C1.1314
T12F00S00C3.2000
;TYPE=NON_PLATED
T13F00S00C3.2000
%
T01
X01009418Y00396739
X01027502
X01209532Y00735648
X01198579Y00754607
X01179600Y00748735
X01167600
X01155600
X01143600
X01142302Y00731865
X01154302
X01166302
X01178302
X01130513Y00729623
X01130035Y00717632
X01133240Y00706068
X01134160Y00694103
X01130394Y00682710
Y00670710
X01132129Y00658836
X01132060Y00646836
X01108039Y00641169
X01108228Y00629170
X01112006Y00617781
X01108402Y00606335
X01108240Y00594336
X01110617Y00582574
X01107140Y00571089
Y00552188
X01111106Y00540863
X01107412Y00529446
X01107400Y00517446
X01109007Y00505554
X01105740Y00494007
X01105811Y00481441
X01105800Y00469441
X01109007Y00457877
X01105240Y00446484
X01109107Y00422797
X01108940Y00399957
X01098654Y00399040
X01086770Y00400706
X01074770
X01076701Y00418293
X01088700
X01065307Y00422060
X01053313Y00421671
X01030101Y00420860
X01022194Y00431488
X01029030Y00441350
X01029860Y00453321
Y00465321
X01024627Y00476120
X01012213Y00476360
X00996940Y00463726
Y00451726
X01004606Y00429367
X01001340Y00405613
X01039478Y00397498
X01120905Y00399040
X01130461Y00406298
X01130069Y00418292
X01126694Y00429808
X01129733Y00485928
X01129857Y00497928
X01126594Y00509476
X01131261Y00555521
Y00566530
X01130938Y00578526
X01129594Y00613795
X01108039Y00654528
X01112806Y00665541
Y00677541
X01113165Y00712427
X01105677Y00729139
X01106451Y00754260
X01094493Y00753255
X01083131Y00749394
X01081830Y00731806
X01070436Y00728040
X01058457Y00728742
X01046560Y00727174
X01027943Y00727356
X01015945Y00727139
X01005412Y00732889
X01005240Y00744888
X01010093Y00755862
X01010807Y00767841
Y00779841
Y00791841
X01028394Y00785038
Y00773038
Y00761038
X01048127Y00756020
X01120397Y00754260
X01028394Y00797038
Y00809038
X01035230Y00818900
X01036061Y00830871
Y00842871
X01030827Y00853670
X01003140Y00826487
X01007964Y00815500
X01010807Y00803841
T02
X00330300Y00854800
Y00903600
T03
X00835400Y00409460
Y00429780
X00826262Y00653913
X00917194Y00775200
X00968700Y00737164
X00758444Y00704088
X00422910Y00643128
X00368046Y00647192
X00347440Y00789740
T04
X00653700Y00670400
Y00683100
Y00695800
T05
X00466600Y00775200
X00390400
Y00800600
Y00826000
Y00851400
Y00876800
Y00902200
Y00927600
Y00953000
Y00978400
Y01003800
Y01029200
Y01054600
Y01080000
Y01105400
X00466600
Y01080000
Y01054600
Y01029200
Y01003800
Y00978400
Y00953000
Y00927600
Y00902200
Y00876800
Y00851400
Y00826000
Y00800600
T06
X00512300Y01068700
Y01094100
X00575600Y01094800
Y01069400
T07
X01195700Y00740300
X00437500Y01170400
X00412100
X00412600Y01206900
X00438000
T08
X00333620Y00322100
X00442380
X00442700Y00532200
X00333940
T09
X00712240Y00288100
X00739940
X00767640
X00753790Y00316500
X00781490
X00726090
X00698390
X00809190
X00795340Y00288100
T10
X00690100Y01056800
Y01082200
X01023300Y01070900
X01048700
T11
X01220700Y00715300
Y00765300
X01170700
Y00715300
T12
X00628790Y00302300
X00878790
T13
X00288800Y00287100
X01218800
Y01217100
X00288800
M30
