G04*
G04 #@! TF.GenerationSoftware,Altium Limited,Altium Designer,23.6.0 (18)*
G04*
G04 Layer_Color=16711935*
%FSLAX44Y44*%
%MOMM*%
G71*
G04*
G04 #@! TF.SameCoordinates,AADCE73A-F72B-4A01-A8B1-447CC9BFCAD9*
G04*
G04*
G04 #@! TF.FilePolarity,Negative*
G04*
G01*
G75*
%ADD10C,0.2000*%
%ADD49R,1.7032X1.7032*%
%ADD50C,1.7032*%
%ADD51C,1.6000*%
%ADD52R,1.6000X1.6000*%
%ADD53C,1.8532*%
%ADD54C,1.6032*%
%ADD55C,5.0032*%
G04:AMPARAMS|DCode=56|XSize=1.8532mm|YSize=1.8532mm|CornerRadius=0.5141mm|HoleSize=0mm|Usage=FLASHONLY|Rotation=0.000|XOffset=0mm|YOffset=0mm|HoleType=Round|Shape=RoundedRectangle|*
%AMROUNDEDRECTD56*
21,1,1.8532,0.8250,0,0,0.0*
21,1,0.8250,1.8532,0,0,0.0*
1,1,1.0282,0.4125,-0.4125*
1,1,1.0282,-0.4125,-0.4125*
1,1,1.0282,-0.4125,0.4125*
1,1,1.0282,0.4125,0.4125*
%
%ADD56ROUNDEDRECTD56*%
%ADD57C,1.2532*%
%ADD58R,1.2532X1.2532*%
%ADD59C,1.4032*%
%ADD60R,1.4032X1.4032*%
G04:AMPARAMS|DCode=61|XSize=1.8032mm|YSize=1.8032mm|CornerRadius=0.5016mm|HoleSize=0mm|Usage=FLASHONLY|Rotation=90.000|XOffset=0mm|YOffset=0mm|HoleType=Round|Shape=RoundedRectangle|*
%AMROUNDEDRECTD61*
21,1,1.8032,0.8000,0,0,90.0*
21,1,0.8000,1.8032,0,0,90.0*
1,1,1.0032,0.4000,0.4000*
1,1,1.0032,0.4000,-0.4000*
1,1,1.0032,-0.4000,-0.4000*
1,1,1.0032,-0.4000,0.4000*
%
%ADD61ROUNDEDRECTD61*%
%ADD62C,1.8032*%
G04:AMPARAMS|DCode=63|XSize=1.8032mm|YSize=1.8032mm|CornerRadius=0.5016mm|HoleSize=0mm|Usage=FLASHONLY|Rotation=0.000|XOffset=0mm|YOffset=0mm|HoleType=Round|Shape=RoundedRectangle|*
%AMROUNDEDRECTD63*
21,1,1.8032,0.8000,0,0,0.0*
21,1,0.8000,1.8032,0,0,0.0*
1,1,1.0032,0.4000,-0.4000*
1,1,1.0032,-0.4000,-0.4000*
1,1,1.0032,-0.4000,0.4000*
1,1,1.0032,0.4000,0.4000*
%
%ADD63ROUNDEDRECTD63*%
%ADD64C,1.9002*%
%ADD65C,3.4032*%
%ADD66C,1.4732*%
D10*
X-0Y0D02*
X1000000D01*
Y1000000D01*
X685000D02*
X1000000D01*
X685000Y950000D02*
Y1000000D01*
X315000Y950000D02*
X685000D01*
X315000D02*
Y1000000D01*
X-0D02*
X315000D01*
X-0Y0D02*
Y1000000D01*
D49*
X136600Y853300D02*
D03*
D50*
Y827900D02*
D03*
Y802500D02*
D03*
Y777100D02*
D03*
Y751700D02*
D03*
Y726300D02*
D03*
Y700900D02*
D03*
Y675500D02*
D03*
Y650100D02*
D03*
Y624700D02*
D03*
Y599300D02*
D03*
Y573900D02*
D03*
Y548500D02*
D03*
Y523100D02*
D03*
X212800Y853300D02*
D03*
Y827900D02*
D03*
Y802500D02*
D03*
Y777100D02*
D03*
Y751700D02*
D03*
Y726300D02*
D03*
Y700900D02*
D03*
Y675500D02*
D03*
Y650100D02*
D03*
Y624700D02*
D03*
Y599300D02*
D03*
Y573900D02*
D03*
Y548500D02*
D03*
Y523100D02*
D03*
X941900Y488200D02*
D03*
D51*
X80140Y280100D02*
D03*
X188580Y70000D02*
D03*
D52*
X188900Y280100D02*
D03*
X79820Y70000D02*
D03*
D53*
X183700Y918300D02*
D03*
X158300D02*
D03*
X184200Y954800D02*
D03*
X158800D02*
D03*
X458440Y36000D02*
D03*
X486140D02*
D03*
X513840D02*
D03*
X541540D02*
D03*
X527690Y64400D02*
D03*
X444590D02*
D03*
X472290D02*
D03*
X499990D02*
D03*
D54*
X321800Y817300D02*
D03*
Y842700D02*
D03*
X258500Y816600D02*
D03*
Y842000D02*
D03*
D55*
X624990Y50200D02*
D03*
X374990D02*
D03*
D56*
X555390Y64400D02*
D03*
D57*
X399900Y418300D02*
D03*
Y431000D02*
D03*
D58*
Y443700D02*
D03*
D59*
X76500Y602700D02*
D03*
D60*
Y651500D02*
D03*
D61*
X436300Y804700D02*
D03*
D62*
Y830100D02*
D03*
X794900Y818800D02*
D03*
D63*
X769500D02*
D03*
D64*
X916900Y463200D02*
D03*
Y513200D02*
D03*
X966900Y463200D02*
D03*
Y513200D02*
D03*
D65*
X35000Y35000D02*
D03*
X965000D02*
D03*
Y965000D02*
D03*
X35000D02*
D03*
D66*
X572462Y401813D02*
D03*
X114246Y395092D02*
D03*
X93640Y537640D02*
D03*
X663394Y523100D02*
D03*
X581600Y157360D02*
D03*
Y177680D02*
D03*
X714900Y485064D02*
D03*
X504644Y451988D02*
D03*
X169110Y391028D02*
D03*
M02*
