G04*
G04 #@! TF.GenerationSoftware,Altium Limited,Altium Designer,23.6.0 (18)*
G04*
G04 Layer_Physical_Order=4*
G04 Layer_Color=16711680*
%FSLAX44Y44*%
%MOMM*%
G71*
G04*
G04 #@! TF.SameCoordinates,AADCE73A-F72B-4A01-A8B1-447CC9BFCAD9*
G04*
G04*
G04 #@! TF.FilePolarity,Positive*
G04*
G01*
G75*
%ADD10C,0.2000*%
%ADD16C,0.2540*%
%ADD51C,1.6000*%
%ADD52R,1.6000X1.6000*%
%ADD69R,1.5000X1.5000*%
%ADD70C,1.5000*%
%ADD71C,1.6500*%
%ADD72C,1.4000*%
%ADD73C,4.8000*%
G04:AMPARAMS|DCode=74|XSize=1.65mm|YSize=1.65mm|CornerRadius=0.4125mm|HoleSize=0mm|Usage=FLASHONLY|Rotation=0.000|XOffset=0mm|YOffset=0mm|HoleType=Round|Shape=RoundedRectangle|*
%AMROUNDEDRECTD74*
21,1,1.6500,0.8250,0,0,0.0*
21,1,0.8250,1.6500,0,0,0.0*
1,1,0.8250,0.4125,-0.4125*
1,1,0.8250,-0.4125,-0.4125*
1,1,0.8250,-0.4125,0.4125*
1,1,0.8250,0.4125,0.4125*
%
%ADD74ROUNDEDRECTD74*%
%ADD75C,1.0500*%
%ADD76R,1.0500X1.0500*%
%ADD77C,1.2000*%
%ADD78R,1.2000X1.2000*%
G04:AMPARAMS|DCode=79|XSize=1.6mm|YSize=1.6mm|CornerRadius=0.4mm|HoleSize=0mm|Usage=FLASHONLY|Rotation=90.000|XOffset=0mm|YOffset=0mm|HoleType=Round|Shape=RoundedRectangle|*
%AMROUNDEDRECTD79*
21,1,1.6000,0.8000,0,0,90.0*
21,1,0.8000,1.6000,0,0,90.0*
1,1,0.8000,0.4000,0.4000*
1,1,0.8000,0.4000,-0.4000*
1,1,0.8000,-0.4000,-0.4000*
1,1,0.8000,-0.4000,0.4000*
%
%ADD79ROUNDEDRECTD79*%
G04:AMPARAMS|DCode=80|XSize=1.6mm|YSize=1.6mm|CornerRadius=0.4mm|HoleSize=0mm|Usage=FLASHONLY|Rotation=0.000|XOffset=0mm|YOffset=0mm|HoleType=Round|Shape=RoundedRectangle|*
%AMROUNDEDRECTD80*
21,1,1.6000,0.8000,0,0,0.0*
21,1,0.8000,1.6000,0,0,0.0*
1,1,0.8000,0.4000,-0.4000*
1,1,0.8000,-0.4000,-0.4000*
1,1,0.8000,-0.4000,0.4000*
1,1,0.8000,0.4000,0.4000*
%
%ADD80ROUNDEDRECTD80*%
%ADD81C,1.6970*%
%ADD82C,3.2000*%
%ADD83C,1.0000*%
%ADD84C,1.2700*%
G36*
X937066Y991930D02*
X933569Y987836D01*
X930384Y982638D01*
X928051Y977006D01*
X926627Y971078D01*
X926149Y965000D01*
X926627Y958922D01*
X928051Y952994D01*
X930384Y947362D01*
X933569Y942164D01*
X937528Y937528D01*
X942164Y933569D01*
X947362Y930384D01*
X952994Y928051D01*
X958922Y926627D01*
X965000Y926149D01*
X971078Y926627D01*
X977006Y928051D01*
X982638Y930384D01*
X987836Y933569D01*
X992472Y937528D01*
X993008Y938157D01*
X994200Y937717D01*
Y62626D01*
X993008Y62186D01*
X992630Y62630D01*
X987967Y66612D01*
X982739Y69816D01*
X977075Y72162D01*
X971113Y73593D01*
X965000Y74074D01*
X958887Y73593D01*
X952925Y72162D01*
X947261Y69816D01*
X942033Y66612D01*
X937370Y62630D01*
X933388Y57967D01*
X930185Y52739D01*
X927838Y47075D01*
X926407Y41113D01*
X925926Y35000D01*
X926407Y28887D01*
X927838Y22925D01*
X930185Y17261D01*
X933388Y12033D01*
X937370Y7370D01*
X940379Y4801D01*
X939939Y3609D01*
X60061D01*
X59621Y4801D01*
X62630Y7370D01*
X66612Y12033D01*
X69816Y17261D01*
X72162Y22925D01*
X73593Y28887D01*
X74074Y35000D01*
X73593Y41113D01*
X72162Y47075D01*
X69816Y52739D01*
X66612Y57967D01*
X62630Y62630D01*
X57967Y66612D01*
X52739Y69816D01*
X47075Y72162D01*
X41113Y73593D01*
X35000Y74074D01*
X28887Y73593D01*
X22925Y72162D01*
X17261Y69816D01*
X12033Y66612D01*
X7370Y62630D01*
X5391Y60313D01*
X4200Y60752D01*
Y940723D01*
X5391Y941163D01*
X8050Y938050D01*
X12598Y934166D01*
X17697Y931041D01*
X23222Y928752D01*
X29038Y927356D01*
X35000Y926887D01*
X40962Y927356D01*
X46778Y928752D01*
X52303Y931041D01*
X57402Y934166D01*
X61950Y938050D01*
X65834Y942598D01*
X68959Y947697D01*
X71248Y953222D01*
X72644Y959038D01*
X73113Y965000D01*
X72644Y970962D01*
X71248Y976778D01*
X68959Y982303D01*
X65834Y987402D01*
X61967Y991930D01*
X62004Y992340D01*
X62321Y993200D01*
X309200D01*
Y943200D01*
X689200D01*
Y993200D01*
X936480D01*
X937066Y991930D01*
D02*
G37*
G36*
X48775Y992035D02*
X52835Y989547D01*
X56455Y986455D01*
X59547Y982835D01*
X62035Y978775D01*
X63857Y974376D01*
X64969Y969746D01*
X65342Y965000D01*
X64969Y960254D01*
X63857Y955624D01*
X62035Y951225D01*
X59547Y947165D01*
X56455Y943545D01*
X52835Y940453D01*
X48775Y937965D01*
X44376Y936143D01*
X39747Y935032D01*
X35000Y934658D01*
X30254Y935032D01*
X25624Y936143D01*
X21225Y937965D01*
X17165Y940453D01*
X13545Y943545D01*
X10453Y947165D01*
X7965Y951225D01*
X6143Y955624D01*
X5031Y960254D01*
X4658Y965000D01*
X5031Y969746D01*
X6143Y974376D01*
X7965Y978775D01*
X10453Y982835D01*
X13545Y986455D01*
X17165Y989547D01*
X21225Y992035D01*
X24038Y993200D01*
X45962D01*
X48775Y992035D01*
D02*
G37*
G36*
X979110Y992692D02*
X983268Y990144D01*
X986977Y986977D01*
X990144Y983268D01*
X992692Y979110D01*
X994200Y975471D01*
Y954529D01*
X992692Y950890D01*
X990144Y946732D01*
X986977Y943023D01*
X983268Y939856D01*
X979110Y937308D01*
X974604Y935441D01*
X969862Y934303D01*
X965000Y933920D01*
X960138Y934303D01*
X955396Y935441D01*
X950890Y937308D01*
X946732Y939856D01*
X943023Y943023D01*
X939856Y946732D01*
X937308Y950890D01*
X935441Y955396D01*
X934303Y960138D01*
X933920Y965000D01*
X934303Y969862D01*
X935441Y974604D01*
X937308Y979110D01*
X939856Y983268D01*
X943023Y986977D01*
X946732Y990144D01*
X950890Y992692D01*
X952115Y993200D01*
X977885D01*
X979110Y992692D01*
D02*
G37*
G36*
X969897Y65918D02*
X974673Y64771D01*
X979211Y62892D01*
X983400Y60325D01*
X987135Y57135D01*
X990325Y53400D01*
X992891Y49211D01*
X994200Y46052D01*
Y23948D01*
X992891Y20789D01*
X990325Y16600D01*
X987135Y12865D01*
X983400Y9675D01*
X979211Y7109D01*
X974673Y5229D01*
X969897Y4082D01*
X965000Y3697D01*
X960103Y4082D01*
X955327Y5229D01*
X950789Y7109D01*
X946600Y9675D01*
X942865Y12865D01*
X939675Y16600D01*
X937109Y20789D01*
X935229Y25327D01*
X934082Y30103D01*
X933697Y35000D01*
X934082Y39897D01*
X935229Y44673D01*
X937109Y49211D01*
X939675Y53400D01*
X942865Y57135D01*
X946600Y60325D01*
X950789Y62892D01*
X955327Y64771D01*
X960103Y65918D01*
X965000Y66303D01*
X969897Y65918D01*
D02*
G37*
G36*
X39897D02*
X44673Y64771D01*
X49211Y62892D01*
X53400Y60325D01*
X57135Y57135D01*
X60325Y53400D01*
X62892Y49211D01*
X64771Y44673D01*
X65918Y39897D01*
X66303Y35000D01*
X65918Y30103D01*
X64771Y25327D01*
X62892Y20789D01*
X60325Y16600D01*
X57135Y12865D01*
X53400Y9675D01*
X49211Y7109D01*
X44673Y5229D01*
X39897Y4082D01*
X35000Y3697D01*
X30103Y4082D01*
X25327Y5229D01*
X20789Y7109D01*
X16600Y9675D01*
X12865Y12865D01*
X9675Y16600D01*
X7109Y20789D01*
X5229Y25327D01*
X4200Y29612D01*
Y40388D01*
X5229Y44673D01*
X7109Y49211D01*
X9675Y53400D01*
X12865Y57135D01*
X16600Y60325D01*
X20789Y62892D01*
X25327Y64771D01*
X30103Y65918D01*
X35000Y66303D01*
X39897Y65918D01*
D02*
G37*
%LPC*%
G36*
X185621Y965590D02*
X182780D01*
X180035Y964855D01*
X177575Y963434D01*
X175566Y961425D01*
X174145Y958965D01*
X173410Y956220D01*
Y953379D01*
X174145Y950635D01*
X175566Y948175D01*
X177575Y946166D01*
X180035Y944745D01*
X182780Y944010D01*
X185621D01*
X188365Y944745D01*
X190825Y946166D01*
X192834Y948175D01*
X194255Y950635D01*
X194990Y953379D01*
Y956220D01*
X194255Y958965D01*
X192834Y961425D01*
X190825Y963434D01*
X188365Y964855D01*
X185621Y965590D01*
D02*
G37*
G36*
X160221D02*
X157380D01*
X154635Y964855D01*
X152175Y963434D01*
X150166Y961425D01*
X148745Y958965D01*
X148010Y956220D01*
Y953379D01*
X148745Y950635D01*
X150166Y948175D01*
X152175Y946166D01*
X154635Y944745D01*
X157380Y944010D01*
X160221D01*
X162965Y944745D01*
X165425Y946166D01*
X167434Y948175D01*
X168855Y950635D01*
X169590Y953379D01*
Y956220D01*
X168855Y958965D01*
X167434Y961425D01*
X165425Y963434D01*
X162965Y964855D01*
X160221Y965590D01*
D02*
G37*
G36*
X185120Y929090D02*
X182279D01*
X179535Y928355D01*
X177075Y926934D01*
X175066Y924925D01*
X173645Y922465D01*
X172910Y919721D01*
Y916880D01*
X173645Y914135D01*
X175066Y911675D01*
X177075Y909666D01*
X179535Y908245D01*
X182279Y907510D01*
X185120D01*
X187864Y908245D01*
X190325Y909666D01*
X192334Y911675D01*
X193755Y914135D01*
X194490Y916880D01*
Y919721D01*
X193755Y922465D01*
X192334Y924925D01*
X190325Y926934D01*
X187864Y928355D01*
X185120Y929090D01*
D02*
G37*
G36*
X159720D02*
X156879D01*
X154135Y928355D01*
X151675Y926934D01*
X149666Y924925D01*
X148245Y922465D01*
X147510Y919721D01*
Y916880D01*
X148245Y914135D01*
X149666Y911675D01*
X151675Y909666D01*
X154135Y908245D01*
X156879Y907510D01*
X159720D01*
X162465Y908245D01*
X164925Y909666D01*
X166934Y911675D01*
X168354Y914135D01*
X169090Y916880D01*
Y919721D01*
X168354Y922465D01*
X166934Y924925D01*
X164925Y926934D01*
X162465Y928355D01*
X159720Y929090D01*
D02*
G37*
G36*
X214122Y863340D02*
X211478D01*
X208925Y862656D01*
X206635Y861334D01*
X204766Y859465D01*
X203444Y857175D01*
X202760Y854622D01*
Y851978D01*
X203444Y849425D01*
X204766Y847135D01*
X206635Y845266D01*
X208925Y843944D01*
X211478Y843260D01*
X214122D01*
X216675Y843944D01*
X218965Y845266D01*
X220834Y847135D01*
X222156Y849425D01*
X222840Y851978D01*
Y854622D01*
X222156Y857175D01*
X220834Y859465D01*
X218965Y861334D01*
X216675Y862656D01*
X214122Y863340D01*
D02*
G37*
G36*
X146640D02*
X126560D01*
Y843260D01*
X146640D01*
Y863340D01*
D02*
G37*
G36*
X323056Y852240D02*
X320544D01*
X318118Y851590D01*
X315942Y850334D01*
X314166Y848558D01*
X312910Y846382D01*
X312260Y843956D01*
Y841444D01*
X312910Y839018D01*
X314166Y836842D01*
X315942Y835066D01*
X318118Y833810D01*
X320544Y833160D01*
X323056D01*
X325482Y833810D01*
X327658Y835066D01*
X329434Y836842D01*
X330690Y839018D01*
X331340Y841444D01*
Y843956D01*
X330690Y846382D01*
X329434Y848558D01*
X327658Y850334D01*
X325482Y851590D01*
X323056Y852240D01*
D02*
G37*
G36*
X259756Y851540D02*
X257244D01*
X254818Y850890D01*
X252642Y849634D01*
X250866Y847858D01*
X249610Y845682D01*
X248960Y843256D01*
Y840744D01*
X249610Y838318D01*
X250866Y836142D01*
X252642Y834366D01*
X254818Y833110D01*
X257244Y832460D01*
X259756D01*
X262183Y833110D01*
X264358Y834366D01*
X266134Y836142D01*
X267390Y838318D01*
X268040Y840744D01*
Y843256D01*
X267390Y845682D01*
X266134Y847858D01*
X264358Y849634D01*
X262183Y850890D01*
X259756Y851540D01*
D02*
G37*
G36*
X437688Y840640D02*
X437570D01*
Y831370D01*
X446840D01*
Y831488D01*
X446122Y834168D01*
X444734Y836572D01*
X442772Y838534D01*
X440368Y839922D01*
X437688Y840640D01*
D02*
G37*
G36*
X435030D02*
X434913D01*
X432232Y839922D01*
X429828Y838534D01*
X427866Y836572D01*
X426479Y834168D01*
X425760Y831488D01*
Y831370D01*
X435030D01*
Y840640D01*
D02*
G37*
G36*
X796288Y829340D02*
X796170D01*
Y820070D01*
X805440D01*
Y820188D01*
X804722Y822868D01*
X803334Y825272D01*
X801372Y827234D01*
X798968Y828622D01*
X796288Y829340D01*
D02*
G37*
G36*
X793630D02*
X793512D01*
X790832Y828622D01*
X788428Y827234D01*
X786466Y825272D01*
X785078Y822868D01*
X784360Y820188D01*
Y820070D01*
X793630D01*
Y829340D01*
D02*
G37*
G36*
X446840Y828830D02*
X437570D01*
Y819560D01*
X437688D01*
X440368Y820278D01*
X442772Y821666D01*
X444734Y823628D01*
X446122Y826032D01*
X446840Y828712D01*
Y828830D01*
D02*
G37*
G36*
X435030D02*
X425760D01*
Y828712D01*
X426479Y826032D01*
X427866Y823628D01*
X429828Y821666D01*
X432232Y820278D01*
X434913Y819560D01*
X435030D01*
Y828830D01*
D02*
G37*
G36*
X214122Y837940D02*
X211478D01*
X208925Y837256D01*
X206635Y835934D01*
X204766Y834065D01*
X203444Y831775D01*
X202760Y829222D01*
Y826578D01*
X203444Y824025D01*
X204766Y821735D01*
X206635Y819866D01*
X208925Y818544D01*
X211478Y817860D01*
X214122D01*
X216675Y818544D01*
X218965Y819866D01*
X220834Y821735D01*
X222156Y824025D01*
X222840Y826578D01*
Y829222D01*
X222156Y831775D01*
X220834Y834065D01*
X218965Y835934D01*
X216675Y837256D01*
X214122Y837940D01*
D02*
G37*
G36*
X137922D02*
X135278D01*
X132725Y837256D01*
X130435Y835934D01*
X128566Y834065D01*
X127244Y831775D01*
X126560Y829222D01*
Y826578D01*
X127244Y824025D01*
X128566Y821735D01*
X130435Y819866D01*
X132725Y818544D01*
X135278Y817860D01*
X137922D01*
X140475Y818544D01*
X142765Y819866D01*
X144634Y821735D01*
X145956Y824025D01*
X146640Y826578D01*
Y829222D01*
X145956Y831775D01*
X144634Y834065D01*
X142765Y835934D01*
X140475Y837256D01*
X137922Y837940D01*
D02*
G37*
G36*
X805440Y817530D02*
X796170D01*
Y808260D01*
X796288D01*
X798968Y808978D01*
X801372Y810366D01*
X803334Y812328D01*
X804722Y814732D01*
X805440Y817412D01*
Y817530D01*
D02*
G37*
G36*
X793630D02*
X784360D01*
Y817412D01*
X785078Y814732D01*
X786466Y812328D01*
X788428Y810366D01*
X790832Y808978D01*
X793512Y808260D01*
X793630D01*
Y817530D01*
D02*
G37*
G36*
X773500Y829397D02*
X765500D01*
X763793Y829172D01*
X762202Y828513D01*
X760836Y827464D01*
X759787Y826098D01*
X759128Y824507D01*
X758904Y822800D01*
Y814800D01*
X759128Y813093D01*
X759787Y811502D01*
X760836Y810136D01*
X762202Y809087D01*
X763793Y808428D01*
X765500Y808204D01*
X773500D01*
X775207Y808428D01*
X776798Y809087D01*
X778164Y810136D01*
X779213Y811502D01*
X779872Y813093D01*
X780096Y814800D01*
Y822800D01*
X779872Y824507D01*
X779213Y826098D01*
X778164Y827464D01*
X776798Y828513D01*
X775207Y829172D01*
X773500Y829397D01*
D02*
G37*
G36*
X323056Y826840D02*
X320544D01*
X318118Y826190D01*
X315942Y824934D01*
X314166Y823158D01*
X312910Y820982D01*
X312260Y818556D01*
Y816044D01*
X312910Y813618D01*
X314166Y811442D01*
X315942Y809666D01*
X318118Y808410D01*
X320544Y807760D01*
X323056D01*
X325482Y808410D01*
X327658Y809666D01*
X329434Y811442D01*
X330690Y813618D01*
X331340Y816044D01*
Y818556D01*
X330690Y820982D01*
X329434Y823158D01*
X327658Y824934D01*
X325482Y826190D01*
X323056Y826840D01*
D02*
G37*
G36*
X259756Y826140D02*
X257244D01*
X254818Y825490D01*
X252642Y824234D01*
X250866Y822458D01*
X249610Y820282D01*
X248960Y817856D01*
Y815344D01*
X249610Y812918D01*
X250866Y810742D01*
X252642Y808966D01*
X254818Y807710D01*
X257244Y807060D01*
X259756D01*
X262183Y807710D01*
X264358Y808966D01*
X266134Y810742D01*
X267390Y812918D01*
X268040Y815344D01*
Y817856D01*
X267390Y820282D01*
X266134Y822458D01*
X264358Y824234D01*
X262183Y825490D01*
X259756Y826140D01*
D02*
G37*
G36*
X440300Y815296D02*
X432300D01*
X430593Y815072D01*
X429002Y814413D01*
X427636Y813364D01*
X426587Y811998D01*
X425929Y810407D01*
X425704Y808700D01*
Y800700D01*
X425929Y798993D01*
X426587Y797402D01*
X427636Y796036D01*
X429002Y794987D01*
X430593Y794328D01*
X432300Y794104D01*
X440300D01*
X442007Y794328D01*
X443598Y794987D01*
X444965Y796036D01*
X446013Y797402D01*
X446672Y798993D01*
X446897Y800700D01*
Y808700D01*
X446672Y810407D01*
X446013Y811998D01*
X444965Y813364D01*
X443598Y814413D01*
X442007Y815072D01*
X440300Y815296D01*
D02*
G37*
G36*
X214122Y812540D02*
X211478D01*
X208925Y811856D01*
X206635Y810534D01*
X204766Y808665D01*
X203444Y806375D01*
X202760Y803822D01*
Y801178D01*
X203444Y798625D01*
X204766Y796335D01*
X206635Y794466D01*
X208925Y793144D01*
X211478Y792460D01*
X214122D01*
X216675Y793144D01*
X218965Y794466D01*
X220834Y796335D01*
X222156Y798625D01*
X222840Y801178D01*
Y803822D01*
X222156Y806375D01*
X220834Y808665D01*
X218965Y810534D01*
X216675Y811856D01*
X214122Y812540D01*
D02*
G37*
G36*
X137922D02*
X135278D01*
X132725Y811856D01*
X130435Y810534D01*
X128566Y808665D01*
X127244Y806375D01*
X126560Y803822D01*
Y801178D01*
X127244Y798625D01*
X128566Y796335D01*
X130435Y794466D01*
X132725Y793144D01*
X135278Y792460D01*
X137922D01*
X140475Y793144D01*
X142765Y794466D01*
X144634Y796335D01*
X145956Y798625D01*
X146640Y801178D01*
Y803822D01*
X145956Y806375D01*
X144634Y808665D01*
X142765Y810534D01*
X140475Y811856D01*
X137922Y812540D01*
D02*
G37*
G36*
X214122Y787140D02*
X211478D01*
X208925Y786456D01*
X206635Y785134D01*
X204766Y783265D01*
X203444Y780975D01*
X202760Y778422D01*
Y775778D01*
X203444Y773225D01*
X204766Y770935D01*
X204965Y770736D01*
X204479Y769563D01*
X149631D01*
X145959Y773235D01*
X146640Y775778D01*
Y778422D01*
X145956Y780975D01*
X144634Y783265D01*
X142765Y785134D01*
X140475Y786456D01*
X137922Y787140D01*
X135278D01*
X132725Y786456D01*
X130435Y785134D01*
X128566Y783265D01*
X127244Y780975D01*
X126560Y778422D01*
Y775778D01*
X127244Y773225D01*
X128566Y770935D01*
X130435Y769066D01*
X132725Y767744D01*
X135278Y767060D01*
X137922D01*
X140465Y767741D01*
X145275Y762931D01*
X146535Y762089D01*
X148022Y761793D01*
X207662D01*
X208003Y760523D01*
X206635Y759734D01*
X204766Y757865D01*
X203444Y755575D01*
X202760Y753022D01*
Y750378D01*
X203442Y747835D01*
X198621Y743015D01*
X197779Y741754D01*
X197483Y740268D01*
Y568320D01*
X197779Y566833D01*
X198621Y565573D01*
X205733Y558461D01*
X206521Y557934D01*
X206628Y556627D01*
X206618Y556577D01*
X206583Y556482D01*
X204766Y554665D01*
X203444Y552375D01*
X202760Y549822D01*
Y547178D01*
X203444Y544625D01*
X204766Y542335D01*
X206635Y540466D01*
X208925Y539144D01*
X211478Y538460D01*
X214122D01*
X216675Y539144D01*
X218965Y540466D01*
X220834Y542335D01*
X222156Y544625D01*
X222840Y547178D01*
Y549822D01*
X222156Y552375D01*
X220834Y554665D01*
X219445Y556053D01*
X219971Y557323D01*
X280783D01*
X392110Y445996D01*
Y435910D01*
X392273D01*
X393006Y434640D01*
X392641Y434007D01*
X392175Y432270D01*
X399900D01*
X407625D01*
X407159Y434007D01*
X406794Y434640D01*
X407527Y435910D01*
X407690D01*
Y451490D01*
X397604D01*
X285139Y563955D01*
X283879Y564797D01*
X282392Y565093D01*
X219988D01*
X219461Y566363D01*
X220834Y567735D01*
X222150Y570015D01*
X332101D01*
X472687Y429429D01*
X473947Y428587D01*
X475434Y428291D01*
X585077D01*
X587881Y425487D01*
Y189455D01*
X584526Y186100D01*
X582770Y186570D01*
X580429D01*
X578168Y185964D01*
X576141Y184794D01*
X574486Y183139D01*
X573316Y181112D01*
X572710Y178851D01*
Y176510D01*
X573316Y174249D01*
X574486Y172222D01*
X576141Y170566D01*
X578168Y169396D01*
X580429Y168790D01*
X582770D01*
X585031Y169396D01*
X587058Y170566D01*
X588714Y172222D01*
X589884Y174249D01*
X590490Y176510D01*
Y178851D01*
X590019Y180606D01*
X594513Y185099D01*
X595355Y186360D01*
X595651Y187846D01*
Y427096D01*
X595355Y428583D01*
X594513Y429843D01*
X589433Y434923D01*
X588173Y435765D01*
X586686Y436061D01*
X477043D01*
X336457Y576647D01*
X335197Y577489D01*
X333710Y577785D01*
X222150D01*
X220834Y580065D01*
X218965Y581934D01*
X216675Y583256D01*
X214122Y583940D01*
X211478D01*
X208925Y583256D01*
X206635Y581934D01*
X206426Y581725D01*
X205253Y582211D01*
Y590989D01*
X206426Y591475D01*
X206635Y591266D01*
X208925Y589944D01*
X211478Y589260D01*
X214122D01*
X216675Y589944D01*
X218965Y591266D01*
X220834Y593135D01*
X222150Y595415D01*
X355723D01*
X496224Y454914D01*
X495754Y453158D01*
Y450818D01*
X496360Y448557D01*
X497530Y446529D01*
X499185Y444874D01*
X501213Y443704D01*
X503474Y443098D01*
X505814D01*
X508075Y443704D01*
X510103Y444874D01*
X511758Y446529D01*
X512928Y448557D01*
X513534Y450818D01*
Y453158D01*
X512928Y455419D01*
X511758Y457447D01*
X510103Y459102D01*
X508075Y460272D01*
X505814Y460878D01*
X503474D01*
X501718Y460408D01*
X360079Y602047D01*
X358819Y602889D01*
X357332Y603185D01*
X222150D01*
X220834Y605465D01*
X218965Y607334D01*
X216675Y608656D01*
X214122Y609340D01*
X211478D01*
X208925Y608656D01*
X206635Y607334D01*
X206426Y607124D01*
X205253Y607611D01*
Y616389D01*
X206426Y616875D01*
X206635Y616666D01*
X208925Y615344D01*
X211478Y614660D01*
X214122D01*
X216675Y615344D01*
X218965Y616666D01*
X220834Y618535D01*
X222156Y620825D01*
X222840Y623378D01*
Y626022D01*
X222156Y628575D01*
X220834Y630865D01*
X218965Y632734D01*
X216675Y634056D01*
X214122Y634740D01*
X211478D01*
X208925Y634056D01*
X206635Y632734D01*
X206426Y632524D01*
X205253Y633010D01*
Y641789D01*
X206426Y642275D01*
X206635Y642066D01*
X208925Y640744D01*
X211478Y640060D01*
X214122D01*
X216675Y640744D01*
X218965Y642066D01*
X220834Y643935D01*
X222156Y646225D01*
X222840Y648778D01*
Y651422D01*
X222156Y653975D01*
X220834Y656265D01*
X218965Y658134D01*
X216675Y659456D01*
X214122Y660140D01*
X211478D01*
X208925Y659456D01*
X206635Y658134D01*
X206426Y657924D01*
X205253Y658410D01*
Y667189D01*
X206426Y667675D01*
X206635Y667466D01*
X208925Y666144D01*
X211478Y665460D01*
X214122D01*
X216675Y666144D01*
X218965Y667466D01*
X220834Y669335D01*
X222156Y671625D01*
X222840Y674178D01*
Y676822D01*
X222156Y679375D01*
X220834Y681665D01*
X218965Y683534D01*
X216675Y684856D01*
X214122Y685540D01*
X211478D01*
X208925Y684856D01*
X206635Y683534D01*
X206426Y683325D01*
X205253Y683811D01*
Y692589D01*
X206426Y693075D01*
X206635Y692866D01*
X208925Y691544D01*
X211478Y690860D01*
X211530D01*
Y700900D01*
Y710940D01*
X211478D01*
X208925Y710256D01*
X206635Y708934D01*
X206426Y708725D01*
X205253Y709211D01*
Y717989D01*
X206426Y718475D01*
X206635Y718266D01*
X208925Y716944D01*
X211478Y716260D01*
X214122D01*
X216675Y716944D01*
X218965Y718266D01*
X220834Y720135D01*
X222156Y722425D01*
X222840Y724978D01*
Y727622D01*
X222156Y730175D01*
X220834Y732465D01*
X218965Y734334D01*
X216675Y735656D01*
X214122Y736340D01*
X211478D01*
X208925Y735656D01*
X206635Y734334D01*
X206426Y734125D01*
X205253Y734611D01*
Y738659D01*
X208935Y742341D01*
X211478Y741660D01*
X214122D01*
X216675Y742344D01*
X218965Y743666D01*
X220834Y745535D01*
X222156Y747825D01*
X222840Y750378D01*
Y753022D01*
X222156Y755575D01*
X220834Y757865D01*
X218965Y759734D01*
X217597Y760523D01*
X217938Y761793D01*
X291961D01*
X571437Y482317D01*
X572697Y481475D01*
X574184Y481179D01*
X706878D01*
X707786Y479605D01*
X709442Y477950D01*
X711469Y476780D01*
X713730Y476174D01*
X716070D01*
X718332Y476780D01*
X720359Y477950D01*
X722014Y479605D01*
X723184Y481632D01*
X723790Y483894D01*
Y486234D01*
X723184Y488495D01*
X722014Y490522D01*
X720359Y492178D01*
X718332Y493348D01*
X716070Y493954D01*
X713730D01*
X711469Y493348D01*
X709442Y492178D01*
X707786Y490522D01*
X706878Y488949D01*
X575793D01*
X296317Y768425D01*
X295057Y769267D01*
X293570Y769563D01*
X221121D01*
X220635Y770736D01*
X220834Y770935D01*
X222156Y773225D01*
X222840Y775778D01*
Y778422D01*
X222156Y780975D01*
X220834Y783265D01*
X218965Y785134D01*
X216675Y786456D01*
X214122Y787140D01*
D02*
G37*
G36*
X137922Y761740D02*
X135278D01*
X132725Y761056D01*
X130435Y759734D01*
X128566Y757865D01*
X127244Y755575D01*
X126560Y753022D01*
Y750378D01*
X127244Y747825D01*
X128566Y745535D01*
X130435Y743666D01*
X132725Y742344D01*
X135278Y741660D01*
X137922D01*
X140475Y742344D01*
X142765Y743666D01*
X144634Y745535D01*
X145956Y747825D01*
X146640Y750378D01*
Y753022D01*
X145956Y755575D01*
X144634Y757865D01*
X142765Y759734D01*
X140475Y761056D01*
X137922Y761740D01*
D02*
G37*
G36*
Y736340D02*
X135278D01*
X132725Y735656D01*
X130435Y734334D01*
X128566Y732465D01*
X127244Y730175D01*
X126560Y727622D01*
Y724978D01*
X127241Y722435D01*
X90893Y686087D01*
X90051Y684826D01*
X89755Y683340D01*
Y545662D01*
X88181Y544754D01*
X86526Y543098D01*
X85356Y541071D01*
X84750Y538810D01*
Y536469D01*
X85356Y534208D01*
X86526Y532181D01*
X88181Y530526D01*
X90209Y529356D01*
X92470Y528750D01*
X94810D01*
X97071Y529356D01*
X99099Y530526D01*
X100754Y532181D01*
X101924Y534208D01*
X102530Y536469D01*
Y538810D01*
X101924Y541071D01*
X100754Y543098D01*
X99099Y544754D01*
X97525Y545662D01*
Y681731D01*
X132735Y716941D01*
X135278Y716260D01*
X137922D01*
X140475Y716944D01*
X142765Y718266D01*
X144634Y720135D01*
X145956Y722425D01*
X146640Y724978D01*
Y727622D01*
X145956Y730175D01*
X144634Y732465D01*
X142765Y734334D01*
X140475Y735656D01*
X137922Y736340D01*
D02*
G37*
G36*
X214122Y710940D02*
X214070D01*
Y702170D01*
X222840D01*
Y702222D01*
X222156Y704775D01*
X220834Y707065D01*
X218965Y708934D01*
X216675Y710256D01*
X214122Y710940D01*
D02*
G37*
G36*
X222840Y699630D02*
X214070D01*
Y690860D01*
X214122D01*
X216675Y691544D01*
X218965Y692866D01*
X220834Y694735D01*
X222156Y697025D01*
X222840Y699578D01*
Y699630D01*
D02*
G37*
G36*
X137922Y710940D02*
X135278D01*
X132725Y710256D01*
X130435Y708934D01*
X128566Y707065D01*
X127244Y704775D01*
X126560Y702222D01*
Y699578D01*
X127244Y697025D01*
X128566Y694735D01*
X130435Y692866D01*
X132725Y691544D01*
X135278Y690860D01*
X137922D01*
X140475Y691544D01*
X142765Y692866D01*
X144634Y694735D01*
X145956Y697025D01*
X146640Y699578D01*
Y702222D01*
X145956Y704775D01*
X144634Y707065D01*
X142765Y708934D01*
X140475Y710256D01*
X137922Y710940D01*
D02*
G37*
G36*
Y685540D02*
X137870D01*
Y676770D01*
X146640D01*
Y676822D01*
X145956Y679375D01*
X144634Y681665D01*
X142765Y683534D01*
X140475Y684856D01*
X137922Y685540D01*
D02*
G37*
G36*
X135330D02*
X135278D01*
X132725Y684856D01*
X130435Y683534D01*
X128566Y681665D01*
X127244Y679375D01*
X126560Y676822D01*
Y676770D01*
X135330D01*
Y685540D01*
D02*
G37*
G36*
X146640Y674230D02*
X137870D01*
Y665460D01*
X137922D01*
X140475Y666144D01*
X142765Y667466D01*
X144634Y669335D01*
X145956Y671625D01*
X146640Y674178D01*
Y674230D01*
D02*
G37*
G36*
X135330D02*
X126560D01*
Y674178D01*
X127244Y671625D01*
X128566Y669335D01*
X130435Y667466D01*
X132725Y666144D01*
X135278Y665460D01*
X135330D01*
Y674230D01*
D02*
G37*
G36*
X780300Y710740D02*
X700343D01*
X699352Y710543D01*
X698512Y709981D01*
X697951Y709141D01*
X697753Y708150D01*
Y645634D01*
X697951Y644643D01*
X698512Y643803D01*
X699352Y643242D01*
X700343Y643044D01*
X780300D01*
X781291Y643242D01*
X782131Y643803D01*
X782693Y644643D01*
X782890Y645634D01*
Y708150D01*
X782693Y709141D01*
X782131Y709981D01*
X781291Y710543D01*
X780300Y710740D01*
D02*
G37*
G36*
X85040Y660040D02*
X67960D01*
Y642960D01*
X85040D01*
Y660040D01*
D02*
G37*
G36*
X137922Y660140D02*
X135278D01*
X132725Y659456D01*
X130435Y658134D01*
X128566Y656265D01*
X127244Y653975D01*
X126560Y651422D01*
Y648778D01*
X127244Y646225D01*
X128566Y643935D01*
X130435Y642066D01*
X132725Y640744D01*
X135278Y640060D01*
X137922D01*
X140475Y640744D01*
X142765Y642066D01*
X144634Y643935D01*
X145956Y646225D01*
X146640Y648778D01*
Y651422D01*
X145956Y653975D01*
X144634Y656265D01*
X142765Y658134D01*
X140475Y659456D01*
X137922Y660140D01*
D02*
G37*
G36*
Y634740D02*
X135278D01*
X132725Y634056D01*
X130435Y632734D01*
X128566Y630865D01*
X127244Y628575D01*
X126560Y626022D01*
Y623378D01*
X127244Y620825D01*
X128566Y618535D01*
X130435Y616666D01*
X132725Y615344D01*
X135278Y614660D01*
X137922D01*
X140475Y615344D01*
X142765Y616666D01*
X144634Y618535D01*
X145956Y620825D01*
X146640Y623378D01*
Y626022D01*
X145956Y628575D01*
X144634Y630865D01*
X142765Y632734D01*
X140475Y634056D01*
X137922Y634740D01*
D02*
G37*
G36*
X778298Y609036D02*
Y602840D01*
X784493D01*
X784054Y604480D01*
X783061Y606200D01*
X781657Y607603D01*
X779938Y608596D01*
X778298Y609036D01*
D02*
G37*
G36*
X775758D02*
X774117Y608596D01*
X772398Y607603D01*
X770994Y606200D01*
X770001Y604480D01*
X769562Y602840D01*
X775758D01*
Y609036D01*
D02*
G37*
G36*
X77624Y611240D02*
X75376D01*
X73204Y610658D01*
X71256Y609534D01*
X69666Y607944D01*
X68542Y605996D01*
X67960Y603824D01*
Y601576D01*
X68542Y599404D01*
X69666Y597456D01*
X71256Y595866D01*
X73204Y594742D01*
X75376Y594160D01*
X77624D01*
X79796Y594742D01*
X81744Y595866D01*
X83334Y597456D01*
X84458Y599404D01*
X85040Y601576D01*
Y603824D01*
X84458Y605996D01*
X83334Y607944D01*
X81744Y609534D01*
X79796Y610658D01*
X77624Y611240D01*
D02*
G37*
G36*
X784493Y600300D02*
X769562D01*
X770001Y598660D01*
X770994Y596940D01*
X772398Y595536D01*
X774117Y594544D01*
X774366Y594477D01*
X775046Y592980D01*
X774795Y592041D01*
X789726D01*
X789287Y593681D01*
X788294Y595401D01*
X786890Y596805D01*
X785171Y597797D01*
X784922Y597864D01*
X784242Y599361D01*
X784493Y600300D01*
D02*
G37*
G36*
X137922Y609340D02*
X135278D01*
X132725Y608656D01*
X130435Y607334D01*
X128566Y605465D01*
X127244Y603175D01*
X126560Y600622D01*
Y597978D01*
X127244Y595425D01*
X128566Y593135D01*
X130435Y591266D01*
X132725Y589944D01*
X135278Y589260D01*
X137922D01*
X140475Y589944D01*
X142765Y591266D01*
X144634Y593135D01*
X145956Y595425D01*
X146640Y597978D01*
Y600622D01*
X145956Y603175D01*
X144634Y605465D01*
X142765Y607334D01*
X140475Y608656D01*
X137922Y609340D01*
D02*
G37*
G36*
X789726Y589501D02*
X774795D01*
X775234Y587861D01*
X776227Y586142D01*
X777597Y584771D01*
X776227Y583401D01*
X775234Y581682D01*
X774795Y580041D01*
X789726D01*
X789287Y581682D01*
X788294Y583401D01*
X786924Y584771D01*
X788294Y586142D01*
X789287Y587861D01*
X789726Y589501D01*
D02*
G37*
G36*
X750610Y581853D02*
Y575657D01*
X756805D01*
X756366Y577298D01*
X755373Y579017D01*
X753969Y580421D01*
X752250Y581413D01*
X750610Y581853D01*
D02*
G37*
G36*
X748070D02*
X746430Y581413D01*
X744710Y580421D01*
X743306Y579017D01*
X742314Y577298D01*
X741874Y575657D01*
X748070D01*
Y581853D01*
D02*
G37*
G36*
X789726Y577501D02*
X774795D01*
X775234Y575861D01*
X776227Y574142D01*
X776886Y573482D01*
X776801Y572833D01*
X775397Y571429D01*
X774404Y569710D01*
X773965Y568070D01*
X788896D01*
X788457Y569710D01*
X787464Y571429D01*
X786805Y572089D01*
X786890Y572738D01*
X788294Y574142D01*
X789287Y575861D01*
X789726Y577501D01*
D02*
G37*
G36*
X756805Y573117D02*
X741874D01*
X742314Y571477D01*
X743306Y569758D01*
X744710Y568354D01*
X746430Y567361D01*
X746459Y567353D01*
X747025Y565887D01*
X746698Y564670D01*
X761630D01*
X761190Y566310D01*
X760198Y568029D01*
X758794Y569433D01*
X757074Y570426D01*
X757045Y570434D01*
X756479Y571900D01*
X756805Y573117D01*
D02*
G37*
G36*
X137922Y583940D02*
X135278D01*
X132725Y583256D01*
X130435Y581934D01*
X128566Y580065D01*
X127244Y577775D01*
X126560Y575222D01*
Y572578D01*
X127244Y570025D01*
X128566Y567735D01*
X130435Y565866D01*
X132725Y564544D01*
X135278Y563860D01*
X137922D01*
X140475Y564544D01*
X142765Y565866D01*
X144634Y567735D01*
X145956Y570025D01*
X146640Y572578D01*
Y575222D01*
X145956Y577775D01*
X144634Y580065D01*
X142765Y581934D01*
X140475Y583256D01*
X137922Y583940D01*
D02*
G37*
G36*
X788896Y565530D02*
X773878D01*
X772977Y564310D01*
X771684Y563964D01*
X769964Y562971D01*
X768560Y561567D01*
X767568Y559848D01*
X767128Y558208D01*
X782147D01*
X783048Y559427D01*
X784341Y559774D01*
X786060Y560766D01*
X787464Y562170D01*
X788457Y563890D01*
X788896Y565530D01*
D02*
G37*
G36*
X761630Y562130D02*
X746698D01*
X747138Y560489D01*
X748131Y558770D01*
X749534Y557366D01*
X749996Y557100D01*
X750432Y555434D01*
X749980Y554652D01*
X749541Y553011D01*
X764472D01*
X764033Y554652D01*
X763040Y556371D01*
X761636Y557775D01*
X761175Y558041D01*
X760739Y559707D01*
X761190Y560489D01*
X761630Y562130D01*
D02*
G37*
G36*
X782059Y555668D02*
X767128D01*
X767568Y554027D01*
X768560Y552308D01*
X769931Y550938D01*
X768560Y549567D01*
X767568Y547848D01*
X767128Y546208D01*
X782059D01*
X781620Y547848D01*
X780627Y549567D01*
X779257Y550938D01*
X780627Y552308D01*
X781620Y554027D01*
X782059Y555668D01*
D02*
G37*
G36*
X764472Y550471D02*
X749541D01*
X749980Y548831D01*
X750973Y547112D01*
X752343Y545741D01*
X750973Y544371D01*
X749980Y542652D01*
X749541Y541011D01*
X764472D01*
X764033Y542652D01*
X763040Y544371D01*
X761670Y545741D01*
X763040Y547112D01*
X764033Y548831D01*
X764472Y550471D01*
D02*
G37*
G36*
X137922Y558540D02*
X135278D01*
X132725Y557856D01*
X130435Y556534D01*
X128566Y554665D01*
X127244Y552375D01*
X126560Y549822D01*
Y547178D01*
X127244Y544625D01*
X128566Y542335D01*
X130435Y540466D01*
X132725Y539144D01*
X135278Y538460D01*
X137922D01*
X140475Y539144D01*
X142765Y540466D01*
X144634Y542335D01*
X145956Y544625D01*
X146640Y547178D01*
Y549822D01*
X145956Y552375D01*
X144634Y554665D01*
X142765Y556534D01*
X140475Y557856D01*
X137922Y558540D01*
D02*
G37*
G36*
X782059Y543668D02*
X767128D01*
X767568Y542028D01*
X768560Y540308D01*
X769931Y538938D01*
X768560Y537567D01*
X767568Y535848D01*
X767128Y534208D01*
X782059D01*
X781620Y535848D01*
X780627Y537567D01*
X779257Y538938D01*
X780627Y540308D01*
X781620Y542028D01*
X782059Y543668D01*
D02*
G37*
G36*
X764472Y538471D02*
X749541D01*
X749980Y536831D01*
X750973Y535112D01*
X752343Y533741D01*
X750973Y532371D01*
X749980Y530652D01*
X749541Y529011D01*
X764472D01*
X764033Y530652D01*
X763040Y532371D01*
X761670Y533741D01*
X763040Y535112D01*
X764033Y536831D01*
X764472Y538471D01*
D02*
G37*
G36*
X782059Y531668D02*
X767128D01*
X767568Y530028D01*
X768560Y528308D01*
X769931Y526938D01*
X768560Y525568D01*
X767568Y523848D01*
X767128Y522208D01*
X782059D01*
X781620Y523848D01*
X780627Y525568D01*
X779257Y526938D01*
X780627Y528308D01*
X781620Y530028D01*
X782059Y531668D01*
D02*
G37*
G36*
X764472Y526471D02*
X749541D01*
X749980Y524831D01*
X750973Y523112D01*
X752343Y521741D01*
X750973Y520371D01*
X749980Y518652D01*
X749541Y517011D01*
X764472D01*
X764033Y518652D01*
X763040Y520371D01*
X761670Y521741D01*
X763040Y523112D01*
X764033Y524831D01*
X764472Y526471D01*
D02*
G37*
G36*
X968352Y524225D02*
X968170D01*
Y514470D01*
X977925D01*
Y514651D01*
X977174Y517455D01*
X975722Y519969D01*
X973670Y522022D01*
X971156Y523474D01*
X968352Y524225D01*
D02*
G37*
G36*
X918352D02*
X918170D01*
Y514470D01*
X927925D01*
Y514651D01*
X927174Y517455D01*
X925722Y519969D01*
X923670Y522022D01*
X921156Y523474D01*
X918352Y524225D01*
D02*
G37*
G36*
X965630D02*
X965449D01*
X962645Y523474D01*
X960131Y522022D01*
X958078Y519969D01*
X956627Y517455D01*
X955875Y514651D01*
Y514470D01*
X965630D01*
Y524225D01*
D02*
G37*
G36*
X915630D02*
X915449D01*
X912645Y523474D01*
X910131Y522022D01*
X908078Y519969D01*
X906627Y517455D01*
X905875Y514651D01*
Y514470D01*
X915630D01*
Y524225D01*
D02*
G37*
G36*
X664564Y531990D02*
X662224D01*
X659963Y531384D01*
X657935Y530214D01*
X656280Y528559D01*
X655110Y526531D01*
X654504Y524270D01*
Y521930D01*
X655110Y519669D01*
X656280Y517641D01*
X657935Y515986D01*
X659963Y514816D01*
X662224Y514210D01*
X664564D01*
X666825Y514816D01*
X668853Y515986D01*
X670508Y517641D01*
X671678Y519669D01*
X672284Y521930D01*
Y524270D01*
X671678Y526531D01*
X670508Y528559D01*
X668853Y530214D01*
X666825Y531384D01*
X664564Y531990D01*
D02*
G37*
G36*
X214122Y533140D02*
X211478D01*
X208925Y532456D01*
X206635Y531134D01*
X204766Y529265D01*
X203444Y526975D01*
X202760Y524422D01*
Y521778D01*
X203444Y519225D01*
X204766Y516935D01*
X206635Y515066D01*
X208925Y513744D01*
X211478Y513060D01*
X214122D01*
X216675Y513744D01*
X218965Y515066D01*
X220834Y516935D01*
X222156Y519225D01*
X222840Y521778D01*
Y524422D01*
X222156Y526975D01*
X220834Y529265D01*
X218965Y531134D01*
X216675Y532456D01*
X214122Y533140D01*
D02*
G37*
G36*
X137922D02*
X135278D01*
X132725Y532456D01*
X130435Y531134D01*
X128566Y529265D01*
X127244Y526975D01*
X126560Y524422D01*
Y521778D01*
X127244Y519225D01*
X128566Y516935D01*
X130435Y515066D01*
X132725Y513744D01*
X135278Y513060D01*
X137922D01*
X140475Y513744D01*
X142765Y515066D01*
X144634Y516935D01*
X145956Y519225D01*
X146640Y521778D01*
Y524422D01*
X145956Y526975D01*
X144634Y529265D01*
X142765Y531134D01*
X140475Y532456D01*
X137922Y533140D01*
D02*
G37*
G36*
X782059Y519668D02*
X767128D01*
X767568Y518027D01*
X768560Y516308D01*
X769931Y514938D01*
X768560Y513568D01*
X767568Y511848D01*
X767128Y510208D01*
X782059D01*
X781620Y511848D01*
X780627Y513568D01*
X779257Y514938D01*
X780627Y516308D01*
X781620Y518027D01*
X782059Y519668D01*
D02*
G37*
G36*
X851381Y509626D02*
X849741Y509186D01*
X848021Y508194D01*
X847068Y507240D01*
X845457Y507055D01*
X845323Y507189D01*
X843604Y508182D01*
X841963Y508621D01*
Y501155D01*
Y493690D01*
X843604Y494129D01*
X845323Y495122D01*
X846276Y496076D01*
X847887Y496261D01*
X848021Y496127D01*
X849741Y495134D01*
X851381Y494695D01*
Y502160D01*
Y509626D01*
D02*
G37*
G36*
X865327D02*
X863687Y509186D01*
X861967Y508194D01*
X860564Y506790D01*
X860259Y506262D01*
X858989D01*
X858684Y506790D01*
X857281Y508194D01*
X855561Y509186D01*
X853921Y509626D01*
Y502160D01*
Y494695D01*
X855561Y495134D01*
X857281Y496127D01*
X858684Y497531D01*
X858989Y498058D01*
X860259D01*
X860564Y497531D01*
X861967Y496127D01*
X863687Y495134D01*
X865327Y494695D01*
Y502160D01*
Y509626D01*
D02*
G37*
G36*
X795597Y511385D02*
Y505190D01*
X801793D01*
X801353Y506830D01*
X800361Y508549D01*
X798957Y509953D01*
X797238Y510946D01*
X795597Y511385D01*
D02*
G37*
G36*
X793057D02*
X791417Y510946D01*
X789698Y509953D01*
X788294Y508549D01*
X787301Y506830D01*
X786862Y505190D01*
X793057D01*
Y511385D01*
D02*
G37*
G36*
X764472Y514471D02*
X749541D01*
X749980Y512831D01*
X750973Y511112D01*
X751736Y510348D01*
X751664Y509796D01*
X750260Y508392D01*
X749267Y506673D01*
X748828Y505032D01*
X763759D01*
X763319Y506673D01*
X762327Y508392D01*
X761563Y509155D01*
X761636Y509708D01*
X763040Y511112D01*
X764033Y512831D01*
X764472Y514471D01*
D02*
G37*
G36*
X839423Y508621D02*
X837783Y508182D01*
X836064Y507189D01*
X834660Y505785D01*
X834056Y504739D01*
X832497Y504172D01*
X832242Y504320D01*
X830602Y504759D01*
Y497294D01*
Y489828D01*
X832242Y490267D01*
X833961Y491260D01*
X835365Y492664D01*
X835969Y493710D01*
X837527Y494277D01*
X837783Y494129D01*
X839423Y493690D01*
Y501155D01*
Y508621D01*
D02*
G37*
G36*
X946049Y509972D02*
Y503777D01*
X952245D01*
X951805Y505417D01*
X950813Y507136D01*
X949409Y508540D01*
X947690Y509533D01*
X946049Y509972D01*
D02*
G37*
G36*
X943509D02*
X941869Y509533D01*
X940150Y508540D01*
X938746Y507136D01*
X937753Y505417D01*
X937314Y503777D01*
X943509D01*
Y509972D01*
D02*
G37*
G36*
X867867Y509626D02*
Y503430D01*
X874063D01*
X873623Y505070D01*
X872631Y506790D01*
X871227Y508194D01*
X869508Y509186D01*
X867867Y509626D01*
D02*
G37*
G36*
X977925Y511930D02*
X968170D01*
Y502175D01*
X968352D01*
X971156Y502926D01*
X973670Y504378D01*
X975722Y506431D01*
X977174Y508945D01*
X977925Y511749D01*
Y511930D01*
D02*
G37*
G36*
X965630D02*
X955875D01*
Y511749D01*
X956627Y508945D01*
X958078Y506431D01*
X960131Y504378D01*
X962645Y502926D01*
X965449Y502175D01*
X965630D01*
Y511930D01*
D02*
G37*
G36*
X782059Y507668D02*
X775864D01*
Y501472D01*
X777504Y501912D01*
X779223Y502904D01*
X780627Y504308D01*
X781620Y506027D01*
X782059Y507668D01*
D02*
G37*
G36*
X773324D02*
X767128D01*
X767568Y506027D01*
X768560Y504308D01*
X769964Y502904D01*
X771684Y501912D01*
X773324Y501472D01*
Y507668D01*
D02*
G37*
G36*
X927925Y511930D02*
X916900D01*
X905875D01*
Y511749D01*
X906627Y508945D01*
X908078Y506431D01*
X909933Y504575D01*
X909985Y503670D01*
X909861Y503067D01*
X909170Y502668D01*
X907800Y501298D01*
X906429Y502668D01*
X904710Y503661D01*
X903070Y504100D01*
Y496635D01*
Y489169D01*
X904710Y489609D01*
X906429Y490601D01*
X907800Y491972D01*
X909170Y490601D01*
X910889Y489609D01*
X912530Y489169D01*
Y496635D01*
X915070D01*
Y489169D01*
X916710Y489609D01*
X918429Y490601D01*
X919800Y491972D01*
X921170Y490601D01*
X922889Y489609D01*
X924530Y489169D01*
Y496635D01*
X925800D01*
Y497905D01*
X933265D01*
X932826Y499545D01*
X931833Y501264D01*
X930429Y502668D01*
X928710Y503661D01*
X926792Y504175D01*
X925263D01*
X924687Y505395D01*
X925722Y506431D01*
X927174Y508945D01*
X927925Y511749D01*
Y511930D01*
D02*
G37*
G36*
X900530Y504100D02*
X898889Y503661D01*
X897170Y502668D01*
X895800Y501298D01*
X894429Y502668D01*
X892710Y503661D01*
X891070Y504100D01*
Y496635D01*
Y489169D01*
X892710Y489609D01*
X894429Y490601D01*
X895800Y491972D01*
X897170Y490601D01*
X898889Y489609D01*
X900530Y489169D01*
Y496635D01*
Y504100D01*
D02*
G37*
G36*
X828062Y504759D02*
X826421Y504320D01*
X824702Y503327D01*
X823298Y501923D01*
X822305Y500204D01*
X821866Y498564D01*
X828062D01*
Y504759D01*
D02*
G37*
G36*
X888530Y504100D02*
X886889Y503661D01*
X885170Y502668D01*
X883766Y501264D01*
X882774Y499545D01*
X882334Y497905D01*
X888530D01*
Y504100D01*
D02*
G37*
G36*
X801793Y502650D02*
X795597D01*
Y496454D01*
X797238Y496893D01*
X798957Y497886D01*
X800361Y499290D01*
X801353Y501009D01*
X801793Y502650D01*
D02*
G37*
G36*
X793057D02*
X786862D01*
X787301Y501009D01*
X788294Y499290D01*
X789698Y497886D01*
X791417Y496893D01*
X793057Y496454D01*
Y502650D01*
D02*
G37*
G36*
X952245Y501237D02*
X937314D01*
X937753Y499596D01*
X938153Y498905D01*
X938113Y498490D01*
X937605Y497313D01*
X935735Y496234D01*
X934475Y494974D01*
X933798Y495365D01*
X927070D01*
Y489169D01*
X928710Y489609D01*
X930429Y490601D01*
X930983Y491155D01*
X932121Y490497D01*
X931860Y489522D01*
Y486878D01*
X932544Y484324D01*
X933866Y482035D01*
X935735Y480166D01*
X938025Y478844D01*
X940578Y478160D01*
X943222D01*
X945775Y478844D01*
X948065Y480166D01*
X949301Y479606D01*
X949698Y478918D01*
X951102Y477515D01*
X952822Y476522D01*
X954462Y476082D01*
Y483548D01*
Y491014D01*
X952822Y490574D01*
X952717Y490514D01*
X951544Y491000D01*
X951256Y492075D01*
X949934Y494365D01*
X949143Y495156D01*
X949308Y496415D01*
X949409Y496473D01*
X950813Y497877D01*
X951805Y499596D01*
X952245Y501237D01*
D02*
G37*
G36*
X874063Y500890D02*
X867867D01*
Y494695D01*
X869508Y495134D01*
X871227Y496127D01*
X872631Y497531D01*
X873623Y499250D01*
X874063Y500890D01*
D02*
G37*
G36*
X763759Y502492D02*
X748828D01*
X749267Y500852D01*
X748876Y499907D01*
X748529Y499814D01*
X746810Y498821D01*
X745406Y497417D01*
X744413Y495698D01*
X743974Y494058D01*
X758905D01*
X758466Y495698D01*
X758857Y496643D01*
X759204Y496736D01*
X760923Y497729D01*
X762327Y499133D01*
X763319Y500852D01*
X763759Y502492D01*
D02*
G37*
G36*
X828062Y496024D02*
X821866D01*
X822305Y494383D01*
X823298Y492664D01*
X824702Y491260D01*
X826421Y490267D01*
X828062Y489828D01*
Y496024D01*
D02*
G37*
G36*
X888530Y495365D02*
X882334D01*
X882774Y493725D01*
X883766Y492005D01*
X885170Y490601D01*
X886889Y489609D01*
X888530Y489169D01*
Y495365D01*
D02*
G37*
G36*
X957002Y491014D02*
Y484818D01*
X963198D01*
X962758Y486458D01*
X961766Y488178D01*
X960362Y489582D01*
X958642Y490574D01*
X957002Y491014D01*
D02*
G37*
G36*
X923232Y487230D02*
X921592Y486791D01*
X919872Y485798D01*
X918502Y484428D01*
X917132Y485798D01*
X915412Y486791D01*
X913772Y487230D01*
Y479765D01*
X911232D01*
Y487230D01*
X909592Y486791D01*
X907872Y485798D01*
X906502Y484428D01*
X905132Y485798D01*
X903412Y486791D01*
X901772Y487230D01*
Y479765D01*
Y472299D01*
X903412Y472739D01*
X905132Y473731D01*
X906502Y475102D01*
X907872Y473731D01*
X909258Y472931D01*
X909561Y471877D01*
X909545Y471436D01*
X908078Y469970D01*
X906627Y467456D01*
X905875Y464651D01*
Y464470D01*
X916900D01*
X927925D01*
Y464651D01*
X927174Y467456D01*
X925722Y469970D01*
X924737Y470955D01*
X925263Y472225D01*
X925495D01*
X927412Y472739D01*
X929132Y473731D01*
X930536Y475135D01*
X931528Y476854D01*
X931968Y478495D01*
X924502D01*
Y479765D01*
X923232D01*
Y487230D01*
D02*
G37*
G36*
X899232D02*
X897592Y486791D01*
X895872Y485798D01*
X894502Y484428D01*
X893132Y485798D01*
X891412Y486791D01*
X889772Y487230D01*
Y479765D01*
Y472299D01*
X891412Y472739D01*
X893132Y473731D01*
X894502Y475102D01*
X895872Y473731D01*
X897592Y472739D01*
X899232Y472299D01*
Y479765D01*
Y487230D01*
D02*
G37*
G36*
X887232D02*
X885592Y486791D01*
X883872Y485798D01*
X882468Y484394D01*
X882037Y483647D01*
X881343Y483556D01*
X879624Y484549D01*
X877983Y484988D01*
Y477523D01*
X876713D01*
Y476253D01*
X869248D01*
X869687Y474612D01*
X870680Y472893D01*
X871652Y471921D01*
X871605Y471566D01*
X870201Y470162D01*
X869209Y468442D01*
X868769Y466802D01*
X883701D01*
X883261Y468442D01*
X882269Y470162D01*
X881296Y471134D01*
X881343Y471489D01*
X882747Y472893D01*
X883178Y473640D01*
X883872Y473731D01*
X885592Y472739D01*
X887232Y472299D01*
Y479765D01*
Y487230D01*
D02*
G37*
G36*
X826760Y487172D02*
X825120Y486732D01*
X823400Y485740D01*
X821996Y484336D01*
X821426Y483348D01*
X819844Y482794D01*
X819547Y482966D01*
X817906Y483405D01*
Y475940D01*
Y468474D01*
X819547Y468913D01*
X821266Y469906D01*
X822670Y471310D01*
X823241Y472298D01*
X824823Y472852D01*
X825120Y472680D01*
X826760Y472241D01*
Y479706D01*
Y487172D01*
D02*
G37*
G36*
X803387Y484108D02*
X801747Y483669D01*
X800027Y482676D01*
X798624Y481272D01*
X798622Y481269D01*
X798230Y481218D01*
X797144Y481249D01*
X795670Y482100D01*
X794030Y482539D01*
Y475074D01*
Y467608D01*
X795670Y468047D01*
X797390Y469040D01*
X798793Y470444D01*
X798795Y470447D01*
X799187Y470498D01*
X800273Y470467D01*
X801747Y469616D01*
X803387Y469177D01*
Y476642D01*
Y484108D01*
D02*
G37*
G36*
X925772Y487230D02*
Y481035D01*
X931968D01*
X931528Y482675D01*
X930536Y484394D01*
X929132Y485798D01*
X927412Y486791D01*
X925772Y487230D01*
D02*
G37*
G36*
X829300Y487172D02*
Y480976D01*
X835496D01*
X835056Y482617D01*
X834063Y484336D01*
X832660Y485740D01*
X830940Y486732D01*
X829300Y487172D01*
D02*
G37*
G36*
X772873Y482721D02*
X771233Y482282D01*
X769513Y481289D01*
X768110Y479885D01*
X767979Y479868D01*
X766775Y481073D01*
X765055Y482066D01*
X763415Y482505D01*
Y475039D01*
Y467574D01*
X765055Y468013D01*
X766775Y469006D01*
X768178Y470410D01*
X768309Y470427D01*
X769513Y469222D01*
X771233Y468230D01*
X772873Y467790D01*
Y475256D01*
Y482721D01*
D02*
G37*
G36*
X875443Y484988D02*
X873803Y484549D01*
X872084Y483556D01*
X870680Y482152D01*
X869687Y480433D01*
X869248Y478793D01*
X875443D01*
Y484988D01*
D02*
G37*
G36*
X853147Y484505D02*
Y478309D01*
X859343D01*
X858903Y479950D01*
X857911Y481669D01*
X856507Y483073D01*
X854788Y484066D01*
X853147Y484505D01*
D02*
G37*
G36*
X850607D02*
X848967Y484066D01*
X847248Y483073D01*
X845844Y481669D01*
X844851Y479950D01*
X844411Y478309D01*
X850607D01*
Y484505D01*
D02*
G37*
G36*
X775413Y482721D02*
Y476526D01*
X781609D01*
X781169Y478166D01*
X780177Y479885D01*
X778773Y481289D01*
X777053Y482282D01*
X775413Y482721D01*
D02*
G37*
G36*
X791490Y482539D02*
X789850Y482100D01*
X788130Y481107D01*
X786727Y479703D01*
X785734Y477984D01*
X785294Y476344D01*
X791490D01*
Y482539D01*
D02*
G37*
G36*
X963198Y482278D02*
X957002D01*
Y476082D01*
X958642Y476522D01*
X960362Y477515D01*
X961766Y478918D01*
X962758Y480638D01*
X963198Y482278D01*
D02*
G37*
G36*
X750342Y479519D02*
X744146D01*
X744586Y477879D01*
X745579Y476159D01*
X746982Y474756D01*
X748702Y473763D01*
X750342Y473323D01*
Y479519D01*
D02*
G37*
G36*
X835496Y478436D02*
X829300D01*
Y472241D01*
X830940Y472680D01*
X832660Y473673D01*
X834063Y475077D01*
X835056Y476796D01*
X835496Y478436D01*
D02*
G37*
G36*
X859343Y475769D02*
X853147D01*
Y469574D01*
X854788Y470013D01*
X856507Y471006D01*
X857911Y472410D01*
X858903Y474129D01*
X859343Y475769D01*
D02*
G37*
G36*
X850607D02*
X844411D01*
X844851Y474129D01*
X845844Y472410D01*
X847248Y471006D01*
X848967Y470013D01*
X850607Y469574D01*
Y475769D01*
D02*
G37*
G36*
X805927Y484108D02*
Y476642D01*
Y469177D01*
X807567Y469616D01*
X809287Y470609D01*
X810059Y471381D01*
X810603Y471310D01*
X812007Y469906D01*
X813726Y468913D01*
X815366Y468474D01*
Y475940D01*
Y483405D01*
X813726Y482966D01*
X812007Y481973D01*
X811234Y481200D01*
X810691Y481272D01*
X809287Y482676D01*
X807567Y483669D01*
X805927Y484108D01*
D02*
G37*
G36*
X781609Y473986D02*
X775413D01*
Y467790D01*
X777053Y468230D01*
X778773Y469222D01*
X780177Y470626D01*
X781169Y472345D01*
X781609Y473986D01*
D02*
G37*
G36*
X791490Y473804D02*
X785294D01*
X785734Y472163D01*
X786727Y470444D01*
X788130Y469040D01*
X789850Y468047D01*
X791490Y467608D01*
Y473804D01*
D02*
G37*
G36*
X758905Y491518D02*
X743974D01*
X744413Y489878D01*
X745406Y488158D01*
X746810Y486754D01*
X746822Y486662D01*
X745579Y485419D01*
X744586Y483699D01*
X744146Y482059D01*
X751612D01*
Y480789D01*
X752882D01*
Y473323D01*
X753491Y473487D01*
X754983Y472637D01*
X755119Y472129D01*
X756112Y470410D01*
X757515Y469006D01*
X759235Y468013D01*
X760875Y467574D01*
Y475039D01*
Y482505D01*
X760313Y482355D01*
X758774Y483191D01*
X758638Y483699D01*
X757646Y485419D01*
X756242Y486823D01*
X756230Y486915D01*
X757473Y488158D01*
X758466Y489878D01*
X758905Y491518D01*
D02*
G37*
G36*
X968352Y474225D02*
X968170D01*
Y464470D01*
X977925D01*
Y464651D01*
X977174Y467456D01*
X975722Y469970D01*
X973670Y472022D01*
X971156Y473474D01*
X968352Y474225D01*
D02*
G37*
G36*
X965630D02*
X965449D01*
X962645Y473474D01*
X960131Y472022D01*
X958078Y469970D01*
X956627Y467456D01*
X955875Y464651D01*
Y464470D01*
X965630D01*
Y474225D01*
D02*
G37*
G36*
X860635Y467793D02*
Y461597D01*
X866831D01*
X866391Y463237D01*
X865398Y464957D01*
X863995Y466361D01*
X862275Y467353D01*
X860635Y467793D01*
D02*
G37*
G36*
X858095D02*
X856455Y467353D01*
X854735Y466361D01*
X853331Y464957D01*
X852339Y463237D01*
X851899Y461597D01*
X858095D01*
Y467793D01*
D02*
G37*
G36*
X883701Y464262D02*
X868769D01*
X869209Y462622D01*
X870201Y460902D01*
X871605Y459499D01*
X872253Y459124D01*
X872717Y457403D01*
X872414Y456878D01*
X871974Y455238D01*
X886906D01*
X886466Y456878D01*
X885474Y458598D01*
X884070Y460002D01*
X883422Y460376D01*
X882959Y462098D01*
X883261Y462622D01*
X883701Y464262D01*
D02*
G37*
G36*
X866831Y459057D02*
X860635D01*
Y452862D01*
X862275Y453301D01*
X863995Y454294D01*
X865398Y455698D01*
X866391Y457417D01*
X866831Y459057D01*
D02*
G37*
G36*
X858095D02*
X851899D01*
X852339Y457417D01*
X853331Y455698D01*
X854735Y454294D01*
X856455Y453301D01*
X858095Y452862D01*
Y459057D01*
D02*
G37*
G36*
X977925Y461930D02*
X968170D01*
Y452175D01*
X968352D01*
X971156Y452926D01*
X973670Y454378D01*
X975722Y456431D01*
X977174Y458945D01*
X977925Y461749D01*
Y461930D01*
D02*
G37*
G36*
X965630D02*
X955875D01*
Y461749D01*
X956627Y458945D01*
X958078Y456431D01*
X960131Y454378D01*
X962645Y452926D01*
X965449Y452175D01*
X965630D01*
Y461930D01*
D02*
G37*
G36*
X927925D02*
X918170D01*
Y452175D01*
X918352D01*
X921156Y452926D01*
X923670Y454378D01*
X925722Y456431D01*
X927174Y458945D01*
X927925Y461749D01*
Y461930D01*
D02*
G37*
G36*
X915630D02*
X905875D01*
Y461749D01*
X906627Y458945D01*
X908078Y456431D01*
X910131Y454378D01*
X912645Y452926D01*
X915449Y452175D01*
X915630D01*
Y461930D01*
D02*
G37*
G36*
X886906Y452698D02*
X871974D01*
X872414Y451058D01*
X873407Y449338D01*
X874451Y448294D01*
X874491Y446797D01*
X874327Y446633D01*
X873334Y444914D01*
X872895Y443273D01*
X887826D01*
X887386Y444914D01*
X886394Y446633D01*
X885349Y447678D01*
X885310Y449174D01*
X885474Y449338D01*
X886466Y451058D01*
X886906Y452698D01*
D02*
G37*
G36*
X887826Y440733D02*
X872895D01*
X873334Y439093D01*
X873506Y438796D01*
X872952Y437214D01*
X871964Y436643D01*
X870560Y435240D01*
X869567Y433520D01*
X869128Y431880D01*
X884059D01*
X883620Y433520D01*
X883448Y433817D01*
X884001Y435399D01*
X884990Y435970D01*
X886394Y437374D01*
X887386Y439093D01*
X887826Y440733D01*
D02*
G37*
G36*
X860276Y432906D02*
Y426711D01*
X866472D01*
X866032Y428351D01*
X865040Y430070D01*
X863636Y431474D01*
X861917Y432467D01*
X860276Y432906D01*
D02*
G37*
G36*
X857736D02*
X856096Y432467D01*
X854377Y431474D01*
X852973Y430070D01*
X851980Y428351D01*
X851541Y426711D01*
X857736D01*
Y432906D01*
D02*
G37*
G36*
X884059Y429340D02*
X869128D01*
X869567Y427700D01*
X870560Y425980D01*
X871930Y424610D01*
X870560Y423240D01*
X869567Y421520D01*
X869128Y419880D01*
X884059D01*
X883620Y421520D01*
X882627Y423240D01*
X881257Y424610D01*
X882627Y425980D01*
X883620Y427700D01*
X884059Y429340D01*
D02*
G37*
G36*
X866472Y424171D02*
X851541D01*
X851980Y422530D01*
X852973Y420811D01*
X854343Y419441D01*
X852973Y418070D01*
X851980Y416351D01*
X851541Y414711D01*
X866472D01*
X866032Y416351D01*
X865040Y418070D01*
X863670Y419441D01*
X865040Y420811D01*
X866032Y422530D01*
X866472Y424171D01*
D02*
G37*
G36*
X407625Y429730D02*
X399900D01*
X392175D01*
X392641Y427993D01*
X393666Y426217D01*
X394381Y425502D01*
X395028Y424650D01*
X394381Y423798D01*
X393666Y423083D01*
X392641Y421307D01*
X392110Y419326D01*
Y417274D01*
X392641Y415293D01*
X393666Y413517D01*
X395117Y412066D01*
X396893Y411041D01*
X398874Y410510D01*
X400926D01*
X402907Y411041D01*
X404683Y412066D01*
X406133Y413517D01*
X407159Y415293D01*
X407690Y417274D01*
Y419326D01*
X407159Y421307D01*
X406133Y423083D01*
X405419Y423798D01*
X404772Y424650D01*
X405419Y425502D01*
X406133Y426217D01*
X407159Y427993D01*
X407625Y429730D01*
D02*
G37*
G36*
X884059Y417340D02*
X869128D01*
X869567Y415700D01*
X870560Y413980D01*
X871964Y412576D01*
X872102Y411030D01*
X871303Y409646D01*
X870863Y408006D01*
X885795D01*
X885355Y409646D01*
X884363Y411366D01*
X882959Y412770D01*
X882821Y414316D01*
X883620Y415700D01*
X884059Y417340D01*
D02*
G37*
G36*
X866472Y412171D02*
X851541D01*
X851877Y410916D01*
X851378Y409584D01*
X851183Y409370D01*
X849610Y408461D01*
X848206Y407058D01*
X847213Y405338D01*
X846774Y403698D01*
X861705D01*
X861369Y404953D01*
X861868Y406285D01*
X862062Y406499D01*
X863636Y407407D01*
X865040Y408811D01*
X866032Y410530D01*
X866472Y412171D01*
D02*
G37*
G36*
X573632Y410703D02*
X571292D01*
X569031Y410098D01*
X567003Y408927D01*
X565348Y407272D01*
X564440Y405698D01*
X120967D01*
X119481Y405402D01*
X118221Y404560D01*
X117172Y403512D01*
X115416Y403982D01*
X113076D01*
X110815Y403376D01*
X108787Y402206D01*
X107132Y400551D01*
X105962Y398523D01*
X105356Y396262D01*
Y393922D01*
X105962Y391661D01*
X107132Y389633D01*
X108787Y387978D01*
X110815Y386808D01*
X113076Y386202D01*
X115416D01*
X117677Y386808D01*
X119705Y387978D01*
X121360Y389633D01*
X122530Y391661D01*
X123136Y393922D01*
Y396262D01*
X122959Y396921D01*
X123733Y397929D01*
X161779D01*
X162265Y396755D01*
X161996Y396487D01*
X160826Y394459D01*
X160220Y392198D01*
Y389858D01*
X160826Y387597D01*
X161996Y385569D01*
X163651Y383914D01*
X165679Y382744D01*
X167940Y382138D01*
X170280D01*
X172036Y382608D01*
X482255Y72389D01*
Y71173D01*
X481029Y70844D01*
X480924Y71026D01*
X478915Y73034D01*
X476455Y74455D01*
X473711Y75190D01*
X470869D01*
X468125Y74455D01*
X465665Y73034D01*
X463656Y71026D01*
X462235Y68565D01*
X461500Y65821D01*
Y62980D01*
X462235Y60236D01*
X463656Y57775D01*
X465665Y55766D01*
X468125Y54346D01*
X468405Y54271D01*
Y42773D01*
X467179Y42444D01*
X467074Y42625D01*
X465065Y44634D01*
X462605Y46055D01*
X459860Y46790D01*
X457019D01*
X454275Y46055D01*
X451815Y44634D01*
X449806Y42625D01*
X448385Y40165D01*
X447650Y37420D01*
Y34580D01*
X448385Y31835D01*
X449806Y29375D01*
X451815Y27366D01*
X454275Y25945D01*
X457019Y25210D01*
X459860D01*
X462605Y25945D01*
X465065Y27366D01*
X467074Y29375D01*
X467250Y29679D01*
X467609Y29583D01*
X468439Y29199D01*
X468701Y27883D01*
X469543Y26623D01*
X474973Y21193D01*
X476233Y20351D01*
X477720Y20055D01*
X492902D01*
X494388Y20351D01*
X495648Y21193D01*
X501549Y27093D01*
X502391Y28353D01*
X502687Y29840D01*
Y31198D01*
X503957Y31538D01*
X505206Y29375D01*
X507215Y27366D01*
X509675Y25945D01*
X512419Y25210D01*
X515260D01*
X518005Y25945D01*
X520465Y27366D01*
X522474Y29375D01*
X523895Y31835D01*
X524630Y34580D01*
Y37420D01*
X523895Y40165D01*
X522474Y42625D01*
X520465Y44634D01*
X518005Y46055D01*
X515260Y46790D01*
X512419D01*
X509675Y46055D01*
X507215Y44634D01*
X505206Y42625D01*
X503957Y40462D01*
X502687Y40802D01*
Y42709D01*
X515011Y55033D01*
X515853Y56293D01*
X516149Y57780D01*
Y60877D01*
X517419Y61044D01*
X517635Y60236D01*
X519056Y57775D01*
X521065Y55766D01*
X523525Y54346D01*
X526269Y53610D01*
X529110D01*
X531855Y54346D01*
X534315Y55766D01*
X536324Y57775D01*
X537745Y60236D01*
X538480Y62980D01*
Y65821D01*
X537745Y68565D01*
X536324Y71026D01*
X534315Y73034D01*
X531855Y74455D01*
X529110Y75190D01*
X526269D01*
X523525Y74455D01*
X521065Y73034D01*
X519056Y71026D01*
X517635Y68565D01*
X517419Y67757D01*
X516149Y67924D01*
Y86415D01*
X578674Y148941D01*
X580429Y148470D01*
X582770D01*
X585031Y149076D01*
X587058Y150246D01*
X588714Y151902D01*
X589884Y153929D01*
X590490Y156190D01*
Y158531D01*
X589884Y160792D01*
X588714Y162819D01*
X587058Y164474D01*
X585031Y165644D01*
X582770Y166250D01*
X580429D01*
X578168Y165644D01*
X576141Y164474D01*
X574486Y162819D01*
X573316Y160792D01*
X572710Y158531D01*
Y156190D01*
X573180Y154434D01*
X509517Y90771D01*
X508675Y89511D01*
X508379Y88024D01*
Y72930D01*
X507206Y72444D01*
X506615Y73034D01*
X504155Y74455D01*
X501411Y75190D01*
X498570D01*
X495825Y74455D01*
X493365Y73034D01*
X491356Y71026D01*
X491251Y70844D01*
X490025Y71173D01*
Y73998D01*
X489729Y75484D01*
X488887Y76745D01*
X177530Y388102D01*
X178000Y389858D01*
Y392198D01*
X177394Y394459D01*
X176224Y396487D01*
X175955Y396755D01*
X176441Y397929D01*
X564440D01*
X565348Y396355D01*
X567003Y394700D01*
X569031Y393529D01*
X571292Y392923D01*
X573632D01*
X575893Y393529D01*
X577921Y394700D01*
X579576Y396355D01*
X580746Y398382D01*
X581352Y400643D01*
Y402984D01*
X580746Y405245D01*
X579576Y407272D01*
X577921Y408927D01*
X575893Y410098D01*
X573632Y410703D01*
D02*
G37*
G36*
X885795Y405466D02*
X870863D01*
X871303Y403826D01*
X872296Y402106D01*
X872734Y401669D01*
X872734Y399873D01*
X872226Y399366D01*
X871234Y397647D01*
X870794Y396006D01*
X885725D01*
X885286Y397647D01*
X884293Y399366D01*
X883855Y399804D01*
X883855Y401599D01*
X884363Y402106D01*
X885355Y403826D01*
X885795Y405466D01*
D02*
G37*
G36*
X861705Y401158D02*
X846774D01*
X847213Y399518D01*
X848206Y397798D01*
X849499Y396505D01*
X849629Y395805D01*
Y395692D01*
X849499Y394992D01*
X848206Y393699D01*
X847213Y391979D01*
X846774Y390339D01*
X861705D01*
X861266Y391979D01*
X860273Y393699D01*
X858980Y394992D01*
X858850Y395692D01*
Y395805D01*
X858980Y396505D01*
X860273Y397798D01*
X861266Y399518D01*
X861705Y401158D01*
D02*
G37*
G36*
X885725Y393466D02*
X879530D01*
Y387271D01*
X881170Y387710D01*
X882889Y388703D01*
X884293Y390107D01*
X885286Y391826D01*
X885725Y393466D01*
D02*
G37*
G36*
X876990D02*
X870794D01*
X871234Y391826D01*
X872226Y390107D01*
X873630Y388703D01*
X875349Y387710D01*
X876990Y387271D01*
Y393466D01*
D02*
G37*
G36*
X861705Y387799D02*
X846774D01*
X847213Y386159D01*
X848206Y384439D01*
X848772Y383874D01*
X848796Y382102D01*
X848394Y381700D01*
X847402Y379981D01*
X846962Y378340D01*
X861893D01*
X861454Y379981D01*
X860461Y381700D01*
X859895Y382266D01*
X859871Y384037D01*
X860273Y384439D01*
X861266Y386159D01*
X861705Y387799D01*
D02*
G37*
G36*
X861893Y375801D02*
X846962D01*
X847402Y374160D01*
X848394Y372441D01*
X849798Y371037D01*
X850794Y370462D01*
X851348Y368883D01*
X851180Y368591D01*
X850741Y366951D01*
X865672D01*
X865232Y368591D01*
X864240Y370311D01*
X862836Y371714D01*
X861840Y372289D01*
X861285Y373868D01*
X861454Y374160D01*
X861893Y375801D01*
D02*
G37*
G36*
X877064Y369160D02*
Y362965D01*
X883259D01*
X882820Y364605D01*
X881827Y366324D01*
X880423Y367728D01*
X878704Y368721D01*
X877064Y369160D01*
D02*
G37*
G36*
X874524D02*
X872883Y368721D01*
X871164Y367728D01*
X869760Y366324D01*
X868767Y364605D01*
X868328Y362965D01*
X874524D01*
Y369160D01*
D02*
G37*
G36*
X865672Y364411D02*
X850741D01*
X851180Y362771D01*
X851391Y362405D01*
X850862Y360782D01*
X849972Y360268D01*
X848569Y358865D01*
X847576Y357145D01*
X847136Y355505D01*
X862068D01*
X861628Y357145D01*
X861417Y357511D01*
X861947Y359134D01*
X862836Y359647D01*
X864240Y361051D01*
X865232Y362771D01*
X865672Y364411D01*
D02*
G37*
G36*
X883259Y360425D02*
X877064D01*
Y354229D01*
X878704Y354669D01*
X880423Y355661D01*
X881827Y357065D01*
X882820Y358784D01*
X883259Y360425D01*
D02*
G37*
G36*
X874524D02*
X868328D01*
X868767Y358784D01*
X869760Y357065D01*
X871164Y355661D01*
X872883Y354669D01*
X874524Y354229D01*
Y360425D01*
D02*
G37*
G36*
X862068Y352965D02*
X847136D01*
X847576Y351325D01*
X848569Y349605D01*
X849821Y348353D01*
X849810Y348270D01*
X848406Y346866D01*
X847413Y345146D01*
X846974Y343506D01*
X861905D01*
X861466Y345146D01*
X860473Y346866D01*
X859221Y348118D01*
X859232Y348201D01*
X860636Y349605D01*
X861628Y351325D01*
X862068Y352965D01*
D02*
G37*
G36*
X861905Y340966D02*
X846974D01*
X847413Y339326D01*
X848406Y337606D01*
X849810Y336203D01*
X850083Y336045D01*
X850455Y334534D01*
X849791Y333384D01*
X849351Y331744D01*
X864283D01*
X863843Y333384D01*
X862850Y335103D01*
X861447Y336507D01*
X861174Y336665D01*
X860802Y338176D01*
X861466Y339326D01*
X861905Y340966D01*
D02*
G37*
G36*
X878408Y333892D02*
Y327696D01*
X884603D01*
X884164Y329337D01*
X883171Y331056D01*
X881767Y332460D01*
X880048Y333452D01*
X878408Y333892D01*
D02*
G37*
G36*
X875868D02*
X874227Y333452D01*
X872508Y332460D01*
X871104Y331056D01*
X870111Y329337D01*
X869672Y327696D01*
X875868D01*
Y333892D01*
D02*
G37*
G36*
X864283Y329204D02*
X849351D01*
X849791Y327564D01*
X850032Y327146D01*
X849521Y325490D01*
X848710Y325022D01*
X847306Y323618D01*
X846314Y321899D01*
X845874Y320259D01*
X860806D01*
X860366Y321899D01*
X860125Y322317D01*
X860636Y323972D01*
X861447Y324440D01*
X862850Y325844D01*
X863843Y327564D01*
X864283Y329204D01*
D02*
G37*
G36*
X884603Y325156D02*
X869672D01*
X870111Y323516D01*
X871104Y321796D01*
X872508Y320393D01*
X872537Y320170D01*
X871427Y319060D01*
X870434Y317341D01*
X869995Y315700D01*
X884926D01*
X884487Y317341D01*
X883494Y319060D01*
X882090Y320464D01*
X882061Y320686D01*
X883171Y321796D01*
X884164Y323516D01*
X884603Y325156D01*
D02*
G37*
G36*
X860806Y317719D02*
X854610D01*
Y311523D01*
X856250Y311963D01*
X857970Y312955D01*
X859373Y314359D01*
X860366Y316078D01*
X860806Y317719D01*
D02*
G37*
G36*
X852070D02*
X845874D01*
X846314Y316078D01*
X847306Y314359D01*
X848710Y312955D01*
X850430Y311963D01*
X852070Y311523D01*
Y317719D01*
D02*
G37*
G36*
X884926Y313160D02*
X869995D01*
X870434Y311520D01*
X871427Y309801D01*
X872302Y308926D01*
X871427Y308050D01*
X870434Y306331D01*
X869995Y304691D01*
X884926D01*
X884487Y306331D01*
X883494Y308050D01*
X882619Y308926D01*
X883494Y309801D01*
X884487Y311520D01*
X884926Y313160D01*
D02*
G37*
G36*
X854610Y307554D02*
Y301358D01*
X860806D01*
X860366Y302999D01*
X859373Y304718D01*
X857970Y306122D01*
X856250Y307115D01*
X854610Y307554D01*
D02*
G37*
G36*
X852070D02*
X850430Y307115D01*
X848710Y306122D01*
X847306Y304718D01*
X846314Y302999D01*
X845874Y301358D01*
X852070D01*
Y307554D01*
D02*
G37*
G36*
X884926Y302151D02*
X878731D01*
Y295955D01*
X880371Y296395D01*
X882090Y297387D01*
X883494Y298791D01*
X884487Y300511D01*
X884926Y302151D01*
D02*
G37*
G36*
X876191D02*
X869995D01*
X870434Y300511D01*
X871427Y298791D01*
X872831Y297387D01*
X874550Y296395D01*
X876191Y295955D01*
Y302151D01*
D02*
G37*
G36*
X860806Y298818D02*
X845874D01*
X846314Y297178D01*
X847306Y295459D01*
X848710Y294055D01*
X849819Y293415D01*
X850401Y291882D01*
X850280Y291673D01*
X849841Y290033D01*
X864772D01*
X864333Y291673D01*
X863340Y293393D01*
X861936Y294797D01*
X860217Y295789D01*
X859944Y296448D01*
X860366Y297178D01*
X860806Y298818D01*
D02*
G37*
G36*
X81528Y290640D02*
X81410D01*
Y281370D01*
X90680D01*
Y281488D01*
X89962Y284168D01*
X88574Y286572D01*
X86612Y288534D01*
X84208Y289922D01*
X81528Y290640D01*
D02*
G37*
G36*
X78870D02*
X78752D01*
X76072Y289922D01*
X73668Y288534D01*
X71706Y286572D01*
X70318Y284168D01*
X69600Y281488D01*
Y281370D01*
X78870D01*
Y290640D01*
D02*
G37*
G36*
X864772Y287493D02*
X849841D01*
X850280Y285853D01*
X850883Y284810D01*
X850701Y284372D01*
X848982Y283379D01*
X847578Y281976D01*
X846586Y280256D01*
X846146Y278616D01*
X861077D01*
X860638Y280256D01*
X860036Y281299D01*
X860217Y281737D01*
X861936Y282729D01*
X863340Y284133D01*
X864333Y285853D01*
X864772Y287493D01*
D02*
G37*
G36*
X199440Y290640D02*
X178360D01*
Y269560D01*
X199440D01*
Y290640D01*
D02*
G37*
G36*
X90680Y278830D02*
X81410D01*
Y269560D01*
X81528D01*
X84208Y270278D01*
X86612Y271666D01*
X88574Y273628D01*
X89962Y276032D01*
X90680Y278713D01*
Y278830D01*
D02*
G37*
G36*
X78870D02*
X69600D01*
Y278713D01*
X70318Y276032D01*
X71706Y273628D01*
X73668Y271666D01*
X76072Y270278D01*
X78752Y269560D01*
X78870D01*
Y278830D01*
D02*
G37*
G36*
X861077Y276076D02*
X846146D01*
X846586Y274436D01*
X847578Y272716D01*
X848942Y271352D01*
X847566Y269976D01*
X846573Y268256D01*
X846134Y266616D01*
X861065D01*
X860626Y268256D01*
X859633Y269976D01*
X858269Y271340D01*
X859645Y272716D01*
X860638Y274436D01*
X861077Y276076D01*
D02*
G37*
G36*
X774100Y333190D02*
X694143D01*
X693152Y332993D01*
X692312Y332431D01*
X691750Y331591D01*
X691553Y330600D01*
Y268084D01*
X691750Y267093D01*
X692312Y266253D01*
X693152Y265692D01*
X694143Y265494D01*
X774100D01*
X775091Y265692D01*
X775931Y266253D01*
X776493Y267093D01*
X776690Y268084D01*
Y330600D01*
X776493Y331591D01*
X775931Y332431D01*
X775091Y332993D01*
X774100Y333190D01*
D02*
G37*
G36*
X874064Y264841D02*
Y258645D01*
X880259D01*
X879820Y260286D01*
X878827Y262005D01*
X877423Y263409D01*
X875704Y264402D01*
X874064Y264841D01*
D02*
G37*
G36*
X871524D02*
X869883Y264402D01*
X868164Y263409D01*
X866760Y262005D01*
X865768Y260286D01*
X865328Y258645D01*
X871524D01*
Y264841D01*
D02*
G37*
G36*
X861065Y264076D02*
X846134D01*
X846573Y262436D01*
X847566Y260716D01*
X848788Y259495D01*
X849112Y258549D01*
X849173Y258084D01*
X848180Y256364D01*
X847741Y254724D01*
X862672D01*
X862233Y256364D01*
X861240Y258084D01*
X859836Y259488D01*
X859794Y259512D01*
X859787Y260982D01*
X860626Y262436D01*
X861065Y264076D01*
D02*
G37*
G36*
X880259Y256105D02*
X865328D01*
X865768Y254465D01*
X866760Y252746D01*
X868164Y251342D01*
X869883Y250349D01*
X869916Y250271D01*
X869031Y248738D01*
X868591Y247098D01*
X883522D01*
X883083Y248738D01*
X882090Y250457D01*
X880686Y251861D01*
X878967Y252854D01*
X878935Y252932D01*
X879820Y254465D01*
X880259Y256105D01*
D02*
G37*
G36*
X862672Y252184D02*
X847741D01*
X848180Y250544D01*
X848469Y250043D01*
X847990Y248333D01*
X847310Y247941D01*
X845906Y246537D01*
X844914Y244818D01*
X844474Y243177D01*
X859405D01*
X858966Y244818D01*
X858677Y245318D01*
X859156Y247028D01*
X859836Y247421D01*
X861240Y248824D01*
X862233Y250544D01*
X862672Y252184D01*
D02*
G37*
G36*
X883522Y244558D02*
X868591D01*
X869031Y242917D01*
X870023Y241198D01*
X870445Y240776D01*
X870442Y239001D01*
X869899Y238458D01*
X868906Y236739D01*
X868467Y235098D01*
X883398D01*
X882959Y236739D01*
X881966Y238458D01*
X881544Y238880D01*
X881547Y240655D01*
X882090Y241198D01*
X883083Y242917D01*
X883522Y244558D01*
D02*
G37*
G36*
X859405Y240637D02*
X844474D01*
X844914Y238997D01*
X845906Y237278D01*
X846730Y236453D01*
X847206Y235665D01*
X846742Y234735D01*
X845977Y233971D01*
X844985Y232251D01*
X844545Y230611D01*
X859477D01*
X859037Y232251D01*
X858045Y233971D01*
X857220Y234795D01*
X856745Y235583D01*
X857209Y236513D01*
X857973Y237278D01*
X858966Y238997D01*
X859405Y240637D01*
D02*
G37*
G36*
X883398Y232558D02*
X877203D01*
Y226363D01*
X878843Y226802D01*
X880562Y227795D01*
X881966Y229199D01*
X882959Y230918D01*
X883398Y232558D01*
D02*
G37*
G36*
X874663D02*
X868467D01*
X868906Y230918D01*
X869899Y229199D01*
X871303Y227795D01*
X873022Y226802D01*
X874663Y226363D01*
Y232558D01*
D02*
G37*
G36*
X757143Y231726D02*
X755503Y231287D01*
X753783Y230294D01*
X752379Y228890D01*
X751387Y227171D01*
X750947Y225530D01*
X757143D01*
Y231726D01*
D02*
G37*
G36*
X772097Y231486D02*
Y225290D01*
X778293D01*
X777854Y226930D01*
X776861Y228650D01*
X775457Y230053D01*
X773738Y231046D01*
X772097Y231486D01*
D02*
G37*
G36*
X859477Y228071D02*
X844545D01*
X844985Y226430D01*
X845977Y224711D01*
X847342Y223346D01*
X845967Y221971D01*
X844974Y220251D01*
X844535Y218611D01*
X859466D01*
X859026Y220251D01*
X858034Y221971D01*
X856669Y223335D01*
X858045Y224711D01*
X859037Y226430D01*
X859477Y228071D01*
D02*
G37*
G36*
X757143Y222990D02*
X750947D01*
X751387Y221350D01*
X752379Y219631D01*
X753783Y218227D01*
X755503Y217234D01*
X757143Y216795D01*
Y222990D01*
D02*
G37*
G36*
X759683Y231726D02*
Y224260D01*
Y216795D01*
X761323Y217234D01*
X763043Y218227D01*
X763649Y218833D01*
X764746Y219367D01*
X765344Y218840D01*
X766198Y217986D01*
X767917Y216994D01*
X768166Y216927D01*
X768846Y215430D01*
X768595Y214491D01*
X783526D01*
X783087Y216131D01*
X782094Y217851D01*
X780690Y219254D01*
X778971Y220247D01*
X778722Y220314D01*
X778042Y221811D01*
X778293Y222750D01*
X770827D01*
Y224020D01*
X769557D01*
Y231486D01*
X767917Y231046D01*
X766198Y230053D01*
X765591Y229447D01*
X764494Y228913D01*
X763897Y229440D01*
X763043Y230294D01*
X761323Y231287D01*
X759683Y231726D01*
D02*
G37*
G36*
X744410Y219092D02*
Y212896D01*
X750605D01*
X750166Y214536D01*
X749173Y216256D01*
X747769Y217659D01*
X746050Y218652D01*
X744410Y219092D01*
D02*
G37*
G36*
X741870D02*
X740229Y218652D01*
X738510Y217659D01*
X737106Y216256D01*
X736114Y214536D01*
X735674Y212896D01*
X741870D01*
Y219092D01*
D02*
G37*
G36*
X859466Y216071D02*
X844535D01*
X844974Y214431D01*
X845967Y212711D01*
X847371Y211307D01*
X848012Y210937D01*
X848483Y209211D01*
X848180Y208687D01*
X847741Y207047D01*
X862672D01*
X862233Y208687D01*
X861240Y210407D01*
X859836Y211811D01*
X859194Y212181D01*
X858724Y213907D01*
X859026Y214431D01*
X859466Y216071D01*
D02*
G37*
G36*
X783526Y211951D02*
X768595D01*
X769034Y210311D01*
X770027Y208591D01*
X771397Y207221D01*
X770027Y205851D01*
X769034Y204131D01*
X768595Y202491D01*
X783526D01*
X783087Y204131D01*
X782094Y205851D01*
X780724Y207221D01*
X782094Y208591D01*
X783087Y210311D01*
X783526Y211951D01*
D02*
G37*
G36*
X750605Y210356D02*
X735674D01*
X736114Y208716D01*
X737106Y206996D01*
X738476Y205626D01*
X737106Y204256D01*
X736114Y202536D01*
X735674Y200896D01*
X750605D01*
X750166Y202536D01*
X749173Y204256D01*
X747803Y205626D01*
X749173Y206996D01*
X750166Y208716D01*
X750605Y210356D01*
D02*
G37*
G36*
X862672Y204507D02*
X847741D01*
X848180Y202867D01*
X848352Y202570D01*
X847799Y200988D01*
X846810Y200417D01*
X845406Y199013D01*
X844414Y197294D01*
X843974Y195654D01*
X858905D01*
X858466Y197294D01*
X858295Y197591D01*
X858848Y199173D01*
X859836Y199744D01*
X861240Y201147D01*
X862233Y202867D01*
X862672Y204507D01*
D02*
G37*
G36*
X750605Y198356D02*
X744410D01*
Y192160D01*
X746050Y192600D01*
X747769Y193592D01*
X749173Y194996D01*
X750166Y196716D01*
X750605Y198356D01*
D02*
G37*
G36*
X741870D02*
X735674D01*
X736114Y196716D01*
X737106Y194996D01*
X738510Y193592D01*
X740229Y192600D01*
X741870Y192160D01*
Y198356D01*
D02*
G37*
G36*
X783526Y199951D02*
X768595D01*
X769034Y198311D01*
X770027Y196591D01*
X770686Y195932D01*
X770601Y195283D01*
X769197Y193879D01*
X768204Y192160D01*
X767765Y190520D01*
X782696D01*
X782257Y192160D01*
X781264Y193879D01*
X780605Y194539D01*
X780690Y195187D01*
X782094Y196591D01*
X783087Y198311D01*
X783526Y199951D01*
D02*
G37*
G36*
X858905Y193114D02*
X852710D01*
Y186918D01*
X854350Y187357D01*
X856069Y188350D01*
X857473Y189754D01*
X858466Y191473D01*
X858905Y193114D01*
D02*
G37*
G36*
X850170D02*
X843974D01*
X844414Y191473D01*
X845406Y189754D01*
X846810Y188350D01*
X848529Y187357D01*
X850170Y186918D01*
Y193114D01*
D02*
G37*
G36*
X782696Y187980D02*
X767678D01*
X766777Y186760D01*
X765483Y186414D01*
X763764Y185421D01*
X762360Y184017D01*
X761368Y182298D01*
X760928Y180658D01*
X775947D01*
X776848Y181877D01*
X778141Y182223D01*
X779860Y183216D01*
X781264Y184620D01*
X782257Y186339D01*
X782696Y187980D01*
D02*
G37*
G36*
X874164Y185173D02*
Y178978D01*
X880360D01*
X879920Y180618D01*
X878927Y182337D01*
X877524Y183741D01*
X875804Y184734D01*
X874164Y185173D01*
D02*
G37*
G36*
X871624D02*
X869984Y184734D01*
X868264Y183741D01*
X866860Y182337D01*
X865868Y180618D01*
X865428Y178978D01*
X871624D01*
Y185173D01*
D02*
G37*
G36*
X752076Y184733D02*
Y178537D01*
X758272D01*
X757832Y180178D01*
X756840Y181897D01*
X755436Y183301D01*
X753717Y184294D01*
X752076Y184733D01*
D02*
G37*
G36*
X749536D02*
X747896Y184294D01*
X746177Y183301D01*
X744773Y181897D01*
X743780Y180178D01*
X743341Y178537D01*
X749536D01*
Y184733D01*
D02*
G37*
G36*
X810237Y177426D02*
X808597Y176986D01*
X806877Y175994D01*
X806213Y175330D01*
X804483Y175264D01*
X804143Y175604D01*
X802424Y176597D01*
X800783Y177036D01*
Y169571D01*
Y162105D01*
X802424Y162544D01*
X804143Y163537D01*
X805547Y164941D01*
X805826Y164978D01*
X806877Y163927D01*
X808597Y162934D01*
X810237Y162495D01*
Y169960D01*
Y177426D01*
D02*
G37*
G36*
X856577Y178163D02*
Y171967D01*
X862772D01*
X862333Y173608D01*
X861340Y175327D01*
X859936Y176731D01*
X858217Y177723D01*
X856577Y178163D01*
D02*
G37*
G36*
X854036D02*
X852396Y177723D01*
X850677Y176731D01*
X849273Y175327D01*
X848280Y173608D01*
X847841Y171967D01*
X854036D01*
Y178163D01*
D02*
G37*
G36*
X833631Y173659D02*
X831990Y173220D01*
X830271Y172227D01*
X828901Y170857D01*
X827530Y172227D01*
X825811Y173220D01*
X824171Y173659D01*
Y166194D01*
Y158728D01*
X825811Y159167D01*
X827530Y160160D01*
X828901Y161530D01*
X830271Y160160D01*
X831990Y159167D01*
X833631Y158728D01*
Y166194D01*
Y173659D01*
D02*
G37*
G36*
X798243Y177036D02*
X796603Y176597D01*
X794884Y175604D01*
X793480Y174200D01*
X792487Y172481D01*
X792048Y170841D01*
X798243D01*
Y177036D01*
D02*
G37*
G36*
X775859Y178118D02*
X760928D01*
X761368Y176477D01*
X762360Y174758D01*
X763764Y173354D01*
X765483Y172362D01*
X767401Y171848D01*
X768008D01*
X768982Y170578D01*
X768836Y170030D01*
X783767D01*
X783327Y171670D01*
X782335Y173390D01*
X780931Y174794D01*
X779212Y175786D01*
X777294Y176300D01*
X776687D01*
X775713Y177570D01*
X775859Y178118D01*
D02*
G37*
G36*
X758272Y175997D02*
X752076D01*
Y169802D01*
X753717Y170241D01*
X755436Y171234D01*
X756840Y172638D01*
X757832Y174357D01*
X758272Y175997D01*
D02*
G37*
G36*
X749536D02*
X743341D01*
X743780Y174357D01*
X744773Y172638D01*
X746177Y171234D01*
X747896Y170241D01*
X749536Y169802D01*
Y175997D01*
D02*
G37*
G36*
X836171Y173659D02*
Y167463D01*
X842366D01*
X841927Y169104D01*
X840934Y170823D01*
X839530Y172227D01*
X837811Y173220D01*
X836171Y173659D01*
D02*
G37*
G36*
X880360Y176438D02*
X865428D01*
X865868Y174797D01*
X866860Y173078D01*
X868264Y171674D01*
X869984Y170681D01*
X870055Y170509D01*
X869243Y169102D01*
X868803Y167462D01*
X883735D01*
X883295Y169102D01*
X882302Y170822D01*
X880899Y172226D01*
X879179Y173218D01*
X879108Y173391D01*
X879920Y174797D01*
X880360Y176438D01*
D02*
G37*
G36*
X862772Y169427D02*
X856577D01*
Y163232D01*
X858217Y163671D01*
X859936Y164664D01*
X861340Y166068D01*
X862333Y167787D01*
X862772Y169427D01*
D02*
G37*
G36*
X854036D02*
X847841D01*
X848280Y167787D01*
X849273Y166068D01*
X850677Y164664D01*
X852396Y163671D01*
X854036Y163232D01*
Y169427D01*
D02*
G37*
G36*
X798243Y168301D02*
X792048D01*
X792487Y166660D01*
X793480Y164941D01*
X794884Y163537D01*
X796603Y162544D01*
X798243Y162105D01*
Y168301D01*
D02*
G37*
G36*
X783767Y167490D02*
X777571D01*
Y161294D01*
X779212Y161734D01*
X780931Y162727D01*
X782335Y164130D01*
X783327Y165850D01*
X783767Y167490D01*
D02*
G37*
G36*
X775031D02*
X768836D01*
X769275Y165850D01*
X770268Y164130D01*
X771672Y162727D01*
X773391Y161734D01*
X775031Y161294D01*
Y167490D01*
D02*
G37*
G36*
X842366Y164923D02*
X836171D01*
Y158728D01*
X837811Y159167D01*
X839530Y160160D01*
X840934Y161564D01*
X841927Y163283D01*
X842366Y164923D01*
D02*
G37*
G36*
X812777Y177426D02*
Y169960D01*
Y162495D01*
X814417Y162934D01*
X814714Y163106D01*
X816296Y162552D01*
X816867Y161564D01*
X818271Y160160D01*
X819990Y159167D01*
X821630Y158728D01*
Y166194D01*
Y173659D01*
X819990Y173220D01*
X819693Y173048D01*
X818111Y173601D01*
X817541Y174590D01*
X816137Y175994D01*
X814417Y176986D01*
X812777Y177426D01*
D02*
G37*
G36*
X748810Y160979D02*
Y154783D01*
X755005D01*
X754566Y156424D01*
X753573Y158143D01*
X752169Y159547D01*
X750450Y160539D01*
X748810Y160979D01*
D02*
G37*
G36*
X746270D02*
X744629Y160539D01*
X742910Y159547D01*
X741506Y158143D01*
X740513Y156424D01*
X740074Y154783D01*
X746270D01*
Y160979D01*
D02*
G37*
G36*
X831700Y156072D02*
X830060Y155632D01*
X828341Y154640D01*
X826970Y153269D01*
X825600Y154640D01*
X823880Y155632D01*
X822240Y156072D01*
Y148606D01*
Y141140D01*
X823880Y141580D01*
X825600Y142573D01*
X826970Y143943D01*
X828341Y142573D01*
X830060Y141580D01*
X831700Y141140D01*
Y148606D01*
Y156072D01*
D02*
G37*
G36*
X853870Y155322D02*
X852230Y154883D01*
X850510Y153890D01*
X849539Y152918D01*
X849483Y152973D01*
X847764Y153966D01*
X846124Y154405D01*
Y146940D01*
Y139474D01*
X847764Y139914D01*
X849483Y140906D01*
X850455Y141878D01*
X850510Y141823D01*
X852230Y140830D01*
X853870Y140391D01*
Y147857D01*
Y155322D01*
D02*
G37*
G36*
X784408Y152864D02*
X782767Y152424D01*
X781048Y151431D01*
X779644Y150028D01*
X779054Y149950D01*
X778331Y150673D01*
X776612Y151666D01*
X774972Y152105D01*
Y144639D01*
Y137174D01*
X776612Y137613D01*
X778331Y138606D01*
X779171Y139445D01*
X780829Y139584D01*
X781048Y139364D01*
X782767Y138372D01*
X784408Y137932D01*
Y145398D01*
Y152864D01*
D02*
G37*
G36*
X819700Y156072D02*
X818060Y155632D01*
X816340Y154640D01*
X814937Y153236D01*
X813944Y151517D01*
X813504Y149876D01*
X819700D01*
Y156072D01*
D02*
G37*
G36*
X884126Y152928D02*
X877931D01*
Y146733D01*
X879571Y147172D01*
X881290Y148165D01*
X882694Y149569D01*
X883687Y151288D01*
X884126Y152928D01*
D02*
G37*
G36*
X786948Y152864D02*
Y146668D01*
X793143D01*
X792704Y148308D01*
X791711Y150028D01*
X790307Y151431D01*
X788588Y152424D01*
X786948Y152864D01*
D02*
G37*
G36*
X772432Y152105D02*
X770791Y151666D01*
X769072Y150673D01*
X767668Y149269D01*
X766676Y147550D01*
X766236Y145909D01*
X772432D01*
Y152105D01*
D02*
G37*
G36*
X755292Y152243D02*
X740074D01*
X740513Y150603D01*
X741506Y148883D01*
X742910Y147480D01*
X744629Y146487D01*
X746547Y145973D01*
X747816D01*
X747865Y145909D01*
X763083D01*
X762644Y147550D01*
X761651Y149269D01*
X760247Y150673D01*
X758528Y151666D01*
X756610Y152179D01*
X755341D01*
X755292Y152243D01*
D02*
G37*
G36*
X819700Y147336D02*
X813504D01*
X813944Y145696D01*
X814937Y143976D01*
X816340Y142573D01*
X818060Y141580D01*
X819700Y141140D01*
Y147336D01*
D02*
G37*
G36*
X883735Y164922D02*
X868803D01*
X869243Y163282D01*
X870235Y161562D01*
X870900Y160898D01*
X870966Y159167D01*
X870627Y158828D01*
X869634Y157109D01*
X869121Y155191D01*
X868375Y154619D01*
Y146940D01*
Y139474D01*
X870015Y139914D01*
X871735Y140906D01*
X873139Y142310D01*
X874131Y144029D01*
X874645Y145947D01*
X875391Y146519D01*
Y154199D01*
X876661D01*
Y155469D01*
X884126D01*
X883687Y157109D01*
X882694Y158828D01*
X882029Y159493D01*
X881963Y161223D01*
X882302Y161562D01*
X883295Y163282D01*
X883735Y164922D01*
D02*
G37*
G36*
X856410Y155322D02*
Y147857D01*
Y140391D01*
X858050Y140830D01*
X859770Y141823D01*
X859935Y141988D01*
X861433Y141949D01*
X862475Y140906D01*
X864195Y139914D01*
X865835Y139474D01*
Y146940D01*
Y154405D01*
X864195Y153966D01*
X862475Y152973D01*
X862310Y152808D01*
X860813Y152847D01*
X859770Y153890D01*
X858050Y154883D01*
X856410Y155322D01*
D02*
G37*
G36*
X834240Y156072D02*
Y148606D01*
Y141140D01*
X835881Y141580D01*
X837600Y142573D01*
X838116Y142505D01*
X838977Y142154D01*
X840224Y140906D01*
X841944Y139914D01*
X843584Y139474D01*
Y146940D01*
Y154405D01*
X841944Y153966D01*
X840224Y152973D01*
X839708Y153041D01*
X838847Y153392D01*
X837600Y154640D01*
X835881Y155632D01*
X834240Y156072D01*
D02*
G37*
G36*
X793143Y144128D02*
X786948D01*
Y137932D01*
X788588Y138372D01*
X790307Y139364D01*
X791711Y140768D01*
X792704Y142487D01*
X793143Y144128D01*
D02*
G37*
G36*
X772432Y143369D02*
X766236D01*
X766676Y141729D01*
X767668Y140010D01*
X769072Y138606D01*
X770791Y137613D01*
X772432Y137174D01*
Y143369D01*
D02*
G37*
G36*
X763083D02*
X756888D01*
Y137174D01*
X758528Y137613D01*
X760247Y138606D01*
X761651Y140010D01*
X762644Y141729D01*
X763083Y143369D01*
D02*
G37*
G36*
X754348D02*
X748152D01*
X748592Y141729D01*
X749584Y140010D01*
X750988Y138606D01*
X752707Y137613D01*
X754348Y137174D01*
Y143369D01*
D02*
G37*
G36*
X446011Y75190D02*
X445860D01*
Y65670D01*
X455380D01*
Y65821D01*
X454645Y68565D01*
X453224Y71026D01*
X451216Y73034D01*
X448755Y74455D01*
X446011Y75190D01*
D02*
G37*
G36*
X443320D02*
X443170D01*
X440425Y74455D01*
X437965Y73034D01*
X435956Y71026D01*
X434536Y68565D01*
X433800Y65821D01*
Y65670D01*
X443320D01*
Y75190D01*
D02*
G37*
G36*
X189968Y80540D02*
X187192D01*
X184512Y79822D01*
X182108Y78434D01*
X180146Y76472D01*
X178758Y74068D01*
X178040Y71388D01*
Y68612D01*
X178758Y65932D01*
X180146Y63528D01*
X182108Y61566D01*
X184512Y60178D01*
X187192Y59460D01*
X189968D01*
X192648Y60178D01*
X195052Y61566D01*
X197014Y63528D01*
X198402Y65932D01*
X199120Y68612D01*
Y71388D01*
X198402Y74068D01*
X197014Y76472D01*
X195052Y78434D01*
X192648Y79822D01*
X189968Y80540D01*
D02*
G37*
G36*
X90360D02*
X69280D01*
Y59460D01*
X90360D01*
Y80540D01*
D02*
G37*
G36*
X455380Y63130D02*
X445860D01*
Y53610D01*
X446011D01*
X448755Y54346D01*
X451216Y55766D01*
X453224Y57775D01*
X454645Y60236D01*
X455380Y62980D01*
Y63130D01*
D02*
G37*
G36*
X443320D02*
X433800D01*
Y62980D01*
X434536Y60236D01*
X435956Y57775D01*
X437965Y55766D01*
X440425Y54346D01*
X443170Y53610D01*
X443320D01*
Y63130D01*
D02*
G37*
G36*
X559515Y75248D02*
X551265D01*
X549525Y75019D01*
X547904Y74347D01*
X546512Y73279D01*
X545443Y71887D01*
X544772Y70265D01*
X544543Y68525D01*
Y60275D01*
X544772Y58535D01*
X545443Y56914D01*
X546512Y55522D01*
X547904Y54453D01*
X549525Y53782D01*
X551265Y53553D01*
X559515D01*
X561255Y53782D01*
X562876Y54453D01*
X564269Y55522D01*
X565337Y56914D01*
X566009Y58535D01*
X566238Y60275D01*
Y68525D01*
X566009Y70265D01*
X565337Y71887D01*
X564269Y73279D01*
X562876Y74347D01*
X561255Y75019D01*
X559515Y75248D01*
D02*
G37*
G36*
X542961Y46790D02*
X540120D01*
X537375Y46055D01*
X534915Y44634D01*
X532906Y42625D01*
X531485Y40165D01*
X530750Y37420D01*
Y34580D01*
X531485Y31835D01*
X532906Y29375D01*
X534915Y27366D01*
X537375Y25945D01*
X540120Y25210D01*
X542961D01*
X545705Y25945D01*
X548165Y27366D01*
X550174Y29375D01*
X551595Y31835D01*
X552330Y34580D01*
Y37420D01*
X551595Y40165D01*
X550174Y42625D01*
X548165Y44634D01*
X545705Y46055D01*
X542961Y46790D01*
D02*
G37*
G36*
X627079Y76740D02*
X622901D01*
X618775Y76087D01*
X614802Y74796D01*
X611080Y72899D01*
X607701Y70444D01*
X604747Y67490D01*
X602291Y64110D01*
X600395Y60388D01*
X599104Y56415D01*
X598450Y52289D01*
Y48111D01*
X599104Y43985D01*
X600395Y40012D01*
X602291Y36290D01*
X604747Y32910D01*
X607701Y29957D01*
X611080Y27501D01*
X614802Y25605D01*
X618775Y24314D01*
X622901Y23660D01*
X627079D01*
X631205Y24314D01*
X635178Y25605D01*
X638900Y27501D01*
X642280Y29957D01*
X645234Y32910D01*
X647689Y36290D01*
X649586Y40012D01*
X650877Y43985D01*
X651530Y48111D01*
Y52289D01*
X650877Y56415D01*
X649586Y60388D01*
X647689Y64110D01*
X645234Y67490D01*
X642280Y70444D01*
X638900Y72899D01*
X635178Y74796D01*
X631205Y76087D01*
X627079Y76740D01*
D02*
G37*
G36*
X377079D02*
X372901D01*
X368775Y76087D01*
X364802Y74796D01*
X361080Y72899D01*
X357701Y70444D01*
X354747Y67490D01*
X352291Y64110D01*
X350395Y60388D01*
X349104Y56415D01*
X348450Y52289D01*
Y48111D01*
X349104Y43985D01*
X350395Y40012D01*
X352291Y36290D01*
X354747Y32910D01*
X357701Y29957D01*
X361080Y27501D01*
X364802Y25605D01*
X368775Y24314D01*
X372901Y23660D01*
X377079D01*
X381205Y24314D01*
X385178Y25605D01*
X388900Y27501D01*
X392280Y29957D01*
X395234Y32910D01*
X397689Y36290D01*
X399586Y40012D01*
X400877Y43985D01*
X401530Y48111D01*
Y52289D01*
X400877Y56415D01*
X399586Y60388D01*
X397689Y64110D01*
X395234Y67490D01*
X392280Y70444D01*
X388900Y72899D01*
X385178Y74796D01*
X381205Y76087D01*
X377079Y76740D01*
D02*
G37*
G36*
X36826Y983540D02*
X33174D01*
X29592Y982827D01*
X26218Y981430D01*
X23182Y979401D01*
X20599Y976818D01*
X18570Y973782D01*
X17172Y970408D01*
X16460Y966826D01*
Y963174D01*
X17172Y959592D01*
X18570Y956218D01*
X20599Y953181D01*
X23182Y950599D01*
X26218Y948570D01*
X29592Y947172D01*
X33174Y946460D01*
X36826D01*
X40408Y947172D01*
X43782Y948570D01*
X46819Y950599D01*
X49401Y953181D01*
X51430Y956218D01*
X52828Y959592D01*
X53540Y963174D01*
Y966826D01*
X52828Y970408D01*
X51430Y973782D01*
X49401Y976818D01*
X46819Y979401D01*
X43782Y981430D01*
X40408Y982827D01*
X36826Y983540D01*
D02*
G37*
G36*
X966826D02*
X963174D01*
X959592Y982827D01*
X956218Y981430D01*
X953182Y979401D01*
X950599Y976818D01*
X948570Y973782D01*
X947173Y970408D01*
X946460Y966826D01*
Y963174D01*
X947173Y959592D01*
X948570Y956218D01*
X950599Y953181D01*
X953182Y950599D01*
X956218Y948570D01*
X959592Y947172D01*
X963174Y946460D01*
X966826D01*
X970408Y947172D01*
X973782Y948570D01*
X976819Y950599D01*
X979401Y953181D01*
X981430Y956218D01*
X982828Y959592D01*
X983540Y963174D01*
Y966826D01*
X982828Y970408D01*
X981430Y973782D01*
X979401Y976818D01*
X976819Y979401D01*
X973782Y981430D01*
X970408Y982827D01*
X966826Y983540D01*
D02*
G37*
G36*
Y53540D02*
X963174D01*
X959592Y52828D01*
X956218Y51430D01*
X953182Y49401D01*
X950599Y46819D01*
X948570Y43782D01*
X947173Y40408D01*
X946460Y36826D01*
Y33174D01*
X947173Y29592D01*
X948570Y26218D01*
X950599Y23182D01*
X953182Y20599D01*
X956218Y18570D01*
X959592Y17173D01*
X963174Y16460D01*
X966826D01*
X970408Y17173D01*
X973782Y18570D01*
X976819Y20599D01*
X979401Y23182D01*
X981430Y26218D01*
X982828Y29592D01*
X983540Y33174D01*
Y36826D01*
X982828Y40408D01*
X981430Y43782D01*
X979401Y46819D01*
X976819Y49401D01*
X973782Y51430D01*
X970408Y52828D01*
X966826Y53540D01*
D02*
G37*
G36*
X36826D02*
X33174D01*
X29592Y52828D01*
X26218Y51430D01*
X23182Y49401D01*
X20599Y46819D01*
X18570Y43782D01*
X17172Y40408D01*
X16460Y36826D01*
Y33174D01*
X17172Y29592D01*
X18570Y26218D01*
X20599Y23182D01*
X23182Y20599D01*
X26218Y18570D01*
X29592Y17173D01*
X33174Y16460D01*
X36826D01*
X40408Y17173D01*
X43782Y18570D01*
X46819Y20599D01*
X49401Y23182D01*
X51430Y26218D01*
X52828Y29592D01*
X53540Y33174D01*
Y36826D01*
X52828Y40408D01*
X51430Y43782D01*
X49401Y46819D01*
X46819Y49401D01*
X43782Y51430D01*
X40408Y52828D01*
X36826Y53540D01*
D02*
G37*
%LPD*%
D10*
X-0Y0D02*
X1000000D01*
Y1000000D01*
X685000D02*
X1000000D01*
X685000Y950000D02*
Y1000000D01*
X315000Y950000D02*
X685000D01*
X315000D02*
Y1000000D01*
X-0D02*
X315000D01*
X-0Y0D02*
Y1000000D01*
D16*
X120967Y401813D02*
X572462D01*
X114246Y395092D02*
X120967Y401813D01*
X282392Y561208D02*
X399900Y443700D01*
X208480Y561208D02*
X282392D01*
X201368Y568320D02*
X208480Y561208D01*
X201368Y568320D02*
Y740268D01*
X212800Y751700D01*
X93640Y683340D02*
X136600Y726300D01*
X93640Y537640D02*
Y683340D01*
X472290Y29370D02*
Y64400D01*
Y29370D02*
X477720Y23940D01*
X492902D01*
X498802Y29840D01*
Y44318D01*
X512264Y57780D01*
Y88024D01*
X581600Y157360D01*
X212800Y573900D02*
X333710D01*
X475434Y432176D01*
X586686D01*
X591766Y427096D01*
Y187846D02*
Y427096D01*
X581600Y177680D02*
X591766Y187846D01*
X574184Y485064D02*
X714900D01*
X293570Y765678D02*
X574184Y485064D01*
X148022Y765678D02*
X293570D01*
X136600Y777100D02*
X148022Y765678D01*
X212800Y599300D02*
X357332D01*
X504644Y451988D01*
X486140Y36000D02*
Y73998D01*
X169110Y391028D02*
X486140Y73998D01*
D51*
X80140Y280100D02*
D03*
X188580Y70000D02*
D03*
X436300Y830100D02*
D03*
X794900Y818800D02*
D03*
D52*
X188900Y280100D02*
D03*
X79820Y70000D02*
D03*
D69*
X136600Y853300D02*
D03*
D70*
Y827900D02*
D03*
Y802500D02*
D03*
Y777100D02*
D03*
Y751700D02*
D03*
Y726300D02*
D03*
Y700900D02*
D03*
Y675500D02*
D03*
Y650100D02*
D03*
Y624700D02*
D03*
Y599300D02*
D03*
Y573900D02*
D03*
Y548500D02*
D03*
Y523100D02*
D03*
X212800Y853300D02*
D03*
Y827900D02*
D03*
Y802500D02*
D03*
Y777100D02*
D03*
Y751700D02*
D03*
Y726300D02*
D03*
Y700900D02*
D03*
Y675500D02*
D03*
Y650100D02*
D03*
Y624700D02*
D03*
Y599300D02*
D03*
Y573900D02*
D03*
Y548500D02*
D03*
Y523100D02*
D03*
X941900Y488200D02*
D03*
D71*
X183700Y918300D02*
D03*
X158300D02*
D03*
X184200Y954800D02*
D03*
X158800D02*
D03*
X458440Y36000D02*
D03*
X486140D02*
D03*
X513840D02*
D03*
X541540D02*
D03*
X527690Y64400D02*
D03*
X444590D02*
D03*
X472290D02*
D03*
X499990D02*
D03*
D72*
X321800Y817300D02*
D03*
Y842700D02*
D03*
X258500Y816600D02*
D03*
Y842000D02*
D03*
D73*
X624990Y50200D02*
D03*
X374990D02*
D03*
D74*
X555390Y64400D02*
D03*
D75*
X399900Y418300D02*
D03*
Y431000D02*
D03*
D76*
Y443700D02*
D03*
D77*
X76500Y602700D02*
D03*
D78*
Y651500D02*
D03*
D79*
X436300Y804700D02*
D03*
D80*
X769500Y818800D02*
D03*
D81*
X916900Y463200D02*
D03*
Y513200D02*
D03*
X966900Y463200D02*
D03*
Y513200D02*
D03*
D82*
X35000Y35000D02*
D03*
X965000D02*
D03*
Y965000D02*
D03*
X35000D02*
D03*
D83*
X758413Y224260D02*
D03*
X743140Y211626D02*
D03*
Y199626D02*
D03*
X750806Y177267D02*
D03*
X747540Y153513D02*
D03*
X755618Y144639D02*
D03*
X768394Y179388D02*
D03*
X775230Y189250D02*
D03*
X776060Y201221D02*
D03*
Y213221D02*
D03*
X770827Y224020D02*
D03*
X834901Y166194D02*
D03*
X822900D02*
D03*
X811507Y169960D02*
D03*
X799513Y169571D02*
D03*
X776301Y168760D02*
D03*
X773702Y144639D02*
D03*
X785678Y145398D02*
D03*
X820970Y148606D02*
D03*
X832970D02*
D03*
X844854Y146940D02*
D03*
X852011Y229341D02*
D03*
X852000Y217341D02*
D03*
X855207Y205777D02*
D03*
X851440Y194384D02*
D03*
X855306Y170697D02*
D03*
X855140Y147857D02*
D03*
X867105Y146940D02*
D03*
X876661Y154199D02*
D03*
X876269Y166192D02*
D03*
X872894Y177708D02*
D03*
X853340Y300088D02*
D03*
X857307Y288763D02*
D03*
X853612Y277346D02*
D03*
X853600Y265346D02*
D03*
X855207Y253454D02*
D03*
X851940Y241907D02*
D03*
X875933Y233828D02*
D03*
X876057Y245828D02*
D03*
X872794Y257376D02*
D03*
X877461Y303421D02*
D03*
X854240Y389069D02*
D03*
X854428Y377071D02*
D03*
X858206Y365681D02*
D03*
X854602Y354235D02*
D03*
X854439Y342236D02*
D03*
X856817Y330474D02*
D03*
X853340Y318989D02*
D03*
X877461Y314431D02*
D03*
X877138Y326426D02*
D03*
X875794Y361695D02*
D03*
X925800Y496635D02*
D03*
X913800D02*
D03*
X901800D02*
D03*
X889800D02*
D03*
X866597Y502160D02*
D03*
X859365Y460327D02*
D03*
X859006Y425441D02*
D03*
Y413441D02*
D03*
X854240Y402428D02*
D03*
X878260Y394736D02*
D03*
X878329Y406736D02*
D03*
X876594Y418610D02*
D03*
Y430610D02*
D03*
X880360Y442003D02*
D03*
X879440Y453968D02*
D03*
X876235Y465532D02*
D03*
X876713Y477523D02*
D03*
X888502Y479765D02*
D03*
X900502D02*
D03*
X912502D02*
D03*
X924502D02*
D03*
X955732Y483548D02*
D03*
X944779Y502507D02*
D03*
X792760Y475074D02*
D03*
X804657Y476642D02*
D03*
X816636Y475940D02*
D03*
X828030Y479706D02*
D03*
X851877Y477039D02*
D03*
X852651Y502160D02*
D03*
X840693Y501155D02*
D03*
X829332Y497294D02*
D03*
X794327Y503920D02*
D03*
X749340Y574387D02*
D03*
X754164Y563400D02*
D03*
X757007Y551741D02*
D03*
Y539741D02*
D03*
Y527741D02*
D03*
Y515741D02*
D03*
X756293Y503762D02*
D03*
X751440Y492788D02*
D03*
X751612Y480789D02*
D03*
X762145Y475039D02*
D03*
X774143Y475256D02*
D03*
X774594Y508938D02*
D03*
Y520938D02*
D03*
Y532938D02*
D03*
Y544938D02*
D03*
Y556938D02*
D03*
X781431Y566800D02*
D03*
X782261Y578771D02*
D03*
Y590771D02*
D03*
X777028Y601570D02*
D03*
D84*
X572462Y401813D02*
D03*
X114246Y395092D02*
D03*
X93640Y537640D02*
D03*
X663394Y523100D02*
D03*
X581600Y157360D02*
D03*
Y177680D02*
D03*
X714900Y485064D02*
D03*
X504644Y451988D02*
D03*
X169110Y391028D02*
D03*
M02*
